{
.appVersion = "1075";
DisplayStrings = (
G,
P
);
copyright = "Copyright © 2018 by Cadson Demak Co.,Ltd.. All rights reserved.";
customParameters = (
{
name = vendorID;
value = CDK;
},
{
name = description;
value = "Copyright (c) 2018, Cadson Demak (info@cadsondemak.com)";
},
{
name = license;

glyphs = (
{
glyphname = A;
lastChange = "2018-02-24 15:15:32 +0000";
layers = (
{
anchors = (
{
name = bottom;
position = "{335, 0}";
},
{
name = ogonek;
position = "{573, -1}";
},
{
name = top;
position = "{335, 700}";
}
);
layerId = "0B1DFD06-3317-40CA-B510-4969A0718C16";
paths = (
{
closed = 1;
nodes = (
"583 -10 OFFCURVE",
"591 -6 OFFCURVE",
"591 3 CURVE SMOOTH",
"591 5 OFFCURVE",
"591 6 OFFCURVE",
"589 11 CURVE SMOOTH",
"567 79 OFFCURVE",
"425 552 OFFCURVE",
"404 616 CURVE SMOOTH",
"382 682 OFFCURVE",
"368 710 OFFCURVE",
"345 710 CURVE SMOOTH",
"319 710 OFFCURVE",
"301 676 OFFCURVE",
"278 605 CURVE SMOOTH",
"223 432 OFFCURVE",
"176 289 OFFCURVE",
"81 11 CURVE SMOOTH",
"80 8 OFFCURVE",
"80 7 OFFCURVE",
"80 5 CURVE SMOOTH",
"80 -2 OFFCURVE",
"86 -8 OFFCURVE",
"95 -8 CURVE SMOOTH",
"102 -8 OFFCURVE",
"108 -5 OFFCURVE",
"111 4 CURVE SMOOTH",
"203 275 OFFCURVE",
"248 419 OFFCURVE",
"308 604 CURVE SMOOTH",
"324 652 OFFCURVE",
"337 682 OFFCURVE",
"344 682 CURVE SMOOTH",
"351 682 OFFCURVE",
"365 653 OFFCURVE",
"379 607 CURVE SMOOTH",
"430 437 OFFCURVE",
"509 159 OFFCURVE",
"561 -1 CURVE SMOOTH",
"563 -6 OFFCURVE",
"569 -10 OFFCURVE",
"575 -10 CURVE SMOOTH"
);
},
{
closed = 1;
nodes = (
"565 189 OFFCURVE",
"570 196 OFFCURVE",
"570 203 CURVE SMOOTH",
"570 211 OFFCURVE",
"565 217 OFFCURVE",
"557 217 CURVE SMOOTH",
"174 221 LINE SMOOTH",
"160 221 OFFCURVE",
"155 213 OFFCURVE",
"155 207 CURVE SMOOTH",
"155 201 OFFCURVE",
"159 191 OFFCURVE",
"170 191 CURVE SMOOTH",
"555 189 LINE SMOOTH"
);
}
);
width = 681;
},
{
anchors = (
{
name = bottom;
position = "{355, 0}";
},
{
name = ogonek;
position = "{573, 37}";
},
{
name = top;
position = "{355, 700}";
}
);
layerId = "2F8C22CF-EC86-44F4-AF1A-A6C7F26A0C3C";
paths = (
{
closed = 1;
nodes = (
"603 -11 OFFCURVE",
"644 9 OFFCURVE",
"644 50 CURVE SMOOTH",
"644 56 OFFCURVE",
"643 62 OFFCURVE",
"641 69 CURVE SMOOTH",
"554 360 OFFCURVE",
"528 446 OFFCURVE",
"480 596 CURVE SMOOTH",
"452 682 OFFCURVE",
"423 712 OFFCURVE",
"364 712 CURVE SMOOTH",
"302 712 OFFCURVE",
"271 676 OFFCURVE",
"241 587 CURVE SMOOTH",
"185 418 OFFCURVE",
"167 360 OFFCURVE",
"70 70 CURVE SMOOTH",
"68 63 OFFCURVE",
"67 56 OFFCURVE",
"67 50 CURVE SMOOTH",
"67 12 OFFCURVE",
"109 -10 OFFCURVE",
"150 -10 CURVE SMOOTH",
"182 -10 OFFCURVE",
"213 2 OFFCURVE",
"224 34 CURVE SMOOTH",
"278 184 OFFCURVE",
"315 318 OFFCURVE",
"333 381 CURVE SMOOTH",
"344 420 OFFCURVE",
"348 451 OFFCURVE",
"358 451 CURVE SMOOTH",
"367 451 OFFCURVE",
"372 420 OFFCURVE",
"386 374 CURVE SMOOTH",
"406 308 OFFCURVE",
"437 182 OFFCURVE",
"486 31 CURVE SMOOTH",
"495 3 OFFCURVE",
"528 -11 OFFCURVE",
"562 -11 CURVE SMOOTH"
);
},
{
closed = 1;
nodes = (
"589 159 OFFCURVE",
"627 172 OFFCURVE",
"627 224 CURVE SMOOTH",
"627 268 OFFCURVE",
"596 286 OFFCURVE",
"552 287 CURVE SMOOTH",
"216 291 LINE SMOOTH",
"169 292 OFFCURVE",
"141 262 OFFCURVE",
"141 223 CURVE SMOOTH",
"141 188 OFFCURVE",
"165 161 OFFCURVE",
"207 161 CURVE SMOOTH",
"544 159 LINE SMOOTH"
);
}
);
width = 710;
}
);
leftKerningGroup = A;
note = A;
rightKerningGroup = A;
unicode = 0041;
},
{
glyphname = B;
lastChange = "2018-02-24 15:16:05 +0000";
layers = (
{
anchors = (
{
name = bottom;
position = "{293, 0}";
},
{
name = top;
position = "{293, 700}";
}
);
layerId = "0B1DFD06-3317-40CA-B510-4969A0718C16";
paths = (
{
closed = 1;
nodes = (
"100 -16 OFFCURVE",
"106 -9 OFFCURVE",
"107 12 CURVE",
"94 3 LINE",
"155 3 OFFCURVE",
"176 4 OFFCURVE",
"236 0 CURVE SMOOTH",
"386 -9 OFFCURVE",
"515 41 OFFCURVE",
"515 174 CURVE SMOOTH",
"515 274 OFFCURVE",
"439 352 OFFCURVE",
"274 360 CURVE",
"274 351 LINE",
"439 358 OFFCURVE",
"525 410 OFFCURVE",
"525 519 CURVE SMOOTH",
"525 649 OFFCURVE",
"405 706 OFFCURVE",
"270 706 CURVE SMOOTH",
"203 706 OFFCURVE",
"138 692 OFFCURVE",
"85 670 CURVE SMOOTH",
"61 660 OFFCURVE",
"54 655 OFFCURVE",
"54 641 CURVE SMOOTH",
"54 631 OFFCURVE",
"61 627 OFFCURVE",
"67 627 CURVE SMOOTH",
"77 627 OFFCURVE",
"99 640 OFFCURVE",
"103 642 CURVE",
"89 653 LINE",
"95 557 OFFCURVE",
"94 478 OFFCURVE",
"94 381 CURVE SMOOTH",
"94 252 OFFCURVE",
"89 137 OFFCURVE",
"76 18 CURVE",
"88 32 LINE",
"48 33 LINE SMOOTH",
"36 33 OFFCURVE",
"31 29 OFFCURVE",
"31 18 CURVE SMOOTH",
"31 11 OFFCURVE",
"33 3 OFFCURVE",
"48 3 CURVE SMOOTH",
"86 3 LINE",
"76 13 LINE",
"73 -7 OFFCURVE",
"76 -16 OFFCURVE",
"88 -16 CURVE SMOOTH"
);
},
{
closed = 1;
nodes = (
"121 139 OFFCURVE",
"125 256 OFFCURVE",
"125 383 CURVE SMOOTH",
"125 477 OFFCURVE",
"125 560 OFFCURVE",
"122 668 CURVE",
"109 645 LINE",
"141 669 OFFCURVE",
"212 676 OFFCURVE",
"274 676 CURVE SMOOTH",
"387 676 OFFCURVE",
"494 630 OFFCURVE",
"494 517 CURVE SMOOTH",
"494 424 OFFCURVE",
"383 374 OFFCURVE",
"220 374 CURVE SMOOTH",
"203 374 OFFCURVE",
"196 369 OFFCURVE",
"196 358 CURVE SMOOTH",
"196 344 OFFCURVE",
"204 340 OFFCURVE",
"219 340 CURVE SMOOTH",
"383 340 OFFCURVE",
"484 274 OFFCURVE",
"484 174 CURVE SMOOTH",
"484 60 OFFCURVE",
"370 23 OFFCURVE",
"213 30 CURVE SMOOTH",
"157 33 OFFCURVE",
"123 32 OFFCURVE",
"94 32 CURVE",
"106 18 LINE"
);
}
);
width = 585;
},
{
anchors = (
{
name = bottom;
position = "{336, 0}";
},
{
name = top;
position = "{335, 700}";
}
);
background = {
paths = (
{
closed = 1;
nodes = (
"92 -16 OFFCURVE",
"97 -9 OFFCURVE",
"99 3 CURVE",
"144 3 OFFCURVE",
"181 3 OFFCURVE",
"230 0 CURVE SMOOTH",
"380 -9 OFFCURVE",
"509 41 OFFCURVE",
"509 174 CURVE SMOOTH",
"509 265 OFFCURVE",
"444 337 OFFCURVE",
"308 355 CURVE",
"435 370 OFFCURVE",
"519 420 OFFCURVE",
"519 519 CURVE SMOOTH",
"519 649 OFFCURVE",
"399 706 OFFCURVE",
"264 706 CURVE SMOOTH",
"197 706 OFFCURVE",
"132 692 OFFCURVE",
"79 670 CURVE SMOOTH",
"64 664 OFFCURVE",
"48 656 OFFCURVE",
"48 640 CURVE SMOOTH",
"48 636 OFFCURVE",
"49 626 OFFCURVE",
"57 626 CURVE SMOOTH",
"67 626 OFFCURVE",
"77 636 OFFCURVE",
"84 636 CURVE",
"88 574 OFFCURVE",
"88 502 OFFCURVE",
"88 435 CURVE SMOOTH",
"88 315 OFFCURVE",
"83 151 OFFCURVE",
"72 33 CURVE",
"42 33 LINE SMOOTH",
"30 33 OFFCURVE",
"25 29 OFFCURVE",
"25 18 CURVE SMOOTH",
"25 11 OFFCURVE",
"27 3 OFFCURVE",
"42 3 CURVE SMOOTH",
"69 3 LINE",
"69 -9 OFFCURVE",
"72 -16 OFFCURVE",
"82 -16 CURVE SMOOTH"
);
},
{
closed = 1;
nodes = (
"163 32 OFFCURVE",
"122 32 OFFCURVE",
"101 32 CURVE",
"114 146 OFFCURVE",
"119 271 OFFCURVE",
"119 417 CURVE SMOOTH",
"119 483 OFFCURVE",
"118 561 OFFCURVE",
"116 653 CURVE",
"150 669 OFFCURVE",
"200 677 OFFCURVE",
"248 677 CURVE SMOOTH",
"364 677 OFFCURVE",
"489 630 OFFCURVE",
"489 517 CURVE SMOOTH",
"489 402 OFFCURVE",
"361 373 OFFCURVE",
"214 370 CURVE SMOOTH",
"197 370 OFFCURVE",
"190 369 OFFCURVE",
"190 356 CURVE SMOOTH",
"190 342 OFFCURVE",
"198 340 OFFCURVE",
"213 340 CURVE SMOOTH",
"317 340 OFFCURVE",
"478 315 OFFCURVE",
"478 180 CURVE SMOOTH",
"478 66 OFFCURVE",
"364 23 OFFCURVE",
"207 30 CURVE SMOOTH"
);
}
);
};
layerId = "2F8C22CF-EC86-44F4-AF1A-A6C7F26A0C3C";
paths = (
{
closed = 1;
nodes = (
"219 -34 OFFCURVE",
"258 -22 OFFCURVE",
"263 51 CURVE",
"203 4 LINE",
"259 0 OFFCURVE",
"310 -4 OFFCURVE",
"355 -4 CURVE SMOOTH",
"497 -4 OFFCURVE",
"615 64 OFFCURVE",
"615 196 CURVE SMOOTH",
"615 269 OFFCURVE",
"579 336 OFFCURVE",
"445 373 CURVE",
"446 326 LINE",
"580 359 OFFCURVE",
"624 421 OFFCURVE",
"624 497 CURVE SMOOTH",
"624 622 OFFCURVE",
"504 708 OFFCURVE",
"336 708 CURVE SMOOTH",
"282 708 OFFCURVE",
"212 699 OFFCURVE",
"150 673 CURVE SMOOTH",
"102 653 OFFCURVE",
"80 631 OFFCURVE",
"80 593 CURVE SMOOTH",
"80 567 OFFCURVE",
"91 542 OFFCURVE",
"122 550 CURVE SMOOTH",
"134 553 OFFCURVE",
"146 558 OFFCURVE",
"154 562 CURVE",
"113 584 LINE",
"113 498 OFFCURVE",
"114 434 OFFCURVE",
"114 384 CURVE SMOOTH",
"114 274 OFFCURVE",
"110 181 OFFCURVE",
"102 94 CURVE",
"160 131 LINE",
"114 133 LINE SMOOTH",
"69 135 OFFCURVE",
"60 96 OFFCURVE",
"60 68 CURVE SMOOTH",
"60 34 OFFCURVE",
"73 15 OFFCURVE",
"113 10 CURVE SMOOTH",
"158 4 LINE",
"102 55 LINE",
"98 -13 OFFCURVE",
"137 -34 OFFCURVE",
"181 -34 CURVE SMOOTH"
);
},
{
closed = 1;
nodes = (
"274 212 OFFCURVE",
"279 280 OFFCURVE",
"279 384 CURVE SMOOTH",
"279 472 OFFCURVE",
"279 513 OFFCURVE",
"276 611 CURVE",
"237 573 LINE",
"263 576 OFFCURVE",
"286 579 OFFCURVE",
"322 579 CURVE SMOOTH",
"412 579 OFFCURVE",
"460 548 OFFCURVE",
"460 491 CURVE SMOOTH",
"460 409 OFFCURVE",
"353 417 OFFCURVE",
"276 417 CURVE SMOOTH",
"243 417 OFFCURVE",
"208 403 OFFCURVE",
"208 352 CURVE SMOOTH",
"208 304 OFFCURVE",
"233 289 OFFCURVE",
"281 289 CURVE SMOOTH",
"364 289 OFFCURVE",
"451 280 OFFCURVE",
"451 207 CURVE SMOOTH",
"451 143 OFFCURVE",
"394 123 OFFCURVE",
"328 123 CURVE SMOOTH",
"279 123 OFFCURVE",
"253 123 OFFCURVE",
"203 127 CURVE",
"263 69 LINE"
);
}
);
width = 674;
}
);
note = B;
unicode = 0042;
},
{
glyphname = C;
lastChange = "2018-02-24 15:18:57 +0000";
layers = (
{
anchors = (
{
name = bottom;
position = "{344, 0}";
},
{
name = top;
position = "{344, 700}";
}
);
layerId = "0B1DFD06-3317-40CA-B510-4969A0718C16";
paths = (
{
closed = 1;
nodes = (
"540 -2 OFFCURVE",
"658 111 OFFCURVE",
"658 235 CURVE SMOOTH",
"658 245 OFFCURVE",
"658 257 OFFCURVE",
"644 257 CURVE SMOOTH",
"634 257 OFFCURVE",
"628 250 OFFCURVE",
"628 239 CURVE SMOOTH",
"628 124 OFFCURVE",
"510 29 OFFCURVE",
"385 29 CURVE SMOOTH",
"243 29 OFFCURVE",
"81 110 OFFCURVE",
"81 329 CURVE SMOOTH",
"81 537 OFFCURVE",
"230 681 OFFCURVE",
"381 681 CURVE SMOOTH",
"470 681 OFFCURVE",
"527 638 OFFCURVE",
"583 558 CURVE SMOOTH",
"591 547 OFFCURVE",
"597 547 OFFCURVE",
"604 547 CURVE SMOOTH",
"613 547 OFFCURVE",
"619 553 OFFCURVE",
"619 563 CURVE SMOOTH",
"620 610 OFFCURVE",
"620 648 OFFCURVE",
"621 693 CURVE SMOOTH",
"621 702 OFFCURVE",
"614 707 OFFCURVE",
"604 707 CURVE SMOOTH",
"595 707 OFFCURVE",
"588 701 OFFCURVE",
"588 692 CURVE SMOOTH",
"588 665 OFFCURVE",
"589 603 OFFCURVE",
"589 578 CURVE",
"601 579 LINE",
"550 663 OFFCURVE",
"474 712 OFFCURVE",
"380 712 CURVE SMOOTH",
"212 712 OFFCURVE",
"50 568 OFFCURVE",
"50 328 CURVE SMOOTH",
"50 82 OFFCURVE",
"227 -2 OFFCURVE",
"377 -2 CURVE SMOOTH"
);
}
);
width = 688;
},
{
anchors = (
{
name = bottom;
position = "{372, 0}";
},
{
name = top;
position = "{337, 700}";
}
);
background = {
paths = (
{
closed = 1;
nodes = (
"553 -2 OFFCURVE",
"658 106 OFFCURVE",
"658 235 CURVE SMOOTH",
"658 245 OFFCURVE",
"658 257 OFFCURVE",
"644 257 CURVE SMOOTH",
"634 257 OFFCURVE",
"628 250 OFFCURVE",
"628 239 CURVE SMOOTH",
"628 163 OFFCURVE",
"572 29 OFFCURVE",
"385 29 CURVE SMOOTH",
"235 29 OFFCURVE",
"80 110 OFFCURVE",
"80 329 CURVE SMOOTH",
"80 545 OFFCURVE",
"230 681 OFFCURVE",
"381 681 CURVE SMOOTH",
"475 681 OFFCURVE",
"525 628 OFFCURVE",
"596 550 CURVE SMOOTH",
"601 545 OFFCURVE",
"606 542 OFFCURVE",
"609 542 CURVE SMOOTH",
"613 542 OFFCURVE",
"616 546 OFFCURVE",
"618 555 CURVE SMOOTH",
"621 571 OFFCURVE",
"621 592 OFFCURVE",
"621 696 CURVE SMOOTH",
"621 705 OFFCURVE",
"614 707 OFFCURVE",
"604 707 CURVE SMOOTH",
"595 707 OFFCURVE",
"588 701 OFFCURVE",
"588 692 CURVE SMOOTH",
"588 672 OFFCURVE",
"587 638 OFFCURVE",
"587 611 CURVE",
"520 674 OFFCURVE",
"463 712 OFFCURVE",
"380 712 CURVE SMOOTH",
"218 712 OFFCURVE",
"50 568 OFFCURVE",
"50 328 CURVE SMOOTH",
"50 82 OFFCURVE",
"227 -2 OFFCURVE",
"377 -2 CURVE SMOOTH"
);
}
);
};
layerId = "2F8C22CF-EC86-44F4-AF1A-A6C7F26A0C3C";
paths = (
{
closed = 1;
nodes = (
"552 -4 OFFCURVE",
"685 103 OFFCURVE",
"685 252 CURVE SMOOTH",
"685 295 OFFCURVE",
"652 322 OFFCURVE",
"604 322 CURVE SMOOTH",
"558 322 OFFCURVE",
"521 294 OFFCURVE",
"521 255 CURVE SMOOTH",
"521 178 OFFCURVE",
"459 126 OFFCURVE",
"374 126 CURVE SMOOTH",
"261 126 OFFCURVE",
"187 200 OFFCURVE",
"187 333 CURVE SMOOTH",
"187 473 OFFCURVE",
"274 584 OFFCURVE",
"377 584 CURVE SMOOTH",
"459 584 OFFCURVE",
"489 537 OFFCURVE",
"525 487 CURVE SMOOTH",
"536 472 OFFCURVE",
"559 464 OFFCURVE",
"580 464 CURVE SMOOTH",
"631 464 OFFCURVE",
"650 497 OFFCURVE",
"652 552 CURVE SMOOTH",
"653 584 OFFCURVE",
"653 617 OFFCURVE",
"653 649 CURVE SMOOTH",
"653 685 OFFCURVE",
"627 710 OFFCURVE",
"581 710 CURVE SMOOTH",
"536 710 OFFCURVE",
"516 683 OFFCURVE",
"516 646 CURVE SMOOTH",
"516 629 OFFCURVE",
"515 599 OFFCURVE",
"515 576 CURVE",
"566 576 LINE",
"552 643 OFFCURVE",
"484 714 OFFCURVE",
"337 714 CURVE SMOOTH",
"161 714 OFFCURVE",
"23 547 OFFCURVE",
"23 332 CURVE SMOOTH",
"23 129 OFFCURVE",
"164 -4 OFFCURVE",
"374 -4 CURVE SMOOTH"
);
}
);
width = 724;
}
);
leftKerningGroup = C;
note = C;
rightKerningGroup = C;
unicode = 0043;
},
{
glyphname = D;
lastChange = "2018-02-26 11:44:06 +0000";
layers = (
{
anchors = (
{
name = bottom;
position = "{341, 0}";
},
{
name = center;
position = "{341, 350}";
},
{
name = top;
position = "{341, 700}";
}
);
layerId = "0B1DFD06-3317-40CA-B510-4969A0718C16";
paths = (
{
closed = 1;
nodes = (
"134 8 OFFCURVE",
"155 8 OFFCURVE",
"180 8 CURVE SMOOTH",
"459 8 OFFCURVE",
"621 142 OFFCURVE",
"621 357 CURVE SMOOTH",
"621 606 OFFCURVE",
"407 698 OFFCURVE",
"111 698 CURVE SMOOTH",
"96 698 OFFCURVE",
"88 694 OFFCURVE",
"88 683 CURVE SMOOTH",
"88 671 OFFCURVE",
"94 667 OFFCURVE",
"111 667 CURVE SMOOTH",
"393 667 OFFCURVE",
"590 581 OFFCURVE",
"590 358 CURVE SMOOTH",
"590 152 OFFCURVE",
"427 38 OFFCURVE",
"177 38 CURVE",
"187 30 LINE",
"170 692 LINE SMOOTH",
"170 705 OFFCURVE",
"166 713 OFFCURVE",
"155 713 CURVE SMOOTH",
"145 713 OFFCURVE",
"138 708 OFFCURVE",
"138 691 CURVE SMOOTH",
"156 30 LINE",
"164 38 LINE",
"104 38 LINE SMOOTH",
"94 38 OFFCURVE",
"89 32 OFFCURVE",
"89 23 CURVE SMOOTH",
"89 14 OFFCURVE",
"93 8 OFFCURVE",
"105 8 CURVE SMOOTH"
);
}
);
width = 681;
},
{
anchors = (
{
name = bottom;
position = "{334, 0}";
},
{
name = center;
position = "{347, 351}";
},
{
name = top;
position = "{339, 700}";
}
);
background = {
paths = (
{
closed = 1;
nodes = (
"463 8 OFFCURVE",
"625 142 OFFCURVE",
"625 357 CURVE SMOOTH",
"625 606 OFFCURVE",
"407 698 OFFCURVE",
"117 698 CURVE SMOOTH",
"104 698 OFFCURVE",
"92 699 OFFCURVE",
"92 686 CURVE SMOOTH",
"92 674 OFFCURVE",
"99 669 OFFCURVE",
"115 669 CURVE SMOOTH",
"403 669 OFFCURVE",
"596 581 OFFCURVE",
"596 358 CURVE SMOOTH",
"596 158 OFFCURVE",
"421 37 OFFCURVE",
"191 37 CURVE",
"173 686 LINE SMOOTH",
"173 703 OFFCURVE",
"172 712 OFFCURVE",
"158 712 CURVE SMOOTH",
"143 712 OFFCURVE",
"142 701 OFFCURVE",
"142 684 CURVE SMOOTH",
"160 37 LINE",
"105 37 LINE SMOOTH",
"98 37 OFFCURVE",
"93 34 OFFCURVE",
"93 25 CURVE SMOOTH",
"93 13 OFFCURVE",
"97 8 OFFCURVE",
"109 8 CURVE SMOOTH",
"138 8 OFFCURVE",
"159 8 OFFCURVE",
"184 8 CURVE SMOOTH"
);
}
);
};
layerId = "2F8C22CF-EC86-44F4-AF1A-A6C7F26A0C3C";
paths = (
{
closed = 1;
nodes = (
"168 5 OFFCURVE",
"187 5 OFFCURVE",
"208 5 CURVE SMOOTH",
"482 5 OFFCURVE",
"657 143 OFFCURVE",
"657 353 CURVE SMOOTH",
"657 590 OFFCURVE",
"455 703 OFFCURVE",
"187 703 CURVE SMOOTH",
"94 703 OFFCURVE",
"60 682 OFFCURVE",
"60 637 CURVE SMOOTH",
"60 590 OFFCURVE",
"88 574 OFFCURVE",
"149 574 CURVE SMOOTH",
"295 574 OFFCURVE",
"494 537 OFFCURVE",
"494 360 CURVE SMOOTH",
"494 220 OFFCURVE",
"385 133 OFFCURVE",
"233 133 CURVE",
"283 85 LINE",
"268 636 LINE SMOOTH",
"267 690 OFFCURVE",
"245 719 OFFCURVE",
"184 719 CURVE SMOOTH",
"119 719 OFFCURVE",
"102 687 OFFCURVE",
"103 637 CURVE SMOOTH",
"118 85 LINE",
"166 133 LINE",
"118 133 LINE SMOOTH",
"76 133 OFFCURVE",
"61 111 OFFCURVE",
"61 66 CURVE SMOOTH",
"61 18 OFFCURVE",
"95 5 OFFCURVE",
"143 5 CURVE SMOOTH"
);
}
);
width = 735;
}
);
note = D;
unicode = 0044;
},
{
glyphname = E;
lastChange = "2018-02-26 11:48:59 +0000";
layers = (
{
anchors = (
{
name = bottom;
position = "{268, 0}";
},
{
name = ogonek;
position = "{467, 34}";
},
{
name = top;
position = "{319, 700}";
},
{
name = topleft;
position = "{20, 700}";
}
);
layerId = "0B1DFD06-3317-40CA-B510-4969A0718C16";
paths = (
{
closed = 1;
nodes = (
"373 14 OFFCURVE",
"423 13 OFFCURVE",
"478 22 CURVE SMOOTH",
"491 24 OFFCURVE",
"493 28 OFFCURVE",
"493 38 CURVE SMOOTH",
"493 47 OFFCURVE",
"488 55 OFFCURVE",
"474 53 CURVE SMOOTH",
"421 45 OFFCURVE",
"352 44 OFFCURVE",
"289 44 CURVE SMOOTH",
"239 44 OFFCURVE",
"149 47 OFFCURVE",
"101 52 CURVE",
"112 41 LINE",
"119 126 OFFCURVE",
"134 219 OFFCURVE",
"134 406 CURVE SMOOTH",
"134 514 OFFCURVE",
"133 604 OFFCURVE",
"129 671 CURVE",
"120 660 LINE",
"163 663 OFFCURVE",
"215 666 OFFCURVE",
"271 666 CURVE SMOOTH",
"343 666 OFFCURVE",
"426 664 OFFCURVE",
"482 657 CURVE SMOOTH",
"490 656 OFFCURVE",
"499 660 OFFCURVE",
"499 672 CURVE SMOOTH",
"499 681 OFFCURVE",
"493 686 OFFCURVE",
"483 687 CURVE SMOOTH",
"426 693 OFFCURVE",
"362 696 OFFCURVE",
"271 696 CURVE SMOOTH",
"190 696 OFFCURVE",
"162 695 OFFCURVE",
"97 690 CURVE SMOOTH",
"83 689 OFFCURVE",
"77 685 OFFCURVE",
"77 674 CURVE SMOOTH",
"77 660 OFFCURVE",
"83 658 OFFCURVE",
"110 660 CURVE",
"99 670 LINE",
"104 603 OFFCURVE",
"103 513 OFFCURVE",
"103 406 CURVE SMOOTH",
"103 242 OFFCURVE",
"93 128 OFFCURVE",
"79 42 CURVE",
"92 52 LINE",
"75 54 OFFCURVE",
"66 55 OFFCURVE",
"59 55 CURVE SMOOTH",
"51 55 OFFCURVE",
"45 49 OFFCURVE",
"45 40 CURVE SMOOTH",
"45 30 OFFCURVE",
"49 25 OFFCURVE",
"61 24 CURVE SMOOTH",
"142 17 OFFCURVE",
"214 14 OFFCURVE",
"289 14 CURVE SMOOTH"
);
},
{
closed = 1;
nodes = (
"407 349 OFFCURVE",
"411 356 OFFCURVE",
"411 365 CURVE SMOOTH",
"411 374 OFFCURVE",
"405 380 OFFCURVE",
"395 380 CURVE SMOOTH",
"363 380 OFFCURVE",
"279 384 OFFCURVE",
"232 384 CURVE SMOOTH",
"162 384 OFFCURVE",
"98 387 OFFCURVE",
"75 387 CURVE SMOOTH",
"63 387 OFFCURVE",
"58 381 OFFCURVE",
"58 372 CURVE SMOOTH",
"58 363 OFFCURVE",
"63 356 OFFCURVE",
"75 356 CURVE SMOOTH",
"98 356 OFFCURVE",
"161 354 OFFCURVE",
"229 354 CURVE SMOOTH",
"283 354 OFFCURVE",
"364 349 OFFCURVE",
"394 349 CURVE SMOOTH"
);
}
);
width = 535;
},
{
anchors = (
{
name = bottom;
position = "{320, 0}";
},
{
name = ogonek;
position = "{518, 74}";
},
{
name = top;
position = "{355, 700}";
},
{
name = topleft;
position = "{108, 652}";
}
);
layerId = "2F8C22CF-EC86-44F4-AF1A-A6C7F26A0C3C";
paths = (
{
closed = 1;
nodes = (
"435 9 OFFCURVE",
"476 9 OFFCURVE",
"530 18 CURVE SMOOTH",
"571 25 OFFCURVE",
"584 52 OFFCURVE",
"584 82 CURVE SMOOTH",
"584 122 OFFCURVE",
"557 152 OFFCURVE",
"507 145 CURVE SMOOTH",
"462 139 OFFCURVE",
"419 136 OFFCURVE",
"358 136 CURVE SMOOTH",
"305 136 OFFCURVE",
"283 137 OFFCURVE",
"208 145 CURVE",
"259 93 LINE",
"278 213 OFFCURVE",
"278 254 OFFCURVE",
"278 382 CURVE SMOOTH",
"278 431 OFFCURVE",
"274 520 OFFCURVE",
"274 620 CURVE",
"227 567 LINE",
"260 570 OFFCURVE",
"309 574 OFFCURVE",
"368 574 CURVE SMOOTH",
"439 574 OFFCURVE",
"488 570 OFFCURVE",
"534 566 CURVE SMOOTH",
"569 563 OFFCURVE",
"590 592 OFFCURVE",
"590 631 CURVE SMOOTH",
"590 667 OFFCURVE",
"570 689 OFFCURVE",
"527 693 CURVE SMOOTH",
"484 697 OFFCURVE",
"427 701 OFFCURVE",
"346 701 CURVE SMOOTH",
"273 701 OFFCURVE",
"197 700 OFFCURVE",
"158 696 CURVE SMOOTH",
"109 691 OFFCURVE",
"88 671 OFFCURVE",
"88 632 CURVE SMOOTH",
"88 593 OFFCURVE",
"107 566 OFFCURVE",
"169 567 CURVE",
"112 620 LINE",
"112 505 OFFCURVE",
"111 419 OFFCURVE",
"111 372 CURVE SMOOTH",
"111 285 OFFCURVE",
"116 225 OFFCURVE",
"93 103 CURVE",
"159 148 LINE",
"137 148 OFFCURVE",
"116 148 OFFCURVE",
"101 147 CURVE SMOOTH",
"73 145 OFFCURVE",
"60 118 OFFCURVE",
"60 80 CURVE SMOOTH",
"60 52 OFFCURVE",
"73 28 OFFCURVE",
"104 24 CURVE SMOOTH",
"211 10 OFFCURVE",
"271 9 OFFCURVE",
"356 9 CURVE SMOOTH"
);
},
{
closed = 1;
nodes = (
"499 300 OFFCURVE",
"515 326 OFFCURVE",
"515 369 CURVE SMOOTH",
"515 402 OFFCURVE",
"502 425 OFFCURVE",
"471 427 CURVE SMOOTH",
"421 431 OFFCURVE",
"369 431 OFFCURVE",
"290 431 CURVE SMOOTH",
"208 431 OFFCURVE",
"162 433 OFFCURVE",
"123 433 CURVE SMOOTH",
"82 433 OFFCURVE",
"71 399 OFFCURVE",
"71 369 CURVE SMOOTH",
"71 331 OFFCURVE",
"91 303 OFFCURVE",
"124 303 CURVE SMOOTH",
"162 303 OFFCURVE",
"227 302 OFFCURVE",
"290 302 CURVE SMOOTH",
"370 302 OFFCURVE",
"408 300 OFFCURVE",
"471 300 CURVE SMOOTH"
);
}
);
width = 630;
}
);
note = E;
unicode = 0045;
},
{
glyphname = F;
lastChange = "2018-02-26 11:50:13 +0000";
layers = (
{
anchors = (
{
name = bottom;
position = "{259, 0}";
},
{
name = top;
position = "{259, 700}";
}
);
layerId = "0B1DFD06-3317-40CA-B510-4969A0718C16";
paths = (
{
closed = 1;
nodes = (
"121 6 OFFCURVE",
"128 10 OFFCURVE",
"129 18 CURVE SMOOTH",
"135 70 OFFCURVE",
"141 184 OFFCURVE",
"141 355 CURVE SMOOTH",
"141 525 OFFCURVE",
"131 643 OFFCURVE",
"121 726 CURVE SMOOTH",
"119 742 OFFCURVE",
"112 745 OFFCURVE",
"103 745 CURVE SMOOTH",
"95 745 OFFCURVE",
"87 740 OFFCURVE",
"89 727 CURVE SMOOTH",
"100 640 OFFCURVE",
"110 531 OFFCURVE",
"110 354 CURVE SMOOTH",
"110 184 OFFCURVE",
"104 71 OFFCURVE",
"98 20 CURVE SMOOTH",
"97 11 OFFCURVE",
"104 6 OFFCURVE",
"113 6 CURVE SMOOTH"
);
},
{
closed = 1;
nodes = (
"91 331 OFFCURVE",
"163 343 OFFCURVE",
"250 343 CURVE SMOOTH",
"312 343 OFFCURVE",
"365 342 OFFCURVE",
"409 339 CURVE SMOOTH",
"417 338 OFFCURVE",
"425 342 OFFCURVE",
"425 352 CURVE SMOOTH",
"425 363 OFFCURVE",
"418 368 OFFCURVE",
"408 369 CURVE SMOOTH",
"369 372 OFFCURVE",
"325 373 OFFCURVE",
"250 373 CURVE SMOOTH",
"165 373 OFFCURVE",
"89 361 OFFCURVE",
"48 356 CURVE SMOOTH",
"39 355 OFFCURVE",
"35 347 OFFCURVE",
"35 338 CURVE SMOOTH",
"35 328 OFFCURVE",
"43 324 OFFCURVE",
"51 325 CURVE SMOOTH"
);
},
{
closed = 1;
nodes = (
"481 655 OFFCURVE",
"486 661 OFFCURVE",
"486 670 CURVE SMOOTH",
"486 679 OFFCURVE",
"482 685 OFFCURVE",
"471 687 CURVE SMOOTH",
"418 697 OFFCURVE",
"373 700 OFFCURVE",
"275 700 CURVE SMOOTH",
"180 700 OFFCURVE",
"135 694 OFFCURVE",
"50 689 CURVE SMOOTH",
"36 688 OFFCURVE",
"33 681 OFFCURVE",
"33 674 CURVE SMOOTH",
"33 664 OFFCURVE",
"37 657 OFFCURVE",
"51 658 CURVE SMOOTH",
"135 664 OFFCURVE",
"211 670 OFFCURVE",
"275 670 CURVE SMOOTH",
"330 670 OFFCURVE",
"406 667 OFFCURVE",
"469 657 CURVE SMOOTH"
);
}
);
width = 517;
},
{
anchors = (
{
name = bottom;
position = "{198, 0}";
},
{
name = top;
position = "{335, 700}";
}
);
layerId = "2F8C22CF-EC86-44F4-AF1A-A6C7F26A0C3C";
paths = (
{
closed = 1;
nodes = (
"246 5 OFFCURVE",
"281 30 OFFCURVE",
"283 65 CURVE SMOOTH",
"287 137 OFFCURVE",
"292 200 OFFCURVE",
"292 358 CURVE SMOOTH",
"292 506 OFFCURVE",
"283 605 OFFCURVE",
"276 678 CURVE SMOOTH",
"272 720 OFFCURVE",
"242 746 OFFCURVE",
"193 746 CURVE SMOOTH",
"148 746 OFFCURVE",
"107 717 OFFCURVE",
"110 679 CURVE SMOOTH",
"118 590 OFFCURVE",
"128 500 OFFCURVE",
"128 353 CURVE SMOOTH",
"128 193 OFFCURVE",
"124 139 OFFCURVE",
"118 66 CURVE SMOOTH",
"115 30 OFFCURVE",
"154 5 OFFCURVE",
"200 5 CURVE SMOOTH"
);
},
{
closed = 1;
nodes = (
"144 284 OFFCURVE",
"244 294 OFFCURVE",
"313 294 CURVE SMOOTH",
"394 294 OFFCURVE",
"432 291 OFFCURVE",
"478 286 CURVE SMOOTH",
"521 281 OFFCURVE",
"541 312 OFFCURVE",
"541 348 CURVE SMOOTH",
"541 381 OFFCURVE",
"521 405 OFFCURVE",
"487 411 CURVE SMOOTH",
"436 420 OFFCURVE",
"373 422 OFFCURVE",
"305 422 CURVE SMOOTH",
"238 422 OFFCURVE",
"178 417 OFFCURVE",
"126 409 CURVE SMOOTH",
"81 402 OFFCURVE",
"63 382 OFFCURVE",
"63 343 CURVE SMOOTH",
"63 307 OFFCURVE",
"84 276 OFFCURVE",
"115 280 CURVE SMOOTH"
);
},
{
closed = 1;
nodes = (
"572 563 OFFCURVE",
"591 597 OFFCURVE",
"591 631 CURVE SMOOTH",
"591 660 OFFCURVE",
"578 687 OFFCURVE",
"534 695 CURVE SMOOTH",
"485 703 OFFCURVE",
"417 707 OFFCURVE",
"352 707 CURVE SMOOTH",
"301 707 OFFCURVE",
"192 706 OFFCURVE",
"119 701 CURVE SMOOTH",
"72 698 OFFCURVE",
"60 673 OFFCURVE",
"60 638 CURVE SMOOTH",
"60 597 OFFCURVE",
"76 575 OFFCURVE",
"126 575 CURVE SMOOTH",
"169 575 OFFCURVE",
"264 579 OFFCURVE",
"350 579 CURVE SMOOTH",
"409 579 OFFCURVE",
"489 573 OFFCURVE",
"531 568 CURVE SMOOTH"
);
}
);
width = 621;
}
);
note = F;
unicode = 0046;
},
{
glyphname = G;
lastChange = "2018-02-24 16:25:18 +0000";
layers = (
{
anchors = (
{
name = bottom;
position = "{365, 0}";
},
{
name = top;
position = "{365, 700}";
}
);
layerId = "0B1DFD06-3317-40CA-B510-4969A0718C16";
paths = (
{
closed = 1;
nodes = (
"560 3 OFFCURVE",
"629 115 OFFCURVE",
"629 317 CURVE",
"619 305 LINE",
"676 304 LINE SMOOTH",
"684 304 OFFCURVE",
"690 309 OFFCURVE",
"690 319 CURVE SMOOTH",
"690 329 OFFCURVE",
"685 334 OFFCURVE",
"676 334 CURVE SMOOTH",
"431 339 LINE SMOOTH",
"424 339 OFFCURVE",
"414 335 OFFCURVE",
"414 324 CURVE SMOOTH",
"414 313 OFFCURVE",
"419 308 OFFCURVE",
"431 308 CURVE SMOOTH",
"611 305 LINE",
"598 317 LINE",
"598 135 OFFCURVE",
"542 34 OFFCURVE",
"375 34 CURVE SMOOTH",
"195 34 OFFCURVE",
"81 176 OFFCURVE",
"81 344 CURVE SMOOTH",
"81 505 OFFCURVE",
"190 657 OFFCURVE",
"379 657 CURVE SMOOTH",
"466 657 OFFCURVE",
"526 618 OFFCURVE",
"583 561 CURVE SMOOTH",
"593 551 OFFCURVE",
"597 548 OFFCURVE",
"608 548 CURVE SMOOTH",
"618 548 OFFCURVE",
"624 554 OFFCURVE",
"628 563 CURVE SMOOTH",
"635 578 OFFCURVE",
"637 619 OFFCURVE",
"637 644 CURVE SMOOTH",
"637 651 OFFCURVE",
"631 655 OFFCURVE",
"621 655 CURVE SMOOTH",
"611 655 OFFCURVE",
"608 649 OFFCURVE",
"608 635 CURVE SMOOTH",
"608 613 OFFCURVE",
"607 599 OFFCURVE",
"602 574 CURVE",
"615 574 LINE",
"566 632 OFFCURVE",
"486 688 OFFCURVE",
"379 688 CURVE SMOOTH",
"173 688 OFFCURVE",
"50 528 OFFCURVE",
"50 348 CURVE SMOOTH",
"50 169 OFFCURVE",
"171 3 OFFCURVE",
"375 3 CURVE SMOOTH"
);
}
);
width = 729;
},
{
anchors = (
{
name = bottom;
position = "{374, 0}";
},
{
name = top;
position = "{375, 700}";
}
);
layerId = "2F8C22CF-EC86-44F4-AF1A-A6C7F26A0C3C";
paths = (
{
closed = 1;
nodes = (
"556 -1 OFFCURVE",
"663 114 OFFCURVE",
"663 310 CURVE",
"607 259 LINE",
"644 258 LINE SMOOTH",
"689 257 OFFCURVE",
"715 285 OFFCURVE",
"715 324 CURVE SMOOTH",
"715 363 OFFCURVE",
"690 386 OFFCURVE",
"638 387 CURVE SMOOTH",
"410 392 LINE SMOOTH",
"365 393 OFFCURVE",
"339 364 OFFCURVE",
"339 327 CURVE SMOOTH",
"339 288 OFFCURVE",
"358 262 OFFCURVE",
"407 261 CURVE SMOOTH",
"550 258 LINE",
"498 310 LINE",
"498 185 OFFCURVE",
"457 129 OFFCURVE",
"374 129 CURVE SMOOTH",
"267 129 OFFCURVE",
"190 219 OFFCURVE",
"190 344 CURVE SMOOTH",
"190 477 OFFCURVE",
"264 561 OFFCURVE",
"384 561 CURVE SMOOTH",
"463 561 OFFCURVE",
"494 532 OFFCURVE",
"522 507 CURVE SMOOTH",
"553 480 OFFCURVE",
"569 471 OFFCURVE",
"594 471 CURVE SMOOTH",
"624 471 OFFCURVE",
"640 480 OFFCURVE",
"652 503 CURVE SMOOTH",
"665 528 OFFCURVE",
"668 563 OFFCURVE",
"666 616 CURVE SMOOTH",
"665 643 OFFCURVE",
"637 668 OFFCURVE",
"593 668 CURVE SMOOTH",
"548 668 OFFCURVE",
"524 644 OFFCURVE",
"524 607 CURVE SMOOTH",
"524 593 OFFCURVE",
"524 581 OFFCURVE",
"524 570 CURVE",
"571 570 LINE",
"571 607 OFFCURVE",
"496 692 OFFCURVE",
"371 692 CURVE SMOOTH",
"168 692 OFFCURVE",
"25 546 OFFCURVE",
"25 348 CURVE SMOOTH",
"25 149 OFFCURVE",
"174 -1 OFFCURVE",
"374 -1 CURVE SMOOTH"
);
}
);
width = 729;
}
);
note = G;
unicode = 0047;
},
{
glyphname = H;
lastChange = "2018-02-24 16:26:51 +0000";
layers = (
{
anchors = (
{
name = bottom;
position = "{333, 0}";
},
{
name = center;
position = "{333, 350}";
},
{
name = top;
position = "{333, 700}";
},
{
name = topleft;
position = "{20, 700}";
}
);
layerId = "0B1DFD06-3317-40CA-B510-4969A0718C16";
paths = (
{
closed = 1;
nodes = (
"120 -5 OFFCURVE",
"124 -1 OFFCURVE",
"125 6 CURVE SMOOTH",
"181 702 LINE SMOOTH",
"182 713 OFFCURVE",
"178 721 OFFCURVE",
"167 721 CURVE SMOOTH",
"158 721 OFFCURVE",
"151 716 OFFCURVE",
"150 704 CURVE SMOOTH",
"94 10 LINE SMOOTH",
"93 1 OFFCURVE",
"98 -5 OFFCURVE",
"109 -5 CURVE SMOOTH"
);
},
{
closed = 1;
nodes = (
"615 297 OFFCURVE",
"621 302 OFFCURVE",
"621 313 CURVE SMOOTH",
"621 324 OFFCURVE",
"615 329 OFFCURVE",
"603 329 CURVE SMOOTH",
"72 337 LINE SMOOTH",
"65 337 OFFCURVE",
"57 332 OFFCURVE",
"57 323 CURVE SMOOTH",
"57 313 OFFCURVE",
"61 307 OFFCURVE",
"71 307 CURVE SMOOTH",
"604 297 LINE"
);
},
{
closed = 1;
nodes = (
"564 0 OFFCURVE",
"568 6 OFFCURVE",
"568 17 CURVE SMOOTH",
"548 705 LINE SMOOTH",
"548 714 OFFCURVE",
"543 721 OFFCURVE",
"532 721 CURVE SMOOTH",
"522 721 OFFCURVE",
"517 715 OFFCURVE",
"517 703 CURVE SMOOTH",
"537 16 LINE SMOOTH",
"537 5 OFFCURVE",
"542 0 OFFCURVE",
"554 0 CURVE"
);
}
);
width = 665;
},
{
anchors = (
{
name = bottom;
position = "{385, 0}";
},
{
name = center;
position = "{385, 351}";
},
{
name = top;
position = "{405, 700}";
},
{
name = topleft;
position = "{98, 653}";
}
);
layerId = "2F8C22CF-EC86-44F4-AF1A-A6C7F26A0C3C";
paths = (
{
closed = 1;
nodes = (
"219 -7 OFFCURVE",
"254 9 OFFCURVE",
"257 45 CURVE SMOOTH",
"305 651 LINE SMOOTH",
"308 693 OFFCURVE",
"274 723 OFFCURVE",
"226 723 CURVE SMOOTH",
"181 723 OFFCURVE",
"144 698 OFFCURVE",
"141 662 CURVE SMOOTH",
"93 55 LINE SMOOTH",
"90 13 OFFCURVE",
"126 -7 OFFCURVE",
"175 -7 CURVE SMOOTH"
);
},
{
closed = 1;
nodes = (
"688 254 OFFCURVE",
"725 270 OFFCURVE",
"725 319 CURVE SMOOTH",
"725 368 OFFCURVE",
"688 384 OFFCURVE",
"641 385 CURVE SMOOTH",
"145 392 LINE SMOOTH",
"100 393 OFFCURVE",
"60 371 OFFCURVE",
"60 328 CURVE SMOOTH",
"60 286 OFFCURVE",
"98 263 OFFCURVE",
"141 262 CURVE SMOOTH",
"640 254 LINE"
);
},
{
closed = 1;
nodes = (
"645 -2 OFFCURVE",
"680 25 OFFCURVE",
"679 67 CURVE SMOOTH",
"662 659 LINE SMOOTH",
"661 694 OFFCURVE",
"626 723 OFFCURVE",
"580 723 CURVE SMOOTH",
"533 723 OFFCURVE",
"496 694 OFFCURVE",
"497 655 CURVE SMOOTH",
"515 63 LINE SMOOTH",
"516 23 OFFCURVE",
"555 -2 OFFCURVE",
"599 -2 CURVE SMOOTH"
);
}
);
width = 785;
}
);
note = H;
unicode = 0048;
},
{
glyphname = I;
lastChange = "2018-02-24 16:32:04 +0000";
layers = (
{
anchors = (
{
name = bottom;
position = "{194, 0}";
},
{
name = ogonek;
position = "{342, 15}";
},
{
name = top;
position = "{194, 700}";
},
{
name = topleft;
position = "{20, 700}";
}
);
layerId = "0B1DFD06-3317-40CA-B510-4969A0718C16";
paths = (
{
closed = 1;
nodes = (
"229 267 OFFCURVE",
"233 431 OFFCURVE",
"233 681 CURVE",
"202 681 LINE",
"202 431 OFFCURVE",
"196 268 OFFCURVE",
"181 30 CURVE",
"212 29 LINE"
);
},
{
closed = 1;
nodes = (
"360 5 OFFCURVE",
"364 11 OFFCURVE",
"364 22 CURVE SMOOTH",
"364 31 OFFCURVE",
"360 37 OFFCURVE",
"349 37 CURVE SMOOTH",
"46 41 LINE SMOOTH",
"38 41 OFFCURVE",
"31 37 OFFCURVE",
"31 26 CURVE SMOOTH",
"31 16 OFFCURVE",
"37 10 OFFCURVE",
"44 10 CURVE SMOOTH",
"349 5 LINE SMOOTH"
);
},
{
closed = 1;
nodes = (
"100 672 OFFCURVE",
"182 677 OFFCURVE",
"212 677 CURVE SMOOTH",
"256 677 OFFCURVE",
"301 677 OFFCURVE",
"347 672 CURVE SMOOTH",
"356 671 OFFCURVE",
"364 675 OFFCURVE",
"364 687 CURVE SMOOTH",
"364 698 OFFCURVE",
"358 701 OFFCURVE",
"350 702 CURVE SMOOTH",
"304 708 OFFCURVE",
"266 708 OFFCURVE",
"212 708 CURVE SMOOTH",
"160 708 OFFCURVE",
"83 703 OFFCURVE",
"42 698 CURVE SMOOTH",
"33 697 OFFCURVE",
"26 692 OFFCURVE",
"26 682 CURVE SMOOTH",
"26 673 OFFCURVE",
"31 667 OFFCURVE",
"42 667 CURVE SMOOTH"
);
}
);
width = 390;
},
{
anchors = (
{
name = bottom;
position = "{254, 0}";
},
{
name = ogonek;
position = "{404, 53}";
},
{
name = top;
position = "{275, 700}";
},
{
name = topleft;
position = "{104, 653}";
}
);
layerId = "2F8C22CF-EC86-44F4-AF1A-A6C7F26A0C3C";
paths = (
{
closed = 1;
nodes = (
"353 249 OFFCURVE",
"357 445 OFFCURVE",
"357 636 CURVE",
"192 636 LINE",
"192 445 OFFCURVE",
"186 253 OFFCURVE",
"174 78 CURVE",
"338 69 LINE"
);
},
{
closed = 1;
nodes = (
"452 2 OFFCURVE",
"470 29 OFFCURVE",
"470 68 CURVE SMOOTH",
"470 105 OFFCURVE",
"455 132 OFFCURVE",
"406 133 CURVE SMOOTH",
"105 137 LINE SMOOTH",
"76 137 OFFCURVE",
"45 118 OFFCURVE",
"45 72 CURVE SMOOTH",
"45 37 OFFCURVE",
"60 7 OFFCURVE",
"105 6 CURVE SMOOTH",
"405 2 LINE"
);
},
{
closed = 1;
nodes = (
"109 571 OFFCURVE",
"193 580 OFFCURVE",
"253 580 CURVE SMOOTH",
"321 580 OFFCURVE",
"389 579 OFFCURVE",
"407 577 CURVE SMOOTH",
"448 573 OFFCURVE",
"470 602 OFFCURVE",
"470 641 CURVE SMOOTH",
"470 676 OFFCURVE",
"452 702 OFFCURVE",
"413 705 CURVE SMOOTH",
"373 708 OFFCURVE",
"330 712 OFFCURVE",
"265 711 CURVE SMOOTH",
"193 710 OFFCURVE",
"130 706 OFFCURVE",
"97 702 CURVE SMOOTH",
"61 698 OFFCURVE",
"40 677 OFFCURVE",
"40 637 CURVE SMOOTH",
"40 596 OFFCURVE",
"61 571 OFFCURVE",
"92 571 CURVE SMOOTH"
);
}
);
width = 510;
}
);
note = I;
unicode = 0049;
},
{
color = 1;
glyphname = J;
lastChange = "2018-02-26 11:51:52 +0000";
layers = (
{
anchors = (
{
name = bottom;
position = "{245, 0}";
},
{
name = top;
position = "{245, 700}";
}
);
layerId = "0B1DFD06-3317-40CA-B510-4969A0718C16";
paths = (
{
closed = 1;
nodes = (
"331 2 OFFCURVE",
"417 83 OFFCURVE",
"417 259 CURVE SMOOTH",
"417 373 OFFCURVE",
"414 530 OFFCURVE",
"423 681 CURVE",
"393 681 LINE",
"384 532 OFFCURVE",
"386 373 OFFCURVE",
"386 258 CURVE SMOOTH",
"386 90 OFFCURVE",
"308 33 OFFCURVE",
"216 33 CURVE SMOOTH",
"146 33 OFFCURVE",
"56 51 OFFCURVE",
"56 251 CURVE SMOOTH",
"56 264 OFFCURVE",
"52 271 OFFCURVE",
"41 271 CURVE SMOOTH",
"29 271 OFFCURVE",
"25 264 OFFCURVE",
"25 251 CURVE SMOOTH",
"25 42 OFFCURVE",
"131 2 OFFCURVE",
"218 2 CURVE SMOOTH"
);
},
{
closed = 1;
nodes = (
"352 671 OFFCURVE",
"448 671 OFFCURVE",
"500 668 CURVE SMOOTH",
"507 668 OFFCURVE",
"512 674 OFFCURVE",
"512 683 CURVE SMOOTH",
"512 692 OFFCURVE",
"508 697 OFFCURVE",
"500 698 CURVE SMOOTH",
"481 700 OFFCURVE",
"440 699 OFFCURVE",
"401 699 CURVE SMOOTH",
"366 699 OFFCURVE",
"323 698 OFFCURVE",
"296 695 CURVE SMOOTH",
"288 694 OFFCURVE",
"283 688 OFFCURVE",
"283 679 CURVE SMOOTH",
"283 670 OFFCURVE",
"288 664 OFFCURVE",
"297 665 CURVE SMOOTH"
);
}
);
width = 489;
},
{
anchors = (
{
name = bottom;
position = "{259, 0}";
},
{
name = top;
position = "{415, 700}";
}
);
layerId = "2F8C22CF-EC86-44F4-AF1A-A6C7F26A0C3C";
paths = (
{
closed = 1;
nodes = (
"404 -2 OFFCURVE",
"496 103 OFFCURVE",
"496 272 CURVE SMOOTH",
"496 397 OFFCURVE",
"489 488 OFFCURVE",
"498 640 CURVE",
"338 639 LINE",
"330 488 OFFCURVE",
"332 397 OFFCURVE",
"332 271 CURVE SMOOTH",
"332 172 OFFCURVE",
"303 129 OFFCURVE",
"254 129 CURVE SMOOTH",
"207 129 OFFCURVE",
"186 172 OFFCURVE",
"184 266 CURVE SMOOTH",
"184 306 OFFCURVE",
"149 334 OFFCURVE",
"102 334 CURVE SMOOTH",
"51 334 OFFCURVE",
"20 307 OFFCURVE",
"20 259 CURVE SMOOTH",
"20 97 OFFCURVE",
"109 -2 OFFCURVE",
"256 -2 CURVE SMOOTH"
);
},
{
closed = 1;
nodes = (
"321 576 OFFCURVE",
"475 576 OFFCURVE",
"518 576 CURVE SMOOTH",
"561 576 OFFCURVE",
"579 605 OFFCURVE",
"579 639 CURVE SMOOTH",
"579 672 OFFCURVE",
"566 699 OFFCURVE",
"517 702 CURVE SMOOTH",
"497 703 OFFCURVE",
"442 704 OFFCURVE",
"414 704 CURVE SMOOTH",
"369 704 OFFCURVE",
"335 703 OFFCURVE",
"287 701 CURVE SMOOTH",
"261 700 OFFCURVE",
"241 678 OFFCURVE",
"241 639 CURVE SMOOTH",
"241 595 OFFCURVE",
"260 576 OFFCURVE",
"305 576 CURVE SMOOTH"
);
}
);
width = 637;
}
);
note = J;
unicode = 004A;
},
{
glyphname = K;
lastChange = "2018-02-26 11:54:30 +0000";
layers = (
{
anchors = (
{
name = bottom;
position = "{293, 0}";
},
{
name = top;
position = "{293, 700}";
}
);
layerId = "0B1DFD06-3317-40CA-B510-4969A0718C16";
paths = (
{
closed = 1;
nodes = (
"111 2 OFFCURVE",
"119 6 OFFCURVE",
"119 23 CURVE SMOOTH",
"122 207 OFFCURVE",
"122 259 OFFCURVE",
"123 360 CURVE",
"113 360 LINE",
"187 279 OFFCURVE",
"227 240 OFFCURVE",
"305 176 CURVE SMOOTH",
"386 110 OFFCURVE",
"447 61 OFFCURVE",
"533 4 CURVE SMOOTH",
"540 -1 OFFCURVE",
"549 4 OFFCURVE",
"552 10 CURVE SMOOTH",
"556 17 OFFCURVE",
"552 29 OFFCURVE",
"547 32 CURVE SMOOTH",
"467 83 OFFCURVE",
"412 123 OFFCURVE",
"324 198 CURVE SMOOTH",
"235 273 OFFCURVE",
"207 306 OFFCURVE",
"144 369 CURVE",
"207 411 OFFCURVE",
"271 449 OFFCURVE",
"349 502 CURVE SMOOTH",
"439 563 OFFCURVE",
"531 629 OFFCURVE",
"569 658 CURVE SMOOTH",
"577 664 OFFCURVE",
"579 674 OFFCURVE",
"573 682 CURVE SMOOTH",
"566 690 OFFCURVE",
"558 690 OFFCURVE",
"552 685 CURVE SMOOTH",
"509 649 OFFCURVE",
"424 588 OFFCURVE",
"326 523 CURVE SMOOTH",
"259 479 OFFCURVE",
"188 433 OFFCURVE",
"113 389 CURVE",
"124 389 LINE",
"121 553 OFFCURVE",
"122 484 OFFCURVE",
"122 680 CURVE SMOOTH",
"122 690 OFFCURVE",
"116 697 OFFCURVE",
"107 697 CURVE SMOOTH",
"98 697 OFFCURVE",
"90 692 OFFCURVE",
"90 683 CURVE SMOOTH",
"90 553 OFFCURVE",
"91 487 OFFCURVE",
"91 374 CURVE SMOOTH",
"91 257 OFFCURVE",
"89 208 OFFCURVE",
"87 27 CURVE SMOOTH",
"87 8 OFFCURVE",
"92 2 OFFCURVE",
"102 2 CURVE SMOOTH"
);
}
);
width = 585;
},
{
anchors = (
{
name = bottom;
position = "{306, 0}";
},
{
name = top;
position = "{335, 700}";
}
);
layerId = "2F8C22CF-EC86-44F4-AF1A-A6C7F26A0C3C";
paths = (
{
closed = 1;
nodes = (
"186 -2 OFFCURVE",
"224 21 OFFCURVE",
"224 59 CURVE SMOOTH",
"224 141 OFFCURVE",
"226 183 OFFCURVE",
"227 290 CURVE",
"158 290 LINE",
"214 240 OFFCURVE",
"270 191 OFFCURVE",
"326 141 CURVE SMOOTH",
"375 97 OFFCURVE",
"424 54 OFFCURVE",
"473 10 CURVE SMOOTH",
"505 -13 OFFCURVE",
"554 -6 OFFCURVE",
"574 21 CURVE SMOOTH",
"595 49 OFFCURVE",
"602 87 OFFCURVE",
"563 119 CURVE SMOOTH",
"492 176 OFFCURVE",
"457 208 OFFCURVE",
"405 251 CURVE SMOOTH",
"360 288 OFFCURVE",
"315 326 OFFCURVE",
"257 371 CURVE",
"263 375 OFFCURVE",
"338 423 OFFCURVE",
"415 472 CURVE SMOOTH",
"501 528 OFFCURVE",
"537 551 OFFCURVE",
"586 586 CURVE SMOOTH",
"614 606 OFFCURVE",
"616 653 OFFCURVE",
"591 680 CURVE SMOOTH",
"567 706 OFFCURVE",
"518 709 OFFCURVE",
"489 688 CURVE SMOOTH",
"436 649 OFFCURVE",
"382 611 OFFCURVE",
"329 572 CURVE SMOOTH",
"272 530 OFFCURVE",
"215 489 OFFCURVE",
"158 447 CURVE",
"228 447 LINE",
"227 527 OFFCURVE",
"227 566 OFFCURVE",
"227 634 CURVE SMOOTH",
"227 673 OFFCURVE",
"191 701 OFFCURVE",
"146 701 CURVE SMOOTH",
"101 701 OFFCURVE",
"62 673 OFFCURVE",
"62 637 CURVE SMOOTH",
"63 533 OFFCURVE",
"65 470 OFFCURVE",
"65 353 CURVE SMOOTH",
"65 253 OFFCURVE",
"60 190 OFFCURVE",
"60 71 CURVE SMOOTH",
"60 26 OFFCURVE",
"93 -2 OFFCURVE",
"142 -2 CURVE SMOOTH"
);
}
);
width = 640;
}
);
note = K;
unicode = 004B;
},
{
glyphname = L;
lastChange = "2018-02-26 11:57:16 +0000";
layers = (
{
anchors = (
{
name = bottom;
position = "{252, 0}";
},
{
name = center;
position = "{277, 335}";
},
{
name = top;
position = "{126, 735}";
},
{
name = topright;
position = "{99, 549}";
}
);
layerId = "0B1DFD06-3317-40CA-B510-4969A0718C16";
paths = (
{
closed = 1;
nodes = (
"316 0 OFFCURVE",
"361 6 OFFCURVE",
"452 23 CURVE SMOOTH",
"463 25 OFFCURVE",
"469 31 OFFCURVE",
"469 43 CURVE SMOOTH",
"469 56 OFFCURVE",
"458 59 OFFCURVE",
"447 57 CURVE SMOOTH",
"341 35 OFFCURVE",
"287 29 OFFCURVE",
"205 29 CURVE SMOOTH",
"108 29 OFFCURVE",
"92 82 OFFCURVE",
"92 181 CURVE SMOOTH",
"92 354 OFFCURVE",
"101 442 OFFCURVE",
"138 682 CURVE SMOOTH",
"140 696 OFFCURVE",
"135 702 OFFCURVE",
"124 702 CURVE SMOOTH",
"114 702 OFFCURVE",
"109 695 OFFCURVE",
"107 685 CURVE SMOOTH",
"75 482 OFFCURVE",
"61 358 OFFCURVE",
"61 181 CURVE SMOOTH",
"61 42 OFFCURVE",
"89 0 OFFCURVE",
"230 0 CURVE SMOOTH"
);
}
);
width = 503;
},
{
anchors = (
{
name = bottom;
position = "{294, 0}";
},
{
name = center;
position = "{373, 350}";
},
{
name = top;
position = "{265, 700}";
},
{
name = topright;
position = "{219, 587}";
}
);
layerId = "2F8C22CF-EC86-44F4-AF1A-A6C7F26A0C3C";
paths = (
{
closed = 1;
nodes = (
"360 -3 OFFCURVE",
"402 6 OFFCURVE",
"473 19 CURVE SMOOTH",
"522 28 OFFCURVE",
"550 49 OFFCURVE",
"550 85 CURVE SMOOTH",
"550 123 OFFCURVE",
"525 159 OFFCURVE",
"479 150 CURVE SMOOTH",
"443 143 OFFCURVE",
"366 128 OFFCURVE",
"274 122 CURVE SMOOTH",
"225 119 OFFCURVE",
"219 161 OFFCURVE",
"219 211 CURVE SMOOTH",
"219 373 OFFCURVE",
"239 505 OFFCURVE",
"262 626 CURVE SMOOTH",
"272 673 OFFCURVE",
"237 705 OFFCURVE",
"183 705 CURVE SMOOTH",
"143 705 OFFCURVE",
"104 683 OFFCURVE",
"99 652 CURVE SMOOTH",
"75 504 OFFCURVE",
"60 418 OFFCURVE",
"60 204 CURVE SMOOTH",
"60 41 OFFCURVE",
"108 -3 OFFCURVE",
"275 -3 CURVE SMOOTH"
);
}
);
width = 543;
}
);
note = L;
unicode = 004C;
},
{
glyphname = M;
lastChange = "2018-02-26 12:09:04 +0000";
layers = (
{
anchors = (
{
name = bottom;
position = "{407, 0}";
},
{
name = top;
position = "{407, 700}";
}
);
layerId = "0B1DFD06-3317-40CA-B510-4969A0718C16";
paths = (
{
closed = 1;
nodes = (
"701 -5 OFFCURVE",
"709 -2 OFFCURVE",
"709 13 CURVE SMOOTH",
"709 111 OFFCURVE",
"707 228 OFFCURVE",
"707 311 CURVE SMOOTH",
"707 572 OFFCURVE",
"675 711 OFFCURVE",
"618 711 CURVE SMOOTH",
"555 711 OFFCURVE",
"424 542 OFFCURVE",
"396 302 CURVE",
"405 302 LINE",
"366 541 OFFCURVE",
"264 711 OFFCURVE",
"193 711 CURVE SMOOTH",
"133 711 OFFCURVE",
"96 590 OFFCURVE",
"96 322 CURVE SMOOTH",
"96 231 OFFCURVE",
"94 119 OFFCURVE",
"94 13 CURVE SMOOTH",
"94 3 OFFCURVE",
"106 0 OFFCURVE",
"110 0 CURVE SMOOTH",
"119 0 OFFCURVE",
"126 4 OFFCURVE",
"126 14 CURVE SMOOTH",
"126 118 OFFCURVE",
"127 231 OFFCURVE",
"127 323 CURVE SMOOTH",
"127 501 OFFCURVE",
"151 682 OFFCURVE",
"195 682 CURVE SMOOTH",
"229 682 OFFCURVE",
"283 595 OFFCURVE",
"313 524 CURVE SMOOTH",
"343 453 OFFCURVE",
"362 355 OFFCURVE",
"383 282 CURVE SMOOTH",
"386 272 OFFCURVE",
"391 268 OFFCURVE",
"400 268 CURVE SMOOTH",
"411 268 OFFCURVE",
"416 270 OFFCURVE",
"418 282 CURVE SMOOTH",
"432 355 OFFCURVE",
"455 460 OFFCURVE",
"494 535 CURVE SMOOTH",
"522 589 OFFCURVE",
"582 679 OFFCURVE",
"618 679 CURVE SMOOTH",
"649 679 OFFCURVE",
"676 534 OFFCURVE",
"676 311 CURVE SMOOTH",
"676 229 OFFCURVE",
"677 109 OFFCURVE",
"678 12 CURVE SMOOTH",
"678 3 OFFCURVE",
"683 -5 OFFCURVE",
"694 -5 CURVE SMOOTH"
);
}
);
width = 813;
},
{
anchors = (
{
name = bottom;
position = "{399, 0}";
},
{
name = top;
position = "{405, 700}";
}
);
layerId = "2F8C22CF-EC86-44F4-AF1A-A6C7F26A0C3C";
paths = (
{
closed = 1;
nodes = (
"693 -7 OFFCURVE",
"729 20 OFFCURVE",
"729 60 CURVE SMOOTH",
"729 154 OFFCURVE",
"725 241 OFFCURVE",
"725 335 CURVE SMOOTH",
"725 608 OFFCURVE",
"682 713 OFFCURVE",
"591 713 CURVE SMOOTH",
"434 713 OFFCURVE",
"398 408 OFFCURVE",
"375 357 CURVE",
"410 357 LINE",
"385 408 OFFCURVE",
"362 713 OFFCURVE",
"202 713 CURVE SMOOTH",
"108 713 OFFCURVE",
"63 607 OFFCURVE",
"63 336 CURVE SMOOTH",
"63 251 OFFCURVE",
"60 164 OFFCURVE",
"60 56 CURVE SMOOTH",
"60 23 OFFCURVE",
"100 -3 OFFCURVE",
"144 -3 CURVE SMOOTH",
"187 -3 OFFCURVE",
"216 22 OFFCURVE",
"216 57 CURVE SMOOTH",
"216 162 OFFCURVE",
"213 246 OFFCURVE",
"216 333 CURVE SMOOTH",
"219 418 OFFCURVE",
"218 536 OFFCURVE",
"222 536 CURVE SMOOTH",
"226 536 OFFCURVE",
"260 452 OFFCURVE",
"273 415 CURVE SMOOTH",
"288 371 OFFCURVE",
"300 322 OFFCURVE",
"314 277 CURVE SMOOTH",
"323 248 OFFCURVE",
"348 228 OFFCURVE",
"393 228 CURVE SMOOTH",
"431 228 OFFCURVE",
"466 240 OFFCURVE",
"475 281 CURVE SMOOTH",
"486 331 OFFCURVE",
"499 371 OFFCURVE",
"510 411 CURVE SMOOTH",
"518 441 OFFCURVE",
"552 536 OFFCURVE",
"559 536 CURVE SMOOTH",
"565 536 OFFCURVE",
"564 470 OFFCURVE",
"564 329 CURVE SMOOTH",
"564 240 OFFCURVE",
"563 154 OFFCURVE",
"564 59 CURVE SMOOTH",
"564 20 OFFCURVE",
"601 -7 OFFCURVE",
"647 -7 CURVE SMOOTH"
);
}
);
width = 789;
}
);
note = M;
unicode = 004D;
},
{
glyphname = N;
lastChange = "2018-02-26 12:20:03 +0000";
layers = (
{
anchors = (
{
name = bottom;
position = "{373, 0}";
},
{
name = top;
position = "{373, 700}";
}
);
layerId = "0B1DFD06-3317-40CA-B510-4969A0718C16";
paths = (
{
closed = 1;
nodes = (
"121 12 OFFCURVE",
"128 18 OFFCURVE",
"128 23 CURVE SMOOTH",
"128 152 OFFCURVE",
"127 187 OFFCURVE",
"127 359 CURVE SMOOTH",
"127 471 OFFCURVE",
"124 525 OFFCURVE",
"125 675 CURVE",
"115 675 LINE",
"147 644 OFFCURVE",
"235 517 OFFCURVE",
"337 351 CURVE SMOOTH",
"439 185 OFFCURVE",
"550 14 OFFCURVE",
"596 14 CURVE SMOOTH",
"623 14 OFFCURVE",
"643 42 OFFCURVE",
"643 264 CURVE SMOOTH",
"643 415 OFFCURVE",
"644 528 OFFCURVE",
"644 691 CURVE SMOOTH",
"644 703 OFFCURVE",
"638 711 OFFCURVE",
"626 711 CURVE SMOOTH",
"616 711 OFFCURVE",
"610 705 OFFCURVE",
"610 694 CURVE SMOOTH",
"610 526 OFFCURVE",
"611 386 OFFCURVE",
"611 269 CURVE SMOOTH",
"611 84 OFFCURVE",
"596 52 OFFCURVE",
"590 42 CURVE",
"596 42 LINE",
"580 57 OFFCURVE",
"475 185 OFFCURVE",
"358 377 CURVE SMOOTH",
"278 508 OFFCURVE",
"161 704 OFFCURVE",
"120 704 CURVE SMOOTH",
"98 704 OFFCURVE",
"94 686 OFFCURVE",
"94 662 CURVE SMOOTH",
"94 522 OFFCURVE",
"96 470 OFFCURVE",
"96 356 CURVE SMOOTH",
"96 181 OFFCURVE",
"96 146 OFFCURVE",
"96 23 CURVE SMOOTH",
"96 16 OFFCURVE",
"105 12 OFFCURVE",
"112 12 CURVE SMOOTH"
);
}
);
width = 745;
},
{
anchors = (
{
name = bottom;
position = "{370, 0}";
},
{
name = top;
position = "{385, 700}";
}
);
layerId = "2F8C22CF-EC86-44F4-AF1A-A6C7F26A0C3C";
paths = (
{
closed = 1;
nodes = (
"188 8 OFFCURVE",
"230 36 OFFCURVE",
"230 70 CURVE SMOOTH",
"230 189 OFFCURVE",
"229 250 OFFCURVE",
"229 325 CURVE SMOOTH",
"229 383 OFFCURVE",
"228 466 OFFCURVE",
"228 517 CURVE",
"172 517 LINE",
"187 495 OFFCURVE",
"270 342 OFFCURVE",
"314 272 CURVE SMOOTH",
"398 139 OFFCURVE",
"483 10 OFFCURVE",
"560 10 CURVE SMOOTH",
"643 10 OFFCURVE",
"677 68 OFFCURVE",
"677 344 CURVE SMOOTH",
"677 437 OFFCURVE",
"679 530 OFFCURVE",
"679 646 CURVE SMOOTH",
"679 687 OFFCURVE",
"645 715 OFFCURVE",
"597 715 CURVE SMOOTH",
"551 715 OFFCURVE",
"514 687 OFFCURVE",
"514 648 CURVE SMOOTH",
"514 531 OFFCURVE",
"513 454 OFFCURVE",
"513 370 CURVE SMOOTH",
"513 275 OFFCURVE",
"513 201 OFFCURVE",
"513 157 CURVE",
"566 157 LINE",
"510 233 OFFCURVE",
"453 340 OFFCURVE",
"391 435 CURVE SMOOTH",
"292 586 OFFCURVE",
"232 708 OFFCURVE",
"152 708 CURVE SMOOTH",
"75 708 OFFCURVE",
"60 667 OFFCURVE",
"60 526 CURVE SMOOTH",
"60 456 OFFCURVE",
"62 409 OFFCURVE",
"62 331 CURVE SMOOTH",
"62 233 OFFCURVE",
"62 178 OFFCURVE",
"62 70 CURVE SMOOTH",
"62 35 OFFCURVE",
"102 8 OFFCURVE",
"145 8 CURVE SMOOTH"
);
}
);
width = 739;
}
);
note = N;
unicode = 004E;
},
{
glyphname = O;
lastChange = "2018-02-26 12:21:06 +0000";
layers = (
{
anchors = (
{
name = bottom;
position = "{390, 0}";
},
{
name = center;
position = "{390, 350}";
},
{
name = ogonek;
position = "{397, 18}";
},
{
name = top;
position = "{390, 700}";
},
{
name = topleft;
position = "{107, 518}";
},
{
name = topright;
position = "{671, 518}";
}
);
layerId = "0B1DFD06-3317-40CA-B510-4969A0718C16";
paths = (
{
closed = 1;
nodes = (
"544 10 OFFCURVE",
"722 104 OFFCURVE",
"722 331 CURVE SMOOTH",
"722 559 OFFCURVE",
"568 705 OFFCURVE",
"377 705 CURVE SMOOTH",
"181 705 OFFCURVE",
"56 552 OFFCURVE",
"56 341 CURVE SMOOTH",
"56 96 OFFCURVE",
"224 10 OFFCURVE",
"380 10 CURVE SMOOTH"
);
},
{
closed = 1;
nodes = (
"266 41 OFFCURVE",
"87 104 OFFCURVE",
"87 343 CURVE SMOOTH",
"87 545 OFFCURVE",
"209 674 OFFCURVE",
"382 674 CURVE SMOOTH",
"555 674 OFFCURVE",
"691 534 OFFCURVE",
"691 335 CURVE SMOOTH",
"691 120 OFFCURVE",
"516 41 OFFCURVE",
"387 41 CURVE SMOOTH"
);
}
);
width = 779;
},
{
anchors = (
{
name = bottom;
position = "{407, 0}";
},
{
name = center;
position = "{407, 351}";
},
{
name = ogonek;
position = "{478, 36}";
},
{
name = top;
position = "{395, 700}";
},
{
name = topleft;
position = "{136, 500}";
},
{
name = topright;
position = "{688, 500}";
}
);
layerId = "2F8C22CF-EC86-44F4-AF1A-A6C7F26A0C3C";
paths = (
{
closed = 1;
nodes = (
"611 6 OFFCURVE",
"762 137 OFFCURVE",
"762 342 CURVE SMOOTH",
"762 549 OFFCURVE",
"607 709 OFFCURVE",
"396 709 CURVE SMOOTH",
"191 709 OFFCURVE",
"50 558 OFFCURVE",
"50 346 CURVE SMOOTH",
"50 136 OFFCURVE",
"188 6 OFFCURVE",
"399 6 CURVE SMOOTH"
);
},
{
closed = 1;
nodes = (
"286 136 OFFCURVE",
"215 212 OFFCURVE",
"215 345 CURVE SMOOTH",
"215 484 OFFCURVE",
"292 579 OFFCURVE",
"400 579 CURVE SMOOTH",
"512 579 OFFCURVE",
"598 475 OFFCURVE",
"598 339 CURVE SMOOTH",
"598 212 OFFCURVE",
"523 136 OFFCURVE",
"404 136 CURVE SMOOTH"
);
}
);
width = 812;
}
);
note = O;
unicode = 004F;
},
{
glyphname = P;
lastChange = "2018-02-21 13:43:21 +0000";
layers = (
{
anchors = (
{
name = bottom;
position = "{288, 0}";
},
{
name = top;
position = "{288, 700}";
}
);
layerId = "0B1DFD06-3317-40CA-B510-4969A0718C16";
paths = (
{
closed = 1;
nodes = (
"111 -6 OFFCURVE",
"120 -1 OFFCURVE",
"120 14 CURVE SMOOTH",
"123 317 LINE",
"168 290 OFFCURVE",
"215 277 OFFCURVE",
"295 277 CURVE SMOOTH",
"433 277 OFFCURVE",
"547 354 OFFCURVE",
"547 484 CURVE SMOOTH",
"547 629 OFFCURVE",
"406 704 OFFCURVE",
"285 704 CURVE SMOOTH",
"185 704 OFFCURVE",
"121 668 OFFCURVE",
"52 631 CURVE SMOOTH",
"45 627 OFFCURVE",
"47 615 OFFCURVE",
"50 611 CURVE SMOOTH",
"53 607 OFFCURVE",
"59 600 OFFCURVE",
"66 604 CURVE SMOOTH",
"123 636 OFFCURVE",
"188 673 OFFCURVE",
"277 673 CURVE SMOOTH",
"402 673 OFFCURVE",
"515 599 OFFCURVE",
"515 488 CURVE SMOOTH",
"515 380 OFFCURVE",
"409 308 OFFCURVE",
"289 308 CURVE SMOOTH",
"223 308 OFFCURVE",
"185 322 OFFCURVE",
"123 345 CURVE",
"122 388 OFFCURVE",
"120 430 OFFCURVE",
"118 504 CURVE SMOOTH",
"116 582 OFFCURVE",
"112 617 OFFCURVE",
"112 689 CURVE SMOOTH",
"112 704 OFFCURVE",
"104 705 OFFCURVE",
"97 705 CURVE SMOOTH",
"85 705 OFFCURVE",
"82 697 OFFCURVE",
"82 689 CURVE SMOOTH",
"85 599 OFFCURVE",
"91 522 OFFCURVE",
"91 354 CURVE SMOOTH",
"91 142 OFFCURVE",
"87 67 OFFCURVE",
"87 15 CURVE SMOOTH",
"87 -1 OFFCURVE",
"93 -6 OFFCURVE",
"105 -6 CURVE SMOOTH"
);
}
);
width = 576;
},
{
anchors = (
{
name = bottom;
position = "{183, 0}";
},
{
name = top;
position = "{335, 700}";
}
);
layerId = "2F8C22CF-EC86-44F4-AF1A-A6C7F26A0C3C";
paths = (
{
closed = 1;
nodes = (
"226 -9 OFFCURVE",
"264 19 OFFCURVE",
"264 57 CURVE SMOOTH",
"266 257 LINE",
"289 250 OFFCURVE",
"322 240 OFFCURVE",
"359 240 CURVE SMOOTH",
"523 240 OFFCURVE",
"633 332 OFFCURVE",
"633 465 CURVE SMOOTH",
"633 602 OFFCURVE",
"501 707 OFFCURVE",
"338 707 CURVE SMOOTH",
"228 707 OFFCURVE",
"160 670 OFFCURVE",
"99 632 CURVE SMOOTH",
"61 609 OFFCURVE",
"49 569 OFFCURVE",
"72 534 CURVE SMOOTH",
"93 507 OFFCURVE",
"135 502 OFFCURVE",
"164 519 CURVE SMOOTH",
"218 549 OFFCURVE",
"275 577 OFFCURVE",
"331 577 CURVE SMOOTH",
"411 577 OFFCURVE",
"467 532 OFFCURVE",
"467 469 CURVE SMOOTH",
"467 408 OFFCURVE",
"418 358 OFFCURVE",
"343 358 CURVE SMOOTH",
"312 358 OFFCURVE",
"285 368 OFFCURVE",
"266 377 CURVE",
"265 416 OFFCURVE",
"264 456 OFFCURVE",
"262 515 CURVE SMOOTH",
"260 572 OFFCURVE",
"258 602 OFFCURVE",
"258 642 CURVE SMOOTH",
"258 681 OFFCURVE",
"223 708 OFFCURVE",
"176 708 CURVE SMOOTH",
"130 708 OFFCURVE",
"94 682 OFFCURVE",
"94 642 CURVE SMOOTH",
"94 592 OFFCURVE",
"102 503 OFFCURVE",
"102 363 CURVE SMOOTH",
"102 183 OFFCURVE",
"101 117 OFFCURVE",
"98 61 CURVE SMOOTH",
"96 19 OFFCURVE",
"134 -9 OFFCURVE",
"183 -9 CURVE SMOOTH"
);
}
);
width = 663;
}
);
note = P;
unicode = 0050;
},
{
glyphname = Q;
lastChange = "2018-02-21 13:44:49 +0000";
layers = (
{
anchors = (
{
name = bottom;
position = "{383, 0}";
},
{
name = top;
position = "{383, 700}";
}
);
layerId = "0B1DFD06-3317-40CA-B510-4969A0718C16";
paths = (
{
closed = 1;
nodes = (
"555 15 OFFCURVE",
"709 153 OFFCURVE",
"709 359 CURVE SMOOTH",
"709 578 OFFCURVE",
"536 709 OFFCURVE",
"378 709 CURVE SMOOTH",
"226 709 OFFCURVE",
"54 588 OFFCURVE",
"54 350 CURVE SMOOTH",
"54 152 OFFCURVE",
"173 15 OFFCURVE",
"364 15 CURVE SMOOTH"
);
},
{
closed = 1;
nodes = (
"194 46 OFFCURVE",
"86 175 OFFCURVE",
"86 348 CURVE SMOOTH",
"86 559 OFFCURVE",
"247 678 OFFCURVE",
"382 678 CURVE SMOOTH",
"526 678 OFFCURVE",
"677 542 OFFCURVE",
"677 354 CURVE SMOOTH",
"677 177 OFFCURVE",
"535 46 OFFCURVE",
"364 46 CURVE SMOOTH"
);
},
{
closed = 1;
nodes = (
"675 26 OFFCURVE",
"680 24 OFFCURVE",
"684 24 CURVE SMOOTH",
"689 24 OFFCURVE",
"694 27 OFFCURVE",
"696 30 CURVE SMOOTH",
"699 34 OFFCURVE",
"700 38 OFFCURVE",
"700 42 CURVE SMOOTH",
"700 46 OFFCURVE",
"698 50 OFFCURVE",
"694 54 CURVE SMOOTH",
"626 123 OFFCURVE",
"581 165 OFFCURVE",
"506 242 CURVE SMOOTH",
"504 244 OFFCURVE",
"501 245 OFFCURVE",
"498 245 CURVE SMOOTH",
"496 245 OFFCURVE",
"491 244 OFFCURVE",
"487 241 CURVE SMOOTH",
"482 238 OFFCURVE",
"479 233 OFFCURVE",
"478 228 CURVE SMOOTH",
"477 224 OFFCURVE",
"480 220 OFFCURVE",
"482 218 CURVE SMOOTH",
"555 145 OFFCURVE",
"602 99 OFFCURVE",
"672 29 CURVE SMOOTH"
);
}
);
width = 766;
},
{
anchors = (
{
name = bottom;
position = "{403, 0}";
},
{
name = top;
position = "{396, 700}";
}
);
layerId = "2F8C22CF-EC86-44F4-AF1A-A6C7F26A0C3C";
paths = (
{
closed = 1;
nodes = (
"595 11 OFFCURVE",
"753 160 OFFCURVE",
"753 359 CURVE SMOOTH",
"753 556 OFFCURVE",
"594 713 OFFCURVE",
"398 713 CURVE SMOOTH",
"201 713 OFFCURVE",
"50 557 OFFCURVE",
"50 352 CURVE SMOOTH",
"50 149 OFFCURVE",
"186 11 OFFCURVE",
"386 11 CURVE SMOOTH"
);
},
{
closed = 1;
nodes = (
"284 141 OFFCURVE",
"216 224 OFFCURVE",
"216 350 CURVE SMOOTH",
"216 478 OFFCURVE",
"302 583 OFFCURVE",
"402 583 CURVE SMOOTH",
"498 583 OFFCURVE",
"587 476 OFFCURVE",
"587 355 CURVE SMOOTH",
"587 234 OFFCURVE",
"500 141 OFFCURVE",
"386 141 CURVE SMOOTH"
);
},
{
closed = 1;
nodes = (
"632 14 OFFCURVE",
"650 8 OFFCURVE",
"667 8 CURVE SMOOTH",
"694 8 OFFCURVE",
"718 25 OFFCURVE",
"730 44 CURVE SMOOTH",
"737 57 OFFCURVE",
"742 71 OFFCURVE",
"742 85 CURVE SMOOTH",
"742 101 OFFCURVE",
"736 118 OFFCURVE",
"720 133 CURVE SMOOTH",
"634 215 OFFCURVE",
"594 253 OFFCURVE",
"533 309 CURVE SMOOTH",
"525 317 OFFCURVE",
"513 321 OFFCURVE",
"501 321 CURVE SMOOTH",
"483 321 OFFCURVE",
"464 313 OFFCURVE",
"451 299 CURVE SMOOTH",
"433 279 OFFCURVE",
"419 260 OFFCURVE",
"419 240 CURVE SMOOTH",
"419 228 OFFCURVE",
"425 215 OFFCURVE",
"439 201 CURVE SMOOTH",
"491 150 OFFCURVE",
"571 71 OFFCURVE",
"615 29 CURVE"
);
}
);
width = 803;
}
);
note = Q;
unicode = 0051;
},
{
glyphname = R;
lastChange = "2018-02-21 13:44:59 +0000";
layers = (
{
anchors = (
{
name = bottom;
position = "{311, 0}";
},
{
name = top;
position = "{311, 700}";
}
);
layerId = "0B1DFD06-3317-40CA-B510-4969A0718C16";
paths = (
{
closed = 1;
nodes = (
"413 293 OFFCURVE",
"549 356 OFFCURVE",
"549 498 CURVE SMOOTH",
"549 622 OFFCURVE",
"445 699 OFFCURVE",
"293 699 CURVE SMOOTH",
"236 699 OFFCURVE",
"180 687 OFFCURVE",
"101 652 CURVE SMOOTH",
"83 644 OFFCURVE",
"71 639 OFFCURVE",
"57 632 CURVE SMOOTH",
"49 628 OFFCURVE",
"45 624 OFFCURVE",
"45 618 CURVE SMOOTH",
"45 610 OFFCURVE",
"55 600 OFFCURVE",
"63 604 CURVE SMOOTH",
"76 610 OFFCURVE",
"93 619 OFFCURVE",
"108 626 CURVE SMOOTH",
"179 658 OFFCURVE",
"218 667 OFFCURVE",
"293 667 CURVE SMOOTH",
"424 667 OFFCURVE",
"518 596 OFFCURVE",
"518 496 CURVE SMOOTH",
"518 379 OFFCURVE",
"391 324 OFFCURVE",
"271 324 CURVE SMOOTH",
"201 324 OFFCURVE",
"144 343 OFFCURVE",
"109 361 CURVE",
"106 331 LINE",
"167 305 OFFCURVE",
"219 293 OFFCURVE",
"276 293 CURVE SMOOTH"
);
},
{
closed = 1;
nodes = (
"110 -4 OFFCURVE",
"120 -1 OFFCURVE",
"120 12 CURVE SMOOTH",
"120 136 OFFCURVE",
"118 185 OFFCURVE",
"118 351 CURVE SMOOTH",
"118 439 OFFCURVE",
"115 541 OFFCURVE",
"108 688 CURVE SMOOTH",
"108 697 OFFCURVE",
"103 701 OFFCURVE",
"93 701 CURVE SMOOTH",
"83 701 OFFCURVE",
"78 698 OFFCURVE",
"79 684 CURVE SMOOTH",
"87 536 OFFCURVE",
"89 437 OFFCURVE",
"89 355 CURVE SMOOTH",
"89 185 OFFCURVE",
"91 132 OFFCURVE",
"86 20 CURVE SMOOTH",
"85 1 OFFCURVE",
"93 -4 OFFCURVE",
"103 -4 CURVE SMOOTH"
);
},
{
closed = 1;
nodes = (
"527 15 OFFCURVE",
"535 25 OFFCURVE",
"535 34 CURVE SMOOTH",
"535 39 OFFCURVE",
"533 43 OFFCURVE",
"527 47 CURVE SMOOTH",
"117 330 LINE",
"105 302 LINE",
"502 23 LINE SMOOTH",
"506 20 OFFCURVE",
"514 15 OFFCURVE",
"519 15 CURVE SMOOTH"
);
}
);
width = 621;
},
{
anchors = (
{
name = bottom;
position = "{347, 0}";
},
{
name = top;
position = "{335, 700}";
}
);
layerId = "2F8C22CF-EC86-44F4-AF1A-A6C7F26A0C3C";
paths = (
{
closed = 1;
nodes = (
"504 269 OFFCURVE",
"632 342 OFFCURVE",
"632 478 CURVE SMOOTH",
"632 610 OFFCURVE",
"513 702 OFFCURVE",
"343 702 CURVE SMOOTH",
"284 702 OFFCURVE",
"225 691 OFFCURVE",
"164 664 CURVE SMOOTH",
"160 662 OFFCURVE",
"130 649 OFFCURVE",
"108 639 CURVE SMOOTH",
"76 624 OFFCURVE",
"60 607 OFFCURVE",
"60 580 CURVE SMOOTH",
"60 544 OFFCURVE",
"88 514 OFFCURVE",
"125 514 CURVE SMOOTH",
"145 514 OFFCURVE",
"168 523 OFFCURVE",
"180 528 CURVE SMOOTH",
"243 554 OFFCURVE",
"286 571 OFFCURVE",
"341 571 CURVE SMOOTH",
"421 571 OFFCURVE",
"468 534 OFFCURVE",
"468 477 CURVE SMOOTH",
"468 416 OFFCURVE",
"415 379 OFFCURVE",
"325 379 CURVE SMOOTH",
"283 379 OFFCURVE",
"251 387 OFFCURVE",
"215 405 CURVE",
"205 287 LINE",
"247 275 OFFCURVE",
"287 269 OFFCURVE",
"331 269 CURVE SMOOTH"
);
},
{
closed = 1;
nodes = (
"226 -7 OFFCURVE",
"262 20 OFFCURVE",
"262 58 CURVE SMOOTH",
"262 156 OFFCURVE",
"260 205 OFFCURVE",
"257 390 CURVE SMOOTH",
"255 511 OFFCURVE",
"255 590 OFFCURVE",
"254 642 CURVE SMOOTH",
"253 682 OFFCURVE",
"214 704 OFFCURVE",
"170 704 CURVE SMOOTH",
"123 704 OFFCURVE",
"89 679 OFFCURVE",
"89 638 CURVE SMOOTH",
"89 572 OFFCURVE",
"90 510 OFFCURVE",
"92 390 CURVE SMOOTH",
"95 212 OFFCURVE",
"95 164 OFFCURVE",
"95 68 CURVE SMOOTH",
"95 23 OFFCURVE",
"130 -7 OFFCURVE",
"180 -7 CURVE SMOOTH"
);
},
{
closed = 1;
nodes = (
"594 9 OFFCURVE",
"620 40 OFFCURVE",
"620 77 CURVE SMOOTH",
"620 104 OFFCURVE",
"606 117 OFFCURVE",
"583 131 CURVE SMOOTH",
"200 353 LINE",
"151 264 LINE",
"497 26 LINE SMOOTH",
"509 18 OFFCURVE",
"532 9 OFFCURVE",
"554 9 CURVE SMOOTH"
);
}
);
width = 672;
}
);
note = R;
unicode = 0052;
},
{
glyphname = S;
lastChange = "2018-02-21 13:45:10 +0000";
layers = (
{
anchors = (
{
name = bottom;
position = "{264, 0}";
},
{
name = top;
position = "{264, 700}";
}
);
layerId = "0B1DFD06-3317-40CA-B510-4969A0718C16";
paths = (
{
closed = 1;
nodes = (
"386 2 OFFCURVE",
"468 63 OFFCURVE",
"468 172 CURVE SMOOTH",
"468 303 OFFCURVE",
"349 341 OFFCURVE",
"281 361 CURVE SMOOTH",
"189 388 OFFCURVE",
"94 418 OFFCURVE",
"94 520 CURVE SMOOTH",
"94 611 OFFCURVE",
"172 676 OFFCURVE",
"282 676 CURVE SMOOTH",
"390 676 OFFCURVE",
"434 594 OFFCURVE",
"434 519 CURVE SMOOTH",
"434 508 OFFCURVE",
"441 505 OFFCURVE",
"449 505 CURVE SMOOTH",
"459 505 OFFCURVE",
"462 512 OFFCURVE",
"462 528 CURVE SMOOTH",
"462 630 OFFCURVE",
"384 706 OFFCURVE",
"269 706 CURVE SMOOTH",
"156 706 OFFCURVE",
"64 634 OFFCURVE",
"64 519 CURVE SMOOTH",
"64 388 OFFCURVE",
"185 355 OFFCURVE",
"256 336 CURVE SMOOTH",
"366 306 OFFCURVE",
"436 267 OFFCURVE",
"436 162 CURVE SMOOTH",
"436 121 OFFCURVE",
"403 33 OFFCURVE",
"284 33 CURVE SMOOTH",
"176 33 OFFCURVE",
"97 97 OFFCURVE",
"97 211 CURVE SMOOTH",
"97 220 OFFCURVE",
"95 227 OFFCURVE",
"83 227 CURVE SMOOTH",
"68 227 OFFCURVE",
"66 219 OFFCURVE",
"66 204 CURVE SMOOTH",
"66 98 OFFCURVE",
"144 2 OFFCURVE",
"279 2 CURVE SMOOTH"
);
}
);
width = 528;
},
{
anchors = (
{
name = bottom;
position = "{321, 0}";
},
{
name = top;
position = "{305, 700}";
}
);
layerId = "2F8C22CF-EC86-44F4-AF1A-A6C7F26A0C3C";
paths = (
{
closed = 1;
nodes = (
"455 -1 OFFCURVE",
"561 80 OFFCURVE",
"561 198 CURVE SMOOTH",
"561 342 OFFCURVE",
"410 388 OFFCURVE",
"340 410 CURVE SMOOTH",
"252 438 OFFCURVE",
"219 447 OFFCURVE",
"219 492 CURVE SMOOTH",
"219 548 OFFCURVE",
"265 580 OFFCURVE",
"319 580 CURVE SMOOTH",
"380 580 OFFCURVE",
"410 538 OFFCURVE",
"413 496 CURVE SMOOTH",
"417 447 OFFCURVE",
"436 432 OFFCURVE",
"487 432 CURVE SMOOTH",
"543 432 OFFCURVE",
"556 453 OFFCURVE",
"556 505 CURVE SMOOTH",
"556 603 OFFCURVE",
"453 709 OFFCURVE",
"309 709 CURVE SMOOTH",
"171 709 OFFCURVE",
"55 619 OFFCURVE",
"55 495 CURVE SMOOTH",
"55 346 OFFCURVE",
"219 307 OFFCURVE",
"282 289 CURVE SMOOTH",
"351 269 OFFCURVE",
"396 251 OFFCURVE",
"396 195 CURVE SMOOTH",
"396 148 OFFCURVE",
"362 129 OFFCURVE",
"316 129 CURVE SMOOTH",
"256 129 OFFCURVE",
"205 172 OFFCURVE",
"205 230 CURVE SMOOTH",
"205 281 OFFCURVE",
"165 296 OFFCURVE",
"130 296 CURVE SMOOTH",
"81 296 OFFCURVE",
"57 285 OFFCURVE",
"57 224 CURVE SMOOTH",
"57 107 OFFCURVE",
"166 -1 OFFCURVE",
"321 -1 CURVE SMOOTH"
);
}
);
width = 616;
}
);
note = S;
unicode = 0053;
},
{
glyphname = T;
lastChange = "2018-02-21 13:45:20 +0000";
layers = (
{
anchors = (
{
name = bottom;
position = "{254, 0}";
},
{
name = center;
position = "{274, 350}";
},
{
name = top;
position = "{274, 700}";
}
);
layerId = "0B1DFD06-3317-40CA-B510-4969A0718C16";
paths = (
{
closed = 1;
nodes = (
"271 0 OFFCURVE",
"272 7 OFFCURVE",
"272 24 CURVE SMOOTH",
"272 62 OFFCURVE",
"275 193 OFFCURVE",
"279 331 CURVE SMOOTH",
"283 465 OFFCURVE",
"289 600 OFFCURVE",
"295 671 CURVE",
"264 671 LINE",
"260 606 OFFCURVE",
"254 465 OFFCURVE",
"248 330 CURVE SMOOTH",
"243 191 OFFCURVE",
"238 59 OFFCURVE",
"238 23 CURVE SMOOTH",
"238 7 OFFCURVE",
"239 0 OFFCURVE",
"256 0 CURVE SMOOTH"
);
},
{
closed = 1;
nodes = (
"159 658 OFFCURVE",
"203 664 OFFCURVE",
"286 664 CURVE SMOOTH",
"360 664 OFFCURVE",
"416 661 OFFCURVE",
"489 655 CURVE SMOOTH",
"500 654 OFFCURVE",
"503 663 OFFCURVE",
"503 670 CURVE SMOOTH",
"503 680 OFFCURVE",
"498 686 OFFCURVE",
"487 687 CURVE SMOOTH",
"427 692 OFFCURVE",
"373 694 OFFCURVE",
"285 694 CURVE SMOOTH",
"194 694 OFFCURVE",
"128 690 OFFCURVE",
"58 682 CURVE SMOOTH",
"49 681 OFFCURVE",
"46 675 OFFCURVE",
"46 667 CURVE SMOOTH",
"46 656 OFFCURVE",
"52 650 OFFCURVE",
"60 651 CURVE SMOOTH"
);
}
);
width = 547;
},
{
anchors = (
{
name = bottom;
position = "{268, 0}";
},
{
name = center;
position = "{285, 350}";
},
{
name = top;
position = "{295, 700}";
}
);
layerId = "2F8C22CF-EC86-44F4-AF1A-A6C7F26A0C3C";
paths = (
{
closed = 1;
nodes = (
"333 -4 OFFCURVE",
"352 23 OFFCURVE",
"352 70 CURVE SMOOTH",
"352 153 OFFCURVE",
"353 231 OFFCURVE",
"355 340 CURVE SMOOTH",
"357 449 OFFCURVE",
"361 508 OFFCURVE",
"372 624 CURVE",
"208 629 LINE",
"201 517 OFFCURVE",
"198 450 OFFCURVE",
"192 340 CURVE SMOOTH",
"185 216 OFFCURVE",
"185 150 OFFCURVE",
"185 68 CURVE SMOOTH",
"185 22 OFFCURVE",
"218 -4 OFFCURVE",
"270 -4 CURVE SMOOTH"
);
},
{
closed = 1;
nodes = (
"194 564 OFFCURVE",
"239 569 OFFCURVE",
"301 569 CURVE SMOOTH",
"352 569 OFFCURVE",
"399 566 OFFCURVE",
"464 561 CURVE SMOOTH",
"511 557 OFFCURVE",
"551 586 OFFCURVE",
"551 625 CURVE SMOOTH",
"551 662 OFFCURVE",
"519 688 OFFCURVE",
"475 692 CURVE SMOOTH",
"427 696 OFFCURVE",
"363 698 OFFCURVE",
"299 698 CURVE SMOOTH",
"221 698 OFFCURVE",
"155 695 OFFCURVE",
"91 687 CURVE SMOOTH",
"49 683 OFFCURVE",
"20 658 OFFCURVE",
"20 623 CURVE SMOOTH",
"20 581 OFFCURVE",
"63 552 OFFCURVE",
"109 558 CURVE"
);
}
);
width = 571;
}
);
note = T;
unicode = 0054;
},
{
glyphname = U;
lastChange = "2018-02-22 08:46:53 +0000";
layers = (
{
anchors = (
{
name = bottom;
position = "{328, 0}";
},
{
name = ogonek;
position = "{590, 10}";
},
{
name = top;
position = "{328, 700}";
},
{
name = topright;
position = "{560, 544}";
}
);
layerId = "0B1DFD06-3317-40CA-B510-4969A0718C16";
paths = (
{
closed = 1;
nodes = (
"568 -1 OFFCURVE",
"573 5 OFFCURVE",
"573 15 CURVE SMOOTH",
"573 315 OFFCURVE",
"570 429 OFFCURVE",
"566 689 CURVE SMOOTH",
"566 698 OFFCURVE",
"564 707 OFFCURVE",
"549 707 CURVE SMOOTH",
"538 707 OFFCURVE",
"535 703 OFFCURVE",
"535 691 CURVE SMOOTH",
"538 498 OFFCURVE",
"541 344 OFFCURVE",
"539 245 CURVE SMOOTH",
"537 167 OFFCURVE",
"462 35 OFFCURVE",
"322 35 CURVE SMOOTH",
"183 35 OFFCURVE",
"112 111 OFFCURVE",
"112 262 CURVE SMOOTH",
"112 388 OFFCURVE",
"118 495 OFFCURVE",
"118 684 CURVE SMOOTH",
"118 694 OFFCURVE",
"114 700 OFFCURVE",
"102 700 CURVE SMOOTH",
"91 700 OFFCURVE",
"87 696 OFFCURVE",
"87 686 CURVE SMOOTH",
"87 496 OFFCURVE",
"80 396 OFFCURVE",
"80 260 CURVE SMOOTH",
"80 139 OFFCURVE",
"131 3 OFFCURVE",
"314 3 CURVE SMOOTH",
"435 3 OFFCURVE",
"513 71 OFFCURVE",
"548 166 CURVE",
"541 166 LINE",
"541 101 OFFCURVE",
"540 58 OFFCURVE",
"540 16 CURVE SMOOTH",
"540 3 OFFCURVE",
"545 -1 OFFCURVE",
"556 -1 CURVE SMOOTH"
);
}
);
width = 656;
},
{
anchors = (
{
name = bottom;
position = "{343, 0}";
},
{
name = ogonek;
position = "{562, 40}";
},
{
name = top;
position = "{335, 700}";
},
{
name = topright;
position = "{594, 532}";
}
);
layerId = "2F8C22CF-EC86-44F4-AF1A-A6C7F26A0C3C";
paths = (
{
closed = 1;
nodes = (
"588 -4 OFFCURVE",
"623 17 OFFCURVE",
"623 55 CURVE SMOOTH",
"621 288 OFFCURVE",
"619 407 OFFCURVE",
"618 645 CURVE SMOOTH",
"618 687 OFFCURVE",
"578 710 OFFCURVE",
"533 710 CURVE SMOOTH",
"486 710 OFFCURVE",
"452 685 OFFCURVE",
"452 645 CURVE SMOOTH",
"452 490 OFFCURVE",
"453 450 OFFCURVE",
"453 338 CURVE SMOOTH",
"453 220 OFFCURVE",
"390 131 OFFCURVE",
"315 131 CURVE SMOOTH",
"258 131 OFFCURVE",
"227 177 OFFCURVE",
"227 262 CURVE SMOOTH",
"227 422 OFFCURVE",
"229 487 OFFCURVE",
"231 643 CURVE SMOOTH",
"231 682 OFFCURVE",
"194 704 OFFCURVE",
"148 704 CURVE SMOOTH",
"102 704 OFFCURVE",
"67 681 OFFCURVE",
"66 643 CURVE SMOOTH",
"62 487 OFFCURVE",
"60 421 OFFCURVE",
"60 262 CURVE SMOOTH",
"60 108 OFFCURVE",
"146 0 OFFCURVE",
"269 0 CURVE SMOOTH",
"387 0 OFFCURVE",
"456 87 OFFCURVE",
"485 168 CURVE",
"455 168 LINE",
"455 147 OFFCURVE",
"455 89 OFFCURVE",
"455 70 CURVE SMOOTH",
"455 18 OFFCURVE",
"494 -4 OFFCURVE",
"542 -4 CURVE SMOOTH"
);
}
);
width = 683;
}
);
note = U;
unicode = 0055;
},
{
glyphname = V;
lastChange = "2018-02-21 13:46:34 +0000";
layers = (
{
anchors = (
{
name = bottom;
position = "{332, 0}";
},
{
name = top;
position = "{332, 700}";
}
);
layerId = "0B1DFD06-3317-40CA-B510-4969A0718C16";
paths = (
{
closed = 1;
nodes = (
"360 1 OFFCURVE",
"380 15 OFFCURVE",
"392 40 CURVE SMOOTH",
"407 71 OFFCURVE",
"421 104 OFFCURVE",
"500 383 CURVE SMOOTH",
"530 490 OFFCURVE",
"544 539 OFFCURVE",
"583 684 CURVE SMOOTH",
"586 696 OFFCURVE",
"583 706 OFFCURVE",
"569 706 CURVE SMOOTH",
"562 706 OFFCURVE",
"558 704 OFFCURVE",
"556 698 CURVE SMOOTH",
"519 557 OFFCURVE",
"503 498 OFFCURVE",
"468 382 CURVE SMOOTH",
"371 59 OFFCURVE",
"365 33 OFFCURVE",
"334 32 CURVE SMOOTH",
"304 32 OFFCURVE",
"288 63 OFFCURVE",
"190 382 CURVE SMOOTH",
"148 518 OFFCURVE",
"139 558 OFFCURVE",
"97 699 CURVE SMOOTH",
"95 705 OFFCURVE",
"90 706 OFFCURVE",
"81 706 CURVE SMOOTH",
"74 706 OFFCURVE",
"65 700 OFFCURVE",
"67 693 CURVE SMOOTH",
"108 548 OFFCURVE",
"122 502 OFFCURVE",
"158 383 CURVE SMOOTH",
"243 104 OFFCURVE",
"261 67 OFFCURVE",
"275 40 CURVE SMOOTH",
"289 13 OFFCURVE",
"309 1 OFFCURVE",
"333 1 CURVE SMOOTH"
);
}
);
width = 663;
},
{
anchors = (
{
name = bottom;
position = "{332, 0}";
},
{
name = top;
position = "{335, 700}";
}
);
layerId = "2F8C22CF-EC86-44F4-AF1A-A6C7F26A0C3C";
paths = (
{
closed = 1;
nodes = (
"381 -2 OFFCURVE",
"427 23 OFFCURVE",
"445 61 CURVE SMOOTH",
"460 93 OFFCURVE",
"509 250 OFFCURVE",
"542 365 CURVE SMOOTH",
"572 470 OFFCURVE",
"595 552 OFFCURVE",
"614 625 CURVE SMOOTH",
"626 674 OFFCURVE",
"593 709 OFFCURVE",
"537 709 CURVE SMOOTH",
"506 709 OFFCURVE",
"470 700 OFFCURVE",
"462 674 CURVE SMOOTH",
"431 573 OFFCURVE",
"415 519 OFFCURVE",
"385 393 CURVE SMOOTH",
"352 255 OFFCURVE",
"341 195 OFFCURVE",
"329 195 CURVE SMOOTH",
"319 195 OFFCURVE",
"308 259 OFFCURVE",
"271 393 CURVE SMOOTH",
"238 513 OFFCURVE",
"217 580 OFFCURVE",
"191 674 CURVE SMOOTH",
"184 699 OFFCURVE",
"144 709 OFFCURVE",
"112 709 CURVE SMOOTH",
"64 709 OFFCURVE",
"25 676 OFFCURVE",
"37 635 CURVE SMOOTH",
"64 545 OFFCURVE",
"87 463 OFFCURVE",
"116 364 CURVE SMOOTH",
"152 241 OFFCURVE",
"202 95 OFFCURVE",
"221 59 CURVE SMOOTH",
"240 22 OFFCURVE",
"284 -2 OFFCURVE",
"332 -2 CURVE SMOOTH"
);
}
);
width = 663;
}
);
note = V;
unicode = 0056;
},
{
glyphname = W;
lastChange = "2018-02-21 13:46:44 +0000";
layers = (
{
anchors = (
{
name = bottom;
position = "{448, 0}";
},
{
name = top;
position = "{448, 700}";
}
);
layerId = "0B1DFD06-3317-40CA-B510-4969A0718C16";
paths = (
{
closed = 1;
nodes = (
"296 4 OFFCURVE",
"312 25 OFFCURVE",
"325 54 CURVE SMOOTH",
"412 249 OFFCURVE",
"448 354 OFFCURVE",
"454 354 CURVE SMOOTH",
"459 354 OFFCURVE",
"506 249 OFFCURVE",
"597 54 CURVE SMOOTH",
"611 25 OFFCURVE",
"625 6 OFFCURVE",
"640 6 CURVE SMOOTH",
"654 6 OFFCURVE",
"667 15 OFFCURVE",
"670 30 CURVE SMOOTH",
"693 142 OFFCURVE",
"721 294 OFFCURVE",
"746 393 CURVE SMOOTH",
"764 466 OFFCURVE",
"790 576 OFFCURVE",
"818 679 CURVE SMOOTH",
"821 691 OFFCURVE",
"816 701 OFFCURVE",
"806 701 CURVE SMOOTH",
"798 701 OFFCURVE",
"793 698 OFFCURVE",
"791 689 CURVE SMOOTH",
"771 605 OFFCURVE",
"739 480 OFFCURVE",
"720 399 CURVE SMOOTH",
"698 307 OFFCURVE",
"647 37 OFFCURVE",
"640 37 CURVE SMOOTH",
"632 37 OFFCURVE",
"555 211 OFFCURVE",
"523 278 CURVE SMOOTH",
"504 318 OFFCURVE",
"470 390 OFFCURVE",
"453 390 CURVE SMOOTH",
"432 390 OFFCURVE",
"407 318 OFFCURVE",
"390 278 CURVE SMOOTH",
"321 115 OFFCURVE",
"291 38 OFFCURVE",
"280 38 CURVE SMOOTH",
"270 38 OFFCURVE",
"219 288 OFFCURVE",
"188 399 CURVE SMOOTH",
"168 469 OFFCURVE",
"123 632 OFFCURVE",
"107 686 CURVE SMOOTH",
"103 700 OFFCURVE",
"98 703 OFFCURVE",
"89 702 CURVE SMOOTH",
"76 701 OFFCURVE",
"74 691 OFFCURVE",
"78 679 CURVE SMOOTH",
"92 635 OFFCURVE",
"145 451 OFFCURVE",
"161 393 CURVE SMOOTH",
"196 265 OFFCURVE",
"225 132 OFFCURVE",
"251 25 CURVE SMOOTH",
"254 13 OFFCURVE",
"263 4 OFFCURVE",
"280 4 CURVE SMOOTH"
);
}
);
width = 895;
},
{
anchors = (
{
name = bottom;
position = "{430, 0}";
},
{
name = top;
position = "{417, 700}";
}
);
layerId = "2F8C22CF-EC86-44F4-AF1A-A6C7F26A0C3C";
paths = (
{
closed = 1;
nodes = (
"322 0 OFFCURVE",
"349 27 OFFCURVE",
"374 74 CURVE SMOOTH",
"389 102 OFFCURVE",
"416 193 OFFCURVE",
"424 193 CURVE SMOOTH",
"430 193 OFFCURVE",
"467 102 OFFCURVE",
"483 73 CURVE SMOOTH",
"508 27 OFFCURVE",
"537 2 OFFCURVE",
"587 2 CURVE SMOOTH",
"638 2 OFFCURVE",
"668 25 OFFCURVE",
"676 64 CURVE SMOOTH",
"696 164 OFFCURVE",
"722 295 OFFCURVE",
"741 375 CURVE SMOOTH",
"765 475 OFFCURVE",
"775 520 OFFCURVE",
"803 622 CURVE SMOOTH",
"816 669 OFFCURVE",
"779 705 OFFCURVE",
"726 705 CURVE SMOOTH",
"687 705 OFFCURVE",
"652 689 OFFCURVE",
"645 659 CURVE SMOOTH",
"612 520 OFFCURVE",
"603 475 OFFCURVE",
"589 405 CURVE SMOOTH",
"573 324 OFFCURVE",
"559 263 OFFCURVE",
"553 263 CURVE SMOOTH",
"545 263 OFFCURVE",
"514 324 OFFCURVE",
"505 341 CURVE SMOOTH",
"472 402 OFFCURVE",
"445 445 OFFCURVE",
"417 445 CURVE SMOOTH",
"388 445 OFFCURVE",
"365 401 OFFCURVE",
"338 343 CURVE SMOOTH",
"330 326 OFFCURVE",
"299 261 OFFCURVE",
"292 261 CURVE SMOOTH",
"284 261 OFFCURVE",
"268 332 OFFCURVE",
"251 407 CURVE SMOOTH",
"233 485 OFFCURVE",
"221 533 OFFCURVE",
"184 660 CURVE SMOOTH",
"174 695 OFFCURVE",
"140 710 OFFCURVE",
"100 705 CURVE SMOOTH",
"49 701 OFFCURVE",
"19 667 OFFCURVE",
"33 618 CURVE SMOOTH",
"63 514 OFFCURVE",
"78 463 OFFCURVE",
"103 374 CURVE SMOOTH",
"132 270 OFFCURVE",
"157 155 OFFCURVE",
"180 58 CURVE SMOOTH",
"189 24 OFFCURVE",
"227 0 OFFCURVE",
"272 0 CURVE SMOOTH"
);
}
);
width = 836;
}
);
note = W;
unicode = 0057;
},
{
glyphname = X;
lastChange = "2018-02-21 13:46:46 +0000";
layers = (
{
anchors = (
{
name = bottom;
position = "{333, 0}";
},
{
name = top;
position = "{333, 700}";
}
);
layerId = "0B1DFD06-3317-40CA-B510-4969A0718C16";
paths = (
{
closed = 1;
nodes = (
"86 3 OFFCURVE",
"91 5 OFFCURVE",
"96 11 CURVE SMOOTH",
"259 228 OFFCURVE",
"441 470 OFFCURVE",
"585 662 CURVE SMOOTH",
"592 671 OFFCURVE",
"593 675 OFFCURVE",
"593 679 CURVE SMOOTH",
"593 686 OFFCURVE",
"587 695 OFFCURVE",
"576 695 CURVE SMOOTH",
"570 695 OFFCURVE",
"565 691 OFFCURVE",
"556 679 CURVE SMOOTH",
"422 498 OFFCURVE",
"235 247 OFFCURVE",
"71 32 CURVE SMOOTH",
"66 26 OFFCURVE",
"64 24 OFFCURVE",
"64 18 CURVE SMOOTH",
"64 11 OFFCURVE",
"70 3 OFFCURVE",
"78 3 CURVE SMOOTH"
);
},
{
closed = 1;
nodes = (
"594 7 OFFCURVE",
"598 16 OFFCURVE",
"592 24 CURVE SMOOTH",
"410 271 OFFCURVE",
"216 532 OFFCURVE",
"108 682 CURVE SMOOTH",
"99 694 OFFCURVE",
"93 697 OFFCURVE",
"88 697 CURVE SMOOTH",
"79 697 OFFCURVE",
"72 691 OFFCURVE",
"72 682 CURVE SMOOTH",
"72 679 OFFCURVE",
"73 675 OFFCURVE",
"76 671 CURVE SMOOTH",
"186 518 OFFCURVE",
"383 252 OFFCURVE",
"562 8 CURVE SMOOTH",
"568 0 OFFCURVE",
"578 -3 OFFCURVE",
"586 2 CURVE SMOOTH"
);
}
);
width = 666;
},
{
anchors = (
{
name = bottom;
position = "{333, 0}";
},
{
name = top;
position = "{343, 700}";
}
);
layerId = "2F8C22CF-EC86-44F4-AF1A-A6C7F26A0C3C";
paths = (
{
closed = 1;
nodes = (
"143 -1 OFFCURVE",
"173 11 OFFCURVE",
"194 39 CURVE SMOOTH",
"309 193 OFFCURVE",
"446 374 OFFCURVE",
"611 596 CURVE SMOOTH",
"623 612 OFFCURVE",
"625 624 OFFCURVE",
"625 636 CURVE SMOOTH",
"625 661 OFFCURVE",
"583 699 OFFCURVE",
"537 699 CURVE SMOOTH",
"515 699 OFFCURVE",
"497 695 OFFCURVE",
"485 679 CURVE SMOOTH",
"353 502 OFFCURVE",
"216 326 OFFCURVE",
"55 119 CURVE SMOOTH",
"46 108 OFFCURVE",
"35 88 OFFCURVE",
"35 63 CURVE SMOOTH",
"35 31 OFFCURVE",
"69 -1 OFFCURVE",
"113 -1 CURVE SMOOTH"
);
},
{
closed = 1;
nodes = (
"619 27 OFFCURVE",
"640 62 OFFCURVE",
"611 100 CURVE SMOOTH",
"455 313 OFFCURVE",
"317 499 OFFCURVE",
"195 666 CURVE SMOOTH",
"180 686 OFFCURVE",
"159 701 OFFCURVE",
"129 701 CURVE SMOOTH",
"85 701 OFFCURVE",
"45 673 OFFCURVE",
"41 636 CURVE SMOOTH",
"39 621 OFFCURVE",
"43 612 OFFCURVE",
"55 596 CURVE SMOOTH",
"175 429 OFFCURVE",
"346 198 OFFCURVE",
"485 16 CURVE SMOOTH",
"505 -10 OFFCURVE",
"563 -10 OFFCURVE",
"587 6 CURVE SMOOTH"
);
}
);
width = 666;
}
);
note = X;
unicode = 0058;
},
{
glyphname = Y;
lastChange = "2018-02-21 13:47:20 +0000";
layers = (
{
anchors = (
{
name = bottom;
position = "{328, 0}";
},
{
name = top;
position = "{328, 700}";
},
{
name = topleft;
position = "{136, 595}";
}
);
layerId = "0B1DFD06-3317-40CA-B510-4969A0718C16";
paths = (
{
closed = 1;
nodes = (
"341 5 OFFCURVE",
"344 12 OFFCURVE",
"344 24 CURVE SMOOTH",
"340 326 LINE",
"376 338 OFFCURVE",
"422 388 OFFCURVE",
"473 473 CURVE SMOOTH",
"513 540 OFFCURVE",
"530 578 OFFCURVE",
"570 675 CURVE SMOOTH",
"575 687 OFFCURVE",
"565 696 OFFCURVE",
"557 696 CURVE SMOOTH",
"547 696 OFFCURVE",
"545 693 OFFCURVE",
"539 679 CURVE SMOOTH",
"505 596 OFFCURVE",
"481 547 OFFCURVE",
"445 486 CURVE SMOOTH",
"401 411 OFFCURVE",
"355 358 OFFCURVE",
"327 358 CURVE SMOOTH",
"292 358 OFFCURVE",
"247 427 OFFCURVE",
"211 485 CURVE SMOOTH",
"173 547 OFFCURVE",
"146 597 OFFCURVE",
"117 675 CURVE SMOOTH",
"113 687 OFFCURVE",
"109 698 OFFCURVE",
"96 698 CURVE SMOOTH",
"85 698 OFFCURVE",
"80 689 OFFCURVE",
"84 679 CURVE SMOOTH",
"116 593 OFFCURVE",
"136 548 OFFCURVE",
"183 471 CURVE SMOOTH",
"236 384 OFFCURVE",
"270 342 OFFCURVE",
"310 326 CURVE",
"313 23 LINE SMOOTH",
"313 11 OFFCURVE",
"317 5 OFFCURVE",
"329 5 CURVE SMOOTH"
);
}
);
width = 655;
},
{
anchors = (
{
name = bottom;
position = "{328, 0}";
},
{
name = top;
position = "{335, 700}";
},
{
name = topleft;
position = "{104, 582}";
}
);
layerId = "2F8C22CF-EC86-44F4-AF1A-A6C7F26A0C3C";
paths = (
{
closed = 1;
nodes = (
"377 1 OFFCURVE",
"411 28 OFFCURVE",
"411 71 CURVE SMOOTH",
"408 333 LINE",
"426 332 OFFCURVE",
"480 381 OFFCURVE",
"513 432 CURVE SMOOTH",
"534 465 OFFCURVE",
"568 530 OFFCURVE",
"599 609 CURVE SMOOTH",
"615 651 OFFCURVE",
"583 700 OFFCURVE",
"521 700 CURVE SMOOTH",
"488 700 OFFCURVE",
"461 686 OFFCURVE",
"446 654 CURVE SMOOTH",
"427 612 OFFCURVE",
"393 538 OFFCURVE",
"368 495 CURVE SMOOTH",
"353 469 OFFCURVE",
"338 449 OFFCURVE",
"329 449 CURVE SMOOTH",
"321 449 OFFCURVE",
"302 467 OFFCURVE",
"285 495 CURVE SMOOTH",
"259 538 OFFCURVE",
"229 609 OFFCURVE",
"210 650 CURVE SMOOTH",
"194 685 OFFCURVE",
"163 702 OFFCURVE",
"131 702 CURVE SMOOTH",
"77 702 OFFCURVE",
"36 656 OFFCURVE",
"51 619 CURVE SMOOTH",
"78 552 OFFCURVE",
"112 484 OFFCURVE",
"140 442 CURVE SMOOTH",
"167 402 OFFCURVE",
"223 332 OFFCURVE",
"243 332 CURVE",
"246 68 LINE SMOOTH",
"246 28 OFFCURVE",
"281 1 OFFCURVE",
"329 1 CURVE SMOOTH"
);
}
);
width = 655;
}
);
note = Y;
unicode = 0059;
},
{
glyphname = Z;
lastChange = "2018-02-21 13:47:24 +0000";
layers = (
{
anchors = (
{
name = bottom;
position = "{327, 0}";
},
{
name = top;
position = "{327, 700}";
}
);
layerId = "0B1DFD06-3317-40CA-B510-4969A0718C16";
paths = (
{
closed = 1;
nodes = (
"583 17 OFFCURVE",
"587 27 OFFCURVE",
"587 32 CURVE SMOOTH",
"587 39 OFFCURVE",
"585 46 OFFCURVE",
"575 47 CURVE SMOOTH",
"490 58 OFFCURVE",
"426 61 OFFCURVE",
"343 61 CURVE SMOOTH",
"233 61 OFFCURVE",
"130 56 OFFCURVE",
"83 54 CURVE",
"111 101 OFFCURVE",
"234 223 OFFCURVE",
"365 360 CURVE SMOOTH",
"504 505 OFFCURVE",
"598 608 OFFCURVE",
"619 651 CURVE SMOOTH",
"624 661 OFFCURVE",
"624 677 OFFCURVE",
"614 685 CURVE SMOOTH",
"607 691 OFFCURVE",
"594 695 OFFCURVE",
"585 694 CURVE SMOOTH",
"459 683 OFFCURVE",
"420 679 OFFCURVE",
"326 679 CURVE SMOOTH",
"253 679 OFFCURVE",
"198 688 OFFCURVE",
"113 698 CURVE SMOOTH",
"94 700 OFFCURVE",
"88 696 OFFCURVE",
"87 685 CURVE SMOOTH",
"86 676 OFFCURVE",
"93 671 OFFCURVE",
"105 669 CURVE SMOOTH",
"202 653 OFFCURVE",
"274 648 OFFCURVE",
"354 648 CURVE SMOOTH",
"397 648 OFFCURVE",
"461 649 OFFCURVE",
"589 662 CURVE",
"537 588 OFFCURVE",
"476 528 OFFCURVE",
"336 376 CURVE SMOOTH",
"218 248 OFFCURVE",
"95 137 OFFCURVE",
"55 67 CURVE SMOOTH",
"51 60 OFFCURVE",
"46 49 OFFCURVE",
"46 39 CURVE SMOOTH",
"46 22 OFFCURVE",
"65 23 OFFCURVE",
"128 26 CURVE SMOOTH",
"189 29 OFFCURVE",
"248 31 OFFCURVE",
"346 31 CURVE SMOOTH",
"392 31 OFFCURVE",
"485 26 OFFCURVE",
"570 19 CURVE"
);
}
);
width = 653;
},
{
anchors = (
{
name = bottom;
position = "{328, 0}";
},
{
name = top;
position = "{335, 700}";
}
);
layerId = "2F8C22CF-EC86-44F4-AF1A-A6C7F26A0C3C";
paths = (
{
closed = 1;
nodes = (
"586 8 OFFCURVE",
"621 35 OFFCURVE",
"621 79 CURVE SMOOTH",
"621 114 OFFCURVE",
"598 136 OFFCURVE",
"557 141 CURVE SMOOTH",
"482 150 OFFCURVE",
"450 153 OFFCURVE",
"391 153 CURVE SMOOTH",
"322 153 OFFCURVE",
"297 149 OFFCURVE",
"224 146 CURVE",
"309 228 OFFCURVE",
"311 230 OFFCURVE",
"431 353 CURVE SMOOTH",
"539 464 OFFCURVE",
"621 544 OFFCURVE",
"642 588 CURVE SMOOTH",
"658 622 OFFCURVE",
"650 659 OFFCURVE",
"619 680 CURVE SMOOTH",
"599 694 OFFCURVE",
"567 701 OFFCURVE",
"543 699 CURVE SMOOTH",
"434 690 OFFCURVE",
"400 687 OFFCURVE",
"342 687 CURVE SMOOTH",
"253 687 OFFCURVE",
"210 694 OFFCURVE",
"133 703 CURVE SMOOTH",
"81 709 OFFCURVE",
"54 683 OFFCURVE",
"52 645 CURVE SMOOTH",
"50 612 OFFCURVE",
"67 587 OFFCURVE",
"120 575 CURVE SMOOTH",
"164 565 OFFCURVE",
"259 557 OFFCURVE",
"332 557 CURVE SMOOTH",
"382 557 OFFCURVE",
"399 561 OFFCURVE",
"438 564 CURVE",
"432 558 OFFCURVE",
"385 505 OFFCURVE",
"285 405 CURVE SMOOTH",
"174 294 OFFCURVE",
"62 180 OFFCURVE",
"34 133 CURVE SMOOTH",
"21 112 OFFCURVE",
"17 98 OFFCURVE",
"17 84 CURVE SMOOTH",
"17 23 OFFCURVE",
"99 18 OFFCURVE",
"160 20 CURVE SMOOTH",
"209 21 OFFCURVE",
"212 25 OFFCURVE",
"322 25 CURVE SMOOTH",
"417 25 OFFCURVE",
"451 22 OFFCURVE",
"548 14 CURVE"
);
}
);
width = 653;
}
);
note = Z;
unicode = 005A;
},
{
glyphname = a;
lastChange = "2018-02-22 08:48:05 +0000";
layers = (
{
anchors = (
{
name = bottom;
position = "{318, 0}";
},
{
name = ogonek;
position = "{572, 10}";
},
{
name = top;
position = "{318, 500}";
}
);
layerId = "0B1DFD06-3317-40CA-B510-4969A0718C16";
paths = (
{
closed = 1;
nodes = (
"384 -7 OFFCURVE",
"444 36 OFFCURVE",
"468 98 CURVE",
"455 98 LINE",
"467 27 OFFCURVE",
"481 3 OFFCURVE",
"542 3 CURVE SMOOTH",
"552 3 OFFCURVE",
"557 8 OFFCURVE",
"557 22 CURVE SMOOTH",
"557 35 OFFCURVE",
"549 37 OFFCURVE",
"538 38 CURVE SMOOTH",
"492 41 OFFCURVE",
"489 68 OFFCURVE",
"489 167 CURVE SMOOTH",
"489 219 OFFCURVE",
"485 283 OFFCURVE",
"491 359 CURVE SMOOTH",
"496 422 OFFCURVE",
"499 433 OFFCURVE",
"506 470 CURVE SMOOTH",
"508 478 OFFCURVE",
"498 485 OFFCURVE",
"486 485 CURVE SMOOTH",
"475 485 OFFCURVE",
"474 479 OFFCURVE",
"472 467 CURVE SMOOTH",
"460 380 LINE",
"469 380 LINE",
"436 452 OFFCURVE",
"376 491 OFFCURVE",
"286 491 CURVE SMOOTH",
"135 491 OFFCURVE",
"70 352 OFFCURVE",
"70 236 CURVE SMOOTH",
"70 152 OFFCURVE",
"104 -7 OFFCURVE",
"290 -7 CURVE SMOOTH"
);
},
{
closed = 1;
nodes = (
"129 24 OFFCURVE",
"101 169 OFFCURVE",
"101 237 CURVE SMOOTH",
"101 314 OFFCURVE",
"137 460 OFFCURVE",
"303 460 CURVE SMOOTH",
"339 460 OFFCURVE",
"457 433 OFFCURVE",
"457 285 CURVE SMOOTH",
"457 244 OFFCURVE",
"457 219 OFFCURVE",
"456 168 CURVE SMOOTH",
"454 69 OFFCURVE",
"372 24 OFFCURVE",
"285 24 CURVE SMOOTH"
);
}
);
width = 636;
},
{
anchors = (
{
name = bottom;
position = "{293, 0}";
},
{
name = ogonek;
position = "{516, 49}";
},
{
name = top;
position = "{297, 500}";
}
);
layerId = "2F8C22CF-EC86-44F4-AF1A-A6C7F26A0C3C";
paths = (
{
closed = 1;
nodes = (
"368 -11 OFFCURVE",
"397 18 OFFCURVE",
"445 86 CURVE",
"398 86 LINE",
"436 18 OFFCURVE",
"463 0 OFFCURVE",
"536 0 CURVE SMOOTH",
"565 0 OFFCURVE",
"582 27 OFFCURVE",
"582 58 CURVE SMOOTH",
"582 98 OFFCURVE",
"564 108 OFFCURVE",
"542 111 CURVE SMOOTH",
"514 115 OFFCURVE",
"515 148 OFFCURVE",
"515 180 CURVE SMOOTH",
"515 227 OFFCURVE",
"514 263 OFFCURVE",
"518 319 CURVE SMOOTH",
"521 358 OFFCURVE",
"525 392 OFFCURVE",
"535 433 CURVE SMOOTH",
"542 463 OFFCURVE",
"511 490 OFFCURVE",
"460 490 CURVE SMOOTH",
"410 490 OFFCURVE",
"389 452 OFFCURVE",
"389 424 CURVE SMOOTH",
"389 399 LINE",
"428 399 LINE",
"424 444 OFFCURVE",
"363 495 OFFCURVE",
"293 495 CURVE SMOOTH",
"148 495 OFFCURVE",
"48 388 OFFCURVE",
"48 235 CURVE SMOOTH",
"48 84 OFFCURVE",
"144 -11 OFFCURVE",
"298 -11 CURVE SMOOTH"
);
},
{
closed = 1;
nodes = (
"230 100 OFFCURVE",
"193 153 OFFCURVE",
"193 236 CURVE SMOOTH",
"193 322 OFFCURVE",
"236 384 OFFCURVE",
"296 384 CURVE SMOOTH",
"342 384 OFFCURVE",
"376 353 OFFCURVE",
"376 307 CURVE SMOOTH",
"376 264 OFFCURVE",
"376 221 OFFCURVE",
"375 180 CURVE SMOOTH",
"374 128 OFFCURVE",
"343 100 OFFCURVE",
"289 100 CURVE SMOOTH"
);
}
);
width = 636;
}
);
note = a;
unicode = 0061;
},
{
glyphname = b;
lastChange = "2018-02-21 13:47:40 +0000";
layers = (
{
anchors = (
{
name = bottom;
position = "{319, 0}";
},
{
name = top;
position = "{319, 500}";
}
);
layerId = "0B1DFD06-3317-40CA-B510-4969A0718C16";
paths = (
{
closed = 1;
nodes = (
"400 -5 OFFCURVE",
"561 37 OFFCURVE",
"561 250 CURVE SMOOTH",
"561 398 OFFCURVE",
"470 500 OFFCURVE",
"305 500 CURVE SMOOTH",
"222 500 OFFCURVE",
"142 457 OFFCURVE",
"105 412 CURVE",
"110 412 LINE",
"108 610 OFFCURVE",
"106 662 OFFCURVE",
"91 878 CURVE SMOOTH",
"90 886 OFFCURVE",
"87 892 OFFCURVE",
"76 892 CURVE SMOOTH",
"67 892 OFFCURVE",
"59 887 OFFCURVE",
"60 878 CURVE SMOOTH",
"73 659 OFFCURVE",
"74 606 OFFCURVE",
"78 390 CURVE SMOOTH",
"82 169 OFFCURVE",
"92 138 OFFCURVE",
"77 84 CURVE SMOOTH",
"68 49 OFFCURVE",
"42 40 OFFCURVE",
"37 37 CURVE SMOOTH",
"33 34 OFFCURVE",
"32 29 OFFCURVE",
"32 26 CURVE SMOOTH",
"32 21 OFFCURVE",
"36 12 OFFCURVE",
"48 12 CURVE SMOOTH",
"50 12 OFFCURVE",
"53 12 OFFCURVE",
"55 13 CURVE SMOOTH",
"78 22 OFFCURVE",
"108 57 OFFCURVE",
"109 96 CURVE",
"133 44 OFFCURVE",
"229 -5 OFFCURVE",
"318 -5 CURVE"
);
},
{
closed = 1;
nodes = (
"201 25 OFFCURVE",
"113 92 OFFCURVE",
"112 170 CURVE",
"112 182 OFFCURVE",
"110 229 OFFCURVE",
"110 273 CURVE SMOOTH",
"110 316 OFFCURVE",
"109 351 OFFCURVE",
"109 374 CURVE",
"148 427 OFFCURVE",
"227 469 OFFCURVE",
"310 469 CURVE SMOOTH",
"438 469 OFFCURVE",
"530 392 OFFCURVE",
"530 247 CURVE SMOOTH",
"530 77 OFFCURVE",
"409 25 OFFCURVE",
"318 25 CURVE SMOOTH"
);
}
);
width = 638;
},
{
anchors = (
{
name = bottom;
position = "{332, 0}";
},
{
name = top;
position = "{297, 500}";
}
);
layerId = "2F8C22CF-EC86-44F4-AF1A-A6C7F26A0C3C";
paths = (
{
closed = 1;
nodes = (
"483 -1 OFFCURVE",
"593 101 OFFCURVE",
"593 259 CURVE SMOOTH",
"593 414 OFFCURVE",
"486 514 OFFCURVE",
"315 514 CURVE SMOOTH",
"233 514 OFFCURVE",
"214 491 OFFCURVE",
"161 438 CURVE",
"211 438 LINE",
"207 600 OFFCURVE",
"203 660 OFFCURVE",
"194 794 CURVE SMOOTH",
"192 827 OFFCURVE",
"161 846 OFFCURVE",
"124 846 CURVE SMOOTH",
"81 846 OFFCURVE",
"48 821 OFFCURVE",
"50 787 CURVE SMOOTH",
"61 602 OFFCURVE",
"62 563 OFFCURVE",
"65 377 CURVE SMOOTH",
"68 189 OFFCURVE",
"69 141 OFFCURVE",
"62 127 CURVE SMOOTH",
"59 121 OFFCURVE",
"51 114 OFFCURVE",
"44 107 CURVE SMOOTH",
"32 95 OFFCURVE",
"25 87 OFFCURVE",
"25 70 CURVE SMOOTH",
"25 43 OFFCURVE",
"44 9 OFFCURVE",
"90 9 CURVE SMOOTH",
"98 9 OFFCURVE",
"110 10 OFFCURVE",
"122 16 CURVE SMOOTH",
"132 21 OFFCURVE",
"157 37 OFFCURVE",
"175 59 CURVE",
"198 32 OFFCURVE",
"271 0 OFFCURVE",
"330 -1 CURVE"
);
},
{
closed = 1;
nodes = (
"272 111 OFFCURVE",
"213 151 OFFCURVE",
"212 193 CURVE",
"211 235 OFFCURVE",
"211 261 OFFCURVE",
"211 279 CURVE SMOOTH",
"210 333 OFFCURVE",
"210 309 OFFCURVE",
"210 364 CURVE",
"226 376 OFFCURVE",
"283 403 OFFCURVE",
"330 403 CURVE SMOOTH",
"396 403 OFFCURVE",
"448 351 OFFCURVE",
"448 259 CURVE SMOOTH",
"448 169 OFFCURVE",
"398 111 OFFCURVE",
"329 111 CURVE SMOOTH"
);
}
);
width = 638;
}
);
note = b;
unicode = 0062;
},
{
glyphname = c;
lastChange = "2018-02-21 13:47:49 +0000";
layers = (
{
anchors = (
{
name = bottom;
position = "{291, 0}";
},
{
name = top;
position = "{291, 500}";
}
);
layerId = "0B1DFD06-3317-40CA-B510-4969A0718C16";
paths = (
{
closed = 1;
nodes = (
"476 2 OFFCURVE",
"533 119 OFFCURVE",
"535 183 CURVE SMOOTH",
"536 202 OFFCURVE",
"528 205 OFFCURVE",
"520 205 CURVE SMOOTH",
"510 205 OFFCURVE",
"504 199 OFFCURVE",
"504 188 CURVE SMOOTH",
"504 139 OFFCURVE",
"451 33 OFFCURVE",
"306 33 CURVE SMOOTH",
"161 33 OFFCURVE",
"94 136 OFFCURVE",
"94 243 CURVE SMOOTH",
"94 357 OFFCURVE",
"170 481 OFFCURVE",
"314 481 CURVE SMOOTH",
"415 481 OFFCURVE",
"475 417 OFFCURVE",
"490 366 CURVE SMOOTH",
"494 354 OFFCURVE",
"502 350 OFFCURVE",
"511 352 CURVE SMOOTH",
"520 354 OFFCURVE",
"524 360 OFFCURVE",
"521 371 CURVE SMOOTH",
"508 420 OFFCURVE",
"443 512 OFFCURVE",
"308 512 CURVE SMOOTH",
"138 512 OFFCURVE",
"63 366 OFFCURVE",
"63 241 CURVE SMOOTH",
"63 122 OFFCURVE",
"134 2 OFFCURVE",
"304 2 CURVE SMOOTH"
);
}
);
width = 582;
},
{
anchors = (
{
name = bottom;
position = "{304, 0}";
},
{
name = top;
position = "{297, 500}";
}
);
layerId = "2F8C22CF-EC86-44F4-AF1A-A6C7F26A0C3C";
paths = (
{
closed = 1;
nodes = (
"443 -1 OFFCURVE",
"555 91 OFFCURVE",
"558 200 CURVE SMOOTH",
"559 242 OFFCURVE",
"529 255 OFFCURVE",
"485 255 CURVE SMOOTH",
"449 255 OFFCURVE",
"435 240 OFFCURVE",
"433 221 CURVE SMOOTH",
"425 146 OFFCURVE",
"376 110 OFFCURVE",
"305 110 CURVE SMOOTH",
"230 110 OFFCURVE",
"185 161 OFFCURVE",
"185 245 CURVE SMOOTH",
"185 336 OFFCURVE",
"239 404 OFFCURVE",
"312 404 CURVE SMOOTH",
"357 404 OFFCURVE",
"392 379 OFFCURVE",
"415 340 CURVE SMOOTH",
"436 304 OFFCURVE",
"457 287 OFFCURVE",
"499 298 CURVE SMOOTH",
"543 310 OFFCURVE",
"556 339 OFFCURVE",
"537 375 CURVE SMOOTH",
"488 468 OFFCURVE",
"417 515 OFFCURVE",
"307 515 CURVE SMOOTH",
"151 515 OFFCURVE",
"40 401 OFFCURVE",
"40 243 CURVE SMOOTH",
"40 97 OFFCURVE",
"147 -1 OFFCURVE",
"303 -1 CURVE SMOOTH"
);
}
);
width = 582;
}
);
note = c;
unicode = 0063;
},
{
glyphname = d;
lastChange = "2018-02-22 09:49:26 +0000";
layers = (
{
anchors = (
{
name = bottom;
position = "{318, 0}";
},
{
name = center;
position = "{318, 250}";
},
{
name = top;
position = "{538, 874}";
},
{
name = topright;
position = "{546, 700}";
}
);
layerId = "0B1DFD06-3317-40CA-B510-4969A0718C16";
paths = (
{
closed = 1;
nodes = (
"404 -7 OFFCURVE",
"489 37 OFFCURVE",
"523 99 CURVE",
"528 35 OFFCURVE",
"564 16 OFFCURVE",
"576 11 CURVE SMOOTH",
"583 8 OFFCURVE",
"589 7 OFFCURVE",
"595 16 CURVE SMOOTH",
"599 22 OFFCURVE",
"598 31 OFFCURVE",
"595 33 CURVE SMOOTH",
"587 38 OFFCURVE",
"566 49 OFFCURVE",
"557 84 CURVE SMOOTH",
"545 131 OFFCURVE",
"548 235 OFFCURVE",
"551 390 CURVE SMOOTH",
"555 605 OFFCURVE",
"556 732 OFFCURVE",
"569 876 CURVE SMOOTH",
"570 886 OFFCURVE",
"563 892 OFFCURVE",
"553 892 CURVE SMOOTH",
"542 892 OFFCURVE",
"539 885 OFFCURVE",
"538 874 CURVE SMOOTH",
"528 730 OFFCURVE",
"525 605 OFFCURVE",
"520 412 CURVE",
"531 417 LINE",
"490 469 OFFCURVE",
"412 501 OFFCURVE",
"324 501 CURVE SMOOTH",
"168 501 OFFCURVE",
"68 408 OFFCURVE",
"68 250 CURVE SMOOTH",
"68 37 OFFCURVE",
"232 -7 OFFCURVE",
"315 -7 CURVE"
);
},
{
closed = 1;
nodes = (
"227 24 OFFCURVE",
"99 77 OFFCURVE",
"99 247 CURVE SMOOTH",
"99 392 OFFCURVE",
"191 469 OFFCURVE",
"319 469 CURVE SMOOTH",
"402 469 OFFCURVE",
"481 444 OFFCURVE",
"520 381 CURVE",
"522 342 OFFCURVE",
"521 218 OFFCURVE",
"520 190 CURVE SMOOTH",
"517 90 OFFCURVE",
"413 24 OFFCURVE",
"311 24 CURVE SMOOTH"
);
}
);
width = 635;
},
{
anchors = (
{
name = bottom;
position = "{321, 0}";
},
{
name = center;
position = "{320, 267}";
},
{
name = top;
position = "{519, 866}";
},
{
name = topright;
position = "{517, 700}";
}
);
layerId = "2F8C22CF-EC86-44F4-AF1A-A6C7F26A0C3C";
paths = (
{
closed = 1;
nodes = (
"378 19 OFFCURVE",
"419 37 OFFCURVE",
"449 75 CURVE",
"461 46 OFFCURVE",
"477 31 OFFCURVE",
"493 19 CURVE SMOOTH",
"509 7 OFFCURVE",
"549 -3 OFFCURVE",
"580 20 CURVE SMOOTH",
"609 41 OFFCURVE",
"620 71 OFFCURVE",
"606 93 CURVE SMOOTH",
"592 114 OFFCURVE",
"584 128 OFFCURVE",
"580 144 CURVE SMOOTH",
"575 165 OFFCURVE",
"574 214 OFFCURVE",
"577 397 CURVE SMOOTH",
"582 658 OFFCURVE",
"585 735 OFFCURVE",
"592 805 CURVE SMOOTH",
"596 841 OFFCURVE",
"562 866 OFFCURVE",
"519 866 CURVE SMOOTH",
"480 866 OFFCURVE",
"451 845 OFFCURVE",
"448 813 CURVE SMOOTH",
"439 734 OFFCURVE",
"432 488 OFFCURVE",
"432 428 CURVE",
"500 456 LINE",
"455 495 OFFCURVE",
"384 534 OFFCURVE",
"316 534 CURVE SMOOTH",
"156 534 OFFCURVE",
"49 438 OFFCURVE",
"49 279 CURVE SMOOTH",
"49 118 OFFCURVE",
"159 19 OFFCURVE",
"318 19 CURVE SMOOTH"
);
},
{
closed = 1;
nodes = (
"248 133 OFFCURVE",
"194 187 OFFCURVE",
"194 277 CURVE SMOOTH",
"194 371 OFFCURVE",
"240 423 OFFCURVE",
"321 423 CURVE SMOOTH",
"364 423 OFFCURVE",
"418 400 OFFCURVE",
"432 382 CURVE",
"432 326 OFFCURVE",
"433 285 OFFCURVE",
"432 230 CURVE SMOOTH",
"431 176 OFFCURVE",
"381 133 OFFCURVE",
"319 133 CURVE SMOOTH"
);
}
);
width = 637;
}
);
note = d;
unicode = 0064;
},
{
glyphname = e;
lastChange = "2018-02-22 16:31:54 +0000";
layers = (
{
anchors = (
{
name = bottom;
position = "{317, 0}";
},
{
name = ogonek;
position = "{449, 50}";
},
{
name = top;
position = "{317, 500}";
}
);
layerId = "0B1DFD06-3317-40CA-B510-4969A0718C16";
paths = (
{
closed = 1;
nodes = (
"452 0 OFFCURVE",
"500 73 OFFCURVE",
"531 116 CURVE SMOOTH",
"539 127 OFFCURVE",
"539 135 OFFCURVE",
"530 141 CURVE SMOOTH",
"521 147 OFFCURVE",
"513 146 OFFCURVE",
"509 141 CURVE SMOOTH",
"475 94 OFFCURVE",
"442 31 OFFCURVE",
"322 31 CURVE SMOOTH",
"192 31 OFFCURVE",
"99 115 OFFCURVE",
"101 250 CURVE",
"267 255 OFFCURVE",
"345 262 OFFCURVE",
"528 262 CURVE SMOOTH",
"559 262 OFFCURVE",
"551 288 OFFCURVE",
"551 314 CURVE SMOOTH",
"551 411 OFFCURVE",
"459 512 OFFCURVE",
"320 512 CURVE SMOOTH",
"161 512 OFFCURVE",
"70 385 OFFCURVE",
"70 253 CURVE SMOOTH",
"70 129 OFFCURVE",
"151 0 OFFCURVE",
"317 0 CURVE SMOOTH"
);
},
{
closed = 1;
nodes = (
"102 367 OFFCURVE",
"182 481 OFFCURVE",
"322 481 CURVE SMOOTH",
"445 481 OFFCURVE",
"528 399 OFFCURVE",
"523 292 CURVE",
"346 291 OFFCURVE",
"265 287 OFFCURVE",
"101 279 CURVE"
);
}
);
width = 634;
},
{
anchors = (
{
name = bottom;
position = "{309, 0}";
},
{
name = ogonek;
position = "{470, 89}";
},
{
name = top;
position = "{308, 500}";
}
);
layerId = "2F8C22CF-EC86-44F4-AF1A-A6C7F26A0C3C";
paths = (
{
closed = 1;
nodes = (
"447 -10 OFFCURVE",
"495 47 OFFCURVE",
"520 80 CURVE SMOOTH",
"545 113 OFFCURVE",
"526 145 OFFCURVE",
"508 158 CURVE SMOOTH",
"482 177 OFFCURVE",
"450 176 OFFCURVE",
"430 155 CURVE SMOOTH",
"393 115 OFFCURVE",
"365 105 OFFCURVE",
"313 105 CURVE SMOOTH",
"206 105 OFFCURVE",
"175 171 OFFCURVE",
"175 210 CURVE",
"318 214 OFFCURVE",
"336 212 OFFCURVE",
"488 212 CURVE SMOOTH",
"547 212 OFFCURVE",
"556 242 OFFCURVE",
"556 305 CURVE SMOOTH",
"556 420 OFFCURVE",
"450 515 OFFCURVE",
"312 515 CURVE SMOOTH",
"156 515 OFFCURVE",
"40 403 OFFCURVE",
"40 253 CURVE SMOOTH",
"40 105 OFFCURVE",
"153 -10 OFFCURVE",
"309 -10 CURVE SMOOTH"
);
},
{
closed = 1;
nodes = (
"185 347 OFFCURVE",
"227 403 OFFCURVE",
"305 403 CURVE SMOOTH",
"384 403 OFFCURVE",
"428 359 OFFCURVE",
"428 306 CURVE",
"359 308 OFFCURVE",
"286 309 OFFCURVE",
"185 304 CURVE"
);
}
);
width = 596;
}
);
note = e;
unicode = 0065;
},
{
glyphname = f;
lastChange = "2018-02-21 13:48:58 +0000";
layers = (
{
anchors = (
{
name = bottom;
position = "{181, 0}";
},
{
name = top;
position = "{244, 740}";
}
);
layerId = "0B1DFD06-3317-40CA-B510-4969A0718C16";
paths = (
{
closed = 1;
nodes = (
"136 0 OFFCURVE",
"140 5 OFFCURVE",
"140 17 CURVE SMOOTH",
"140 273 OFFCURVE",
"133 362 OFFCURVE",
"133 534 CURVE SMOOTH",
"133 689 OFFCURVE",
"188 709 OFFCURVE",
"244 709 CURVE SMOOTH",
"304 709 OFFCURVE",
"330 658 OFFCURVE",
"330 593 CURVE SMOOTH",
"330 584 OFFCURVE",
"331 571 OFFCURVE",
"346 571 CURVE SMOOTH",
"360 571 OFFCURVE",
"362 579 OFFCURVE",
"362 595 CURVE SMOOTH",
"362 699 OFFCURVE",
"299 740 OFFCURVE",
"244 740 CURVE SMOOTH",
"130 740 OFFCURVE",
"102 641 OFFCURVE",
"103 534 CURVE SMOOTH",
"105 366 OFFCURVE",
"109 277 OFFCURVE",
"111 17 CURVE SMOOTH",
"111 8 OFFCURVE",
"113 0 OFFCURVE",
"126 0 CURVE SMOOTH"
);
},
{
closed = 1;
nodes = (
"111 360 OFFCURVE",
"150 361 OFFCURVE",
"235 362 CURVE SMOOTH",
"247 362 OFFCURVE",
"252 367 OFFCURVE",
"252 376 CURVE SMOOTH",
"252 387 OFFCURVE",
"245 389 OFFCURVE",
"234 389 CURVE SMOOTH",
"174 389 OFFCURVE",
"94 386 OFFCURVE",
"24 384 CURVE SMOOTH",
"10 384 OFFCURVE",
"5 380 OFFCURVE",
"5 369 CURVE SMOOTH",
"5 360 OFFCURVE",
"12 357 OFFCURVE",
"23 357 CURVE"
);
}
);
width = 362;
},
{
anchors = (
{
name = bottom;
position = "{135, 0}";
},
{
name = top;
position = "{236, 726}";
}
);
layerId = "2F8C22CF-EC86-44F4-AF1A-A6C7F26A0C3C";
paths = (
{
closed = 1;
nodes = (
"176 14 OFFCURVE",
"207 36 OFFCURVE",
"206 73 CURVE SMOOTH",
"201 290 OFFCURVE",
"199 361 OFFCURVE",
"200 514 CURVE SMOOTH",
"201 602 OFFCURVE",
"207 615 OFFCURVE",
"226 615 CURVE SMOOTH",
"241 615 OFFCURVE",
"248 613 OFFCURVE",
"248 559 CURVE SMOOTH",
"248 522 OFFCURVE",
"278 498 OFFCURVE",
"321 498 CURVE SMOOTH",
"367 498 OFFCURVE",
"394 521 OFFCURVE",
"394 565 CURVE SMOOTH",
"394 669 OFFCURVE",
"338 726 OFFCURVE",
"236 726 CURVE SMOOTH",
"118 726 OFFCURVE",
"52 657 OFFCURVE",
"55 516 CURVE SMOOTH",
"58 353 OFFCURVE",
"57 273 OFFCURVE",
"63 71 CURVE SMOOTH",
"64 37 OFFCURVE",
"93 14 OFFCURVE",
"135 14 CURVE SMOOTH"
);
},
{
closed = 1;
nodes = (
"116 317 OFFCURVE",
"196 321 OFFCURVE",
"249 321 CURVE SMOOTH",
"285 321 OFFCURVE",
"301 343 OFFCURVE",
"301 375 CURVE SMOOTH",
"301 406 OFFCURVE",
"286 425 OFFCURVE",
"251 428 CURVE SMOOTH",
"222 430 OFFCURVE",
"60 430 OFFCURVE",
"33 428 CURVE SMOOTH",
"-18 424 OFFCURVE",
"-27 400 OFFCURVE",
"-27 375 CURVE SMOOTH",
"-27 330 OFFCURVE",
"2 317 OFFCURVE",
"38 317 CURVE SMOOTH"
);
}
);
width = 362;
}
);
note = f;
unicode = 0066;
},
{
glyphname = g;
lastChange = "2018-02-21 13:49:08 +0000";
layers = (
{
anchors = (
{
name = bottom;
position = "{285, 0}";
},
{
name = top;
position = "{285, 500}";
}
);
layerId = "0B1DFD06-3317-40CA-B510-4969A0718C16";
paths = (
{
closed = 1;
nodes = (
"444 -279 OFFCURVE",
"524 -181 OFFCURVE",
"524 -32 CURVE SMOOTH",
"524 11 OFFCURVE",
"515 61 OFFCURVE",
"500 171 CURVE SMOOTH",
"486 276 OFFCURVE",
"470 374 OFFCURVE",
"464 441 CURVE",
"469 461 OFFCURVE",
"480 501 OFFCURVE",
"483 513 CURVE SMOOTH",
"485 523 OFFCURVE",
"480 527 OFFCURVE",
"471 530 CURVE SMOOTH",
"464 532 OFFCURVE",
"457 531 OFFCURVE",
"453 519 CURVE SMOOTH",
"445 494 OFFCURVE",
"437 465 OFFCURVE",
"427 430 CURVE",
"448 430 LINE",
"419 488 OFFCURVE",
"343 508 OFFCURVE",
"282 508 CURVE SMOOTH",
"129 508 OFFCURVE",
"50 385 OFFCURVE",
"50 260 CURVE SMOOTH",
"50 148 OFFCURVE",
"122 10 OFFCURVE",
"279 10 CURVE SMOOTH",
"338 10 OFFCURVE",
"452 49 OFFCURVE",
"486 125 CURVE",
"471 125 LINE",
"478 97 OFFCURVE",
"490 4 OFFCURVE",
"490 -31 CURVE SMOOTH",
"490 -162 OFFCURVE",
"424 -247 OFFCURVE",
"289 -247 CURVE SMOOTH",
"186 -247 OFFCURVE",
"147 -188 OFFCURVE",
"130 -120 CURVE SMOOTH",
"128 -110 OFFCURVE",
"117 -108 OFFCURVE",
"109 -110 CURVE SMOOTH",
"99 -112 OFFCURVE",
"95 -118 OFFCURVE",
"99 -135 CURVE SMOOTH",
"118 -217 OFFCURVE",
"175 -279 OFFCURVE",
"294 -279 CURVE SMOOTH"
);
},
{
closed = 1;
nodes = (
"159 41 OFFCURVE",
"81 143 OFFCURVE",
"81 256 CURVE SMOOTH",
"81 373 OFFCURVE",
"164 477 OFFCURVE",
"281 477 CURVE SMOOTH",
"328 477 OFFCURVE",
"408 467 OFFCURVE",
"433 405 CURVE",
"443 343 OFFCURVE",
"458 247 OFFCURVE",
"467 160 CURVE",
"460 106 OFFCURVE",
"366 41 OFFCURVE",
"275 41 CURVE SMOOTH"
);
}
);
width = 570;
},
{
anchors = (
{
name = bottom;
position = "{297, -250}";
},
{
name = top;
position = "{279, 500}";
}
);
layerId = "2F8C22CF-EC86-44F4-AF1A-A6C7F26A0C3C";
paths = (
{
closed = 1;
nodes = (
"444 -260 OFFCURVE",
"543 -160 OFFCURVE",
"543 -8 CURVE SMOOTH",
"543 30 OFFCURVE",
"536 95 OFFCURVE",
"528 160 CURVE SMOOTH",
"516 249 OFFCURVE",
"501 340 OFFCURVE",
"496 397 CURVE",
"503 412 OFFCURVE",
"510 436 OFFCURVE",
"514 450 CURVE SMOOTH",
"519 466 OFFCURVE",
"497 497 OFFCURVE",
"461 509 CURVE SMOOTH",
"429 519 OFFCURVE",
"401 512 OFFCURVE",
"391 492 CURVE SMOOTH",
"380 470 OFFCURVE",
"374 460 OFFCURVE",
"358 427 CURVE",
"407 427 LINE",
"381 455 OFFCURVE",
"353 492 OFFCURVE",
"282 492 CURVE SMOOTH",
"134 492 OFFCURVE",
"27 386 OFFCURVE",
"27 240 CURVE SMOOTH",
"27 92 OFFCURVE",
"126 -15 OFFCURVE",
"267 -15 CURVE SMOOTH",
"352 -15 OFFCURVE",
"397 10 OFFCURVE",
"436 62 CURVE",
"396 76 LINE",
"399 43 OFFCURVE",
"400 16 OFFCURVE",
"400 -8 CURVE SMOOTH",
"400 -114 OFFCURVE",
"364 -149 OFFCURVE",
"292 -149 CURVE SMOOTH",
"216 -149 OFFCURVE",
"201 -104 OFFCURVE",
"190 -68 CURVE SMOOTH",
"183 -45 OFFCURVE",
"168 -26 OFFCURVE",
"126 -32 CURVE SMOOTH",
"81 -40 OFFCURVE",
"65 -64 OFFCURVE",
"70 -105 CURVE SMOOTH",
"82 -205 OFFCURVE",
"175 -260 OFFCURVE",
"293 -260 CURVE SMOOTH"
);
},
{
closed = 1;
nodes = (
"219 96 OFFCURVE",
"171 158 OFFCURVE",
"171 236 CURVE SMOOTH",
"171 317 OFFCURVE",
"222 381 OFFCURVE",
"282 381 CURVE SMOOTH",
"321 381 OFFCURVE",
"343 367 OFFCURVE",
"358 345 CURVE",
"370 270 OFFCURVE",
"374 235 OFFCURVE",
"380 152 CURVE",
"374 124 OFFCURVE",
"322 96 OFFCURVE",
"277 96 CURVE SMOOTH"
);
}
);
width = 570;
}
);
note = g;
unicode = 0067;
},
{
glyphname = h;
lastChange = "2018-02-22 14:58:48 +0000";
layers = (
{
anchors = (
{
name = bottom;
position = "{276, 0}";
},
{
name = center;
position = "{276, 250}";
},
{
name = top;
position = "{145, 810}";
}
);
layerId = "0B1DFD06-3317-40CA-B510-4969A0718C16";
paths = (
{
closed = 1;
nodes = (
"507 -2 OFFCURVE",
"513 3 OFFCURVE",
"513 12 CURVE SMOOTH",
"513 335 OFFCURVE",
"510 510 OFFCURVE",
"331 510 CURVE SMOOTH",
"193 510 OFFCURVE",
"134 406 OFFCURVE",
"125 357 CURVE",
"136 357 LINE",
"145 546 OFFCURVE",
"149 653 OFFCURVE",
"157 789 CURVE SMOOTH",
"158 801 OFFCURVE",
"155 810 OFFCURVE",
"145 810 CURVE SMOOTH",
"135 810 OFFCURVE",
"130 805 OFFCURVE",
"129 788 CURVE SMOOTH",
"121 655 OFFCURVE",
"115 546 OFFCURVE",
"111 408 CURVE SMOOTH",
"108 301 OFFCURVE",
"106 179 OFFCURVE",
"106 12 CURVE SMOOTH",
"106 4 OFFCURVE",
"110 -1 OFFCURVE",
"121 -1 CURVE SMOOTH",
"130 -1 OFFCURVE",
"134 4 OFFCURVE",
"134 11 CURVE SMOOTH",
"134 161 OFFCURVE",
"132 250 OFFCURVE",
"144 321 CURVE SMOOTH",
"158 406 OFFCURVE",
"238 479 OFFCURVE",
"332 479 CURVE SMOOTH",
"476 479 OFFCURVE",
"482 300 OFFCURVE",
"482 13 CURVE SMOOTH",
"482 3 OFFCURVE",
"487 -2 OFFCURVE",
"498 -2 CURVE SMOOTH"
);
}
);
width = 552;
},
{
anchors = (
{
name = bottom;
position = "{307, 0}";
},
{
name = center;
position = "{307, 261}";
},
{
name = top;
position = "{171, 790}";
}
);
layerId = "2F8C22CF-EC86-44F4-AF1A-A6C7F26A0C3C";
paths = (
{
closed = 1;
nodes = (
"509 4 OFFCURVE",
"541 26 OFFCURVE",
"541 58 CURVE SMOOTH",
"541 319 OFFCURVE",
"538 522 OFFCURVE",
"336 522 CURVE SMOOTH",
"237 522 OFFCURVE",
"194 434 OFFCURVE",
"183 411 CURVE",
"217 411 LINE",
"227 534 OFFCURVE",
"224 600 OFFCURVE",
"235 721 CURVE SMOOTH",
"238 755 OFFCURVE",
"209 776 OFFCURVE",
"171 776 CURVE SMOOTH",
"124 776 OFFCURVE",
"99 751 OFFCURVE",
"97 717 CURVE SMOOTH",
"91 614 OFFCURVE",
"85 526 OFFCURVE",
"83 438 CURVE SMOOTH",
"80 324 OFFCURVE",
"78 209 OFFCURVE",
"78 56 CURVE SMOOTH",
"78 26 OFFCURVE",
"111 4 OFFCURVE",
"150 4 CURVE SMOOTH",
"189 4 OFFCURVE",
"223 25 OFFCURVE",
"223 55 CURVE SMOOTH",
"223 215 OFFCURVE",
"218 263 OFFCURVE",
"227 313 CURVE SMOOTH",
"239 378 OFFCURVE",
"289 411 OFFCURVE",
"327 411 CURVE SMOOTH",
"389 411 OFFCURVE",
"390 323 OFFCURVE",
"396 65 CURVE SMOOTH",
"397 24 OFFCURVE",
"430 4 OFFCURVE",
"469 4 CURVE SMOOTH"
);
}
);
width = 581;
}
);
note = h;
unicode = 0068;
},
{
glyphname = i;
lastChange = "2018-02-21 13:49:20 +0000";
layers = (
{
anchors = (
{
name = bottom;
position = "{142, 0}";
}
);
layerId = "0B1DFD06-3317-40CA-B510-4969A0718C16";
paths = (
{
closed = 1;
nodes = (
"160 6 OFFCURVE",
"165 11 OFFCURVE",
"165 22 CURVE SMOOTH",
"179 484 LINE SMOOTH",
"179 499 OFFCURVE",
"173 504 OFFCURVE",
"162 504 CURVE SMOOTH",
"152 504 OFFCURVE",
"146 499 OFFCURVE",
"146 484 CURVE SMOOTH",
"136 21 LINE SMOOTH",
"136 11 OFFCURVE",
"141 6 OFFCURVE",
"151 6 CURVE SMOOTH"
);
},
{
closed = 1;
nodes = (
"192 595 OFFCURVE",
"213 611 OFFCURVE",
"213 640 CURVE SMOOTH",
"213 665 OFFCURVE",
"195 684 OFFCURVE",
"170 684 CURVE SMOOTH",
"143 684 OFFCURVE",
"124 663 OFFCURVE",
"124 638 CURVE SMOOTH",
"124 613 OFFCURVE",
"144 595 OFFCURVE",
"168 595 CURVE SMOOTH"
);
}
);
width = 284;
},
{
anchors = (
{
name = bottom;
position = "{155, 0}";
}
);
layerId = "2F8C22CF-EC86-44F4-AF1A-A6C7F26A0C3C";
paths = (
{
closed = 1;
nodes = (
"196 15 OFFCURVE",
"224 36 OFFCURVE",
"225 73 CURVE SMOOTH",
"237 432 LINE SMOOTH",
"238 470 OFFCURVE",
"205 492 OFFCURVE",
"163 492 CURVE SMOOTH",
"121 492 OFFCURVE",
"91 470 OFFCURVE",
"90 434 CURVE SMOOTH",
"82 74 LINE SMOOTH",
"81 37 OFFCURVE",
"113 15 OFFCURVE",
"155 15 CURVE SMOOTH"
);
},
{
closed = 1;
nodes = (
"223 522 OFFCURVE",
"262 560 OFFCURVE",
"262 614 CURVE SMOOTH",
"262 663 OFFCURVE",
"223 700 OFFCURVE",
"170 700 CURVE SMOOTH",
"116 700 OFFCURVE",
"76 664 OFFCURVE",
"76 612 CURVE SMOOTH",
"76 561 OFFCURVE",
"116 522 OFFCURVE",
"168 522 CURVE SMOOTH"
);
}
);
width = 338;
}
);
note = i;
unicode = 0069;
},
{
glyphname = j;
lastChange = "2018-02-05 17:18:14 +0000";
layers = (
{
layerId = "0B1DFD06-3317-40CA-B510-4969A0718C16";
paths = (
{
closed = 1;
nodes = (
"116 -236 OFFCURVE",
"185 -153 OFFCURVE",
"188 23 CURVE SMOOTH",
"190 156 OFFCURVE",
"193 296 OFFCURVE",
"196 482 CURVE SMOOTH",
"196 493 OFFCURVE",
"189 498 OFFCURVE",
"180 498 CURVE SMOOTH",
"171 498 OFFCURVE",
"165 492 OFFCURVE",
"165 483 CURVE SMOOTH",
"162 291 OFFCURVE",
"161 156 OFFCURVE",
"157 23 CURVE SMOOTH",
"153 -117 OFFCURVE",
"110 -206 OFFCURVE",
"28 -206 CURVE SMOOTH",
"-15 -206 OFFCURVE",
"-62 -178 OFFCURVE",
"-62 -99 CURVE SMOOTH",
"-62 -87 OFFCURVE",
"-66 -79 OFFCURVE",
"-79 -79 CURVE SMOOTH",
"-91 -79 OFFCURVE",
"-94 -85 OFFCURVE",
"-94 -103 CURVE SMOOTH",
"-94 -184 OFFCURVE",
"-36 -236 OFFCURVE",
"31 -236 CURVE SMOOTH"
);
},
{
closed = 1;
nodes = (
"204 594 OFFCURVE",
"226 610 OFFCURVE",
"226 638 CURVE SMOOTH",
"226 664 OFFCURVE",
"208 683 OFFCURVE",
"183 683 CURVE SMOOTH",
"156 683 OFFCURVE",
"137 662 OFFCURVE",
"137 637 CURVE SMOOTH",
"137 612 OFFCURVE",
"157 594 OFFCURVE",
"181 594 CURVE SMOOTH"
);
}
);
width = 284;
},
{
layerId = "2F8C22CF-EC86-44F4-AF1A-A6C7F26A0C3C";
paths = (
{
closed = 1;
nodes = (
"155 -208 OFFCURVE",
"225 -109 OFFCURVE",
"229 53 CURVE SMOOTH",
"233 198 OFFCURVE",
"233 284 OFFCURVE",
"233 448 CURVE SMOOTH",
"233 476 OFFCURVE",
"204 499 OFFCURVE",
"163 499 CURVE SMOOTH",
"122 499 OFFCURVE",
"91 478 OFFCURVE",
"91 452 CURVE SMOOTH",
"91 284 OFFCURVE",
"89 206 OFFCURVE",
"85 54 CURVE SMOOTH",
"83 -37 OFFCURVE",
"75 -96 OFFCURVE",
"46 -96 CURVE SMOOTH",
"25 -96 OFFCURVE",
"9 -79 OFFCURVE",
"9 -40 CURVE SMOOTH",
"9 -9 OFFCURVE",
"-15 10 OFFCURVE",
"-57 10 CURVE SMOOTH",
"-101 10 OFFCURVE",
"-125 -6 OFFCURVE",
"-125 -53 CURVE SMOOTH",
"-125 -142 OFFCURVE",
"-57 -208 OFFCURVE",
"36 -208 CURVE SMOOTH"
);
},
{
closed = 1;
nodes = (
"219 526 OFFCURVE",
"260 562 OFFCURVE",
"260 613 CURVE SMOOTH",
"260 663 OFFCURVE",
"222 699 OFFCURVE",
"169 699 CURVE SMOOTH",
"115 699 OFFCURVE",
"76 661 OFFCURVE",
"76 612 CURVE SMOOTH",
"76 568 OFFCURVE",
"120 526 OFFCURVE",
"167 526 CURVE SMOOTH"
);
}
);
width = 284;
}
);
note = j;
unicode = 006A;
},
{
glyphname = k;
lastChange = "2018-02-21 13:49:36 +0000";
layers = (
{
anchors = (
{
name = bottom;
position = "{263, 0}";
},
{
name = top;
position = "{133, 780}";
}
);
layerId = "0B1DFD06-3317-40CA-B510-4969A0718C16";
paths = (
{
closed = 1;
nodes = (
"140 -3 OFFCURVE",
"147 -1 OFFCURVE",
"147 9 CURVE SMOOTH",
"145 257 LINE",
"266 166 OFFCURVE",
"328 120 OFFCURVE",
"462 17 CURVE SMOOTH",
"469 12 OFFCURVE",
"477 6 OFFCURVE",
"481 6 CURVE SMOOTH",
"489 6 OFFCURVE",
"497 13 OFFCURVE",
"497 23 CURVE SMOOTH",
"497 27 OFFCURVE",
"496 31 OFFCURVE",
"493 33 CURVE SMOOTH",
"150 292 LINE",
"487 501 LINE SMOOTH",
"493 505 OFFCURVE",
"495 508 OFFCURVE",
"495 512 CURVE SMOOTH",
"495 521 OFFCURVE",
"487 528 OFFCURVE",
"482 530 CURVE SMOOTH",
"480 531 OFFCURVE",
"476 530 OFFCURVE",
"472 528 CURVE SMOOTH",
"345 450 OFFCURVE",
"281 409 OFFCURVE",
"145 325 CURVE",
"147 761 LINE SMOOTH",
"147 776 OFFCURVE",
"141 780 OFFCURVE",
"133 780 CURVE SMOOTH",
"119 780 OFFCURVE",
"117 773 OFFCURVE",
"117 761 CURVE SMOOTH",
"116 8 LINE SMOOTH",
"116 -1 OFFCURVE",
"126 -3 OFFCURVE",
"133 -3 CURVE SMOOTH"
);
}
);
width = 525;
},
{
anchors = (
{
name = bottom;
position = "{267, 0}";
},
{
name = top;
position = "{123, 741}";
}
);
layerId = "2F8C22CF-EC86-44F4-AF1A-A6C7F26A0C3C";
paths = (
{
closed = 1;
nodes = (
"164 -8 OFFCURVE",
"194 14 OFFCURVE",
"194 45 CURVE SMOOTH",
"194 165 LINE",
"275 97 OFFCURVE",
"314 60 OFFCURVE",
"367 18 CURVE SMOOTH",
"381 7 OFFCURVE",
"399 0 OFFCURVE",
"418 0 CURVE SMOOTH",
"451 0 OFFCURVE",
"480 21 OFFCURVE",
"480 58 CURVE SMOOTH",
"480 75 OFFCURVE",
"474 92 OFFCURVE",
"465 99 CURVE SMOOTH",
"224 283 LINE",
"456 426 LINE SMOOTH",
"477 439 OFFCURVE",
"491 449 OFFCURVE",
"491 472 CURVE SMOOTH",
"491 503 OFFCURVE",
"466 526 OFFCURVE",
"446 532 CURVE SMOOTH",
"436 535 OFFCURVE",
"413 539 OFFCURVE",
"396 529 CURVE SMOOTH",
"309 476 OFFCURVE",
"279 456 OFFCURVE",
"194 402 CURVE",
"196 682 LINE SMOOTH",
"196 719 OFFCURVE",
"164 741 OFFCURVE",
"123 741 CURVE SMOOTH",
"82 741 OFFCURVE",
"52 719 OFFCURVE",
"52 682 CURVE SMOOTH",
"52 44 LINE SMOOTH",
"52 14 OFFCURVE",
"84 -8 OFFCURVE",
"124 -8 CURVE SMOOTH"
);
}
);
width = 525;
}
);
note = k;
unicode = 006B;
},
{
glyphname = l;
lastChange = "2018-02-21 13:49:51 +0000";
layers = (
{
anchors = (
{
name = bottom;
position = "{107, 0}";
},
{
name = center;
position = "{120, 250}";
},
{
name = top;
position = "{104, 792}";
},
{
name = topright;
position = "{109, 590}";
}
);
layerId = "0B1DFD06-3317-40CA-B510-4969A0718C16";
paths = (
{
closed = 1;
nodes = (
"116 9 OFFCURVE",
"123 16 OFFCURVE",
"123 30 CURVE SMOOTH",
"118 771 LINE SMOOTH",
"118 785 OFFCURVE",
"114 792 OFFCURVE",
"104 792 CURVE SMOOTH",
"93 792 OFFCURVE",
"87 785 OFFCURVE",
"87 771 CURVE SMOOTH",
"93 30 LINE SMOOTH",
"93 16 OFFCURVE",
"98 9 OFFCURVE",
"107 9 CURVE SMOOTH"
);
}
);
width = 239;
},
{
anchors = (
{
name = bottom;
position = "{127, 0}";
},
{
name = center;
position = "{138, 260}";
},
{
name = top;
position = "{124, 775}";
},
{
name = topright;
position = "{168, 633}";
}
);
layerId = "2F8C22CF-EC86-44F4-AF1A-A6C7F26A0C3C";
paths = (
{
closed = 1;
nodes = (
"168 26 OFFCURVE",
"200 51 OFFCURVE",
"200 87 CURVE SMOOTH",
"195 715 LINE SMOOTH",
"195 751 OFFCURVE",
"166 775 OFFCURVE",
"124 775 CURVE SMOOTH",
"82 775 OFFCURVE",
"50 751 OFFCURVE",
"50 714 CURVE SMOOTH",
"56 86 LINE SMOOTH",
"56 50 OFFCURVE",
"85 26 OFFCURVE",
"127 26 CURVE SMOOTH"
);
}
);
width = 250;
}
);
note = l;
unicode = 006C;
},
{
glyphname = m;
lastChange = "2018-02-21 13:50:03 +0000";
layers = (
{
anchors = (
{
name = bottom;
position = "{400, 0}";
},
{
name = top;
position = "{400, 500}";
}
);
layerId = "0B1DFD06-3317-40CA-B510-4969A0718C16";
paths = (
{
closed = 1;
nodes = (
"703 0 OFFCURVE",
"706 9 OFFCURVE",
"706 18 CURVE SMOOTH",
"707 102 OFFCURVE",
"705 183 OFFCURVE",
"706 252 CURVE SMOOTH",
"708 406 OFFCURVE",
"684 517 OFFCURVE",
"560 517 CURVE SMOOTH",
"467 517 OFFCURVE",
"416 447 OFFCURVE",
"413 311 CURVE",
"419 311 LINE",
"408 447 OFFCURVE",
"353 513 OFFCURVE",
"268 513 CURVE SMOOTH",
"209 513 OFFCURVE",
"142 476 OFFCURVE",
"125 311 CURVE",
"128 311 LINE",
"128 423 LINE SMOOTH",
"128 455 OFFCURVE",
"122 470 OFFCURVE",
"107 489 CURVE SMOOTH",
"99 499 OFFCURVE",
"90 502 OFFCURVE",
"85 502 CURVE SMOOTH",
"75 502 OFFCURVE",
"65 494 OFFCURVE",
"65 484 CURVE SMOOTH",
"65 481 OFFCURVE",
"66 478 OFFCURVE",
"68 475 CURVE SMOOTH",
"72 470 OFFCURVE",
"95 462 OFFCURVE",
"96 420 CURVE SMOOTH",
"98 287 OFFCURVE",
"101 157 OFFCURVE",
"101 20 CURVE SMOOTH",
"101 11 OFFCURVE",
"102 3 OFFCURVE",
"117 3 CURVE SMOOTH",
"125 3 OFFCURVE",
"132 8 OFFCURVE",
"132 19 CURVE SMOOTH",
"132 35 OFFCURVE",
"132 51 OFFCURVE",
"132 66 CURVE SMOOTH",
"132 157 OFFCURVE",
"133 230 OFFCURVE",
"143 297 CURVE SMOOTH",
"163 429 OFFCURVE",
"203 483 OFFCURVE",
"266 483 CURVE SMOOTH",
"354 483 OFFCURVE",
"398 380 OFFCURVE",
"399 267 CURVE SMOOTH",
"400 185 OFFCURVE",
"400 96 OFFCURVE",
"400 21 CURVE SMOOTH",
"400 9 OFFCURVE",
"400 2 OFFCURVE",
"415 2 CURVE SMOOTH",
"428 2 OFFCURVE",
"432 8 OFFCURVE",
"432 19 CURVE SMOOTH",
"432 99 OFFCURVE",
"433 183 OFFCURVE",
"434 267 CURVE SMOOTH",
"435 396 OFFCURVE",
"457 487 OFFCURVE",
"564 487 CURVE SMOOTH",
"655 487 OFFCURVE",
"676 403 OFFCURVE",
"676 252 CURVE SMOOTH",
"676 184 OFFCURVE",
"674 99 OFFCURVE",
"674 19 CURVE SMOOTH",
"674 9 OFFCURVE",
"676 0 OFFCURVE",
"690 0 CURVE SMOOTH"
);
}
);
width = 799;
},
{
anchors = (
{
name = bottom;
position = "{443, 0}";
},
{
name = top;
position = "{446, 500}";
}
);
layerId = "2F8C22CF-EC86-44F4-AF1A-A6C7F26A0C3C";
paths = (
{
closed = 1;
nodes = (
"731 0 OFFCURVE",
"761 21 OFFCURVE",
"761 53 CURVE SMOOTH",
"761 139 OFFCURVE",
"763 182 OFFCURVE",
"763 250 CURVE SMOOTH",
"763 397 OFFCURVE",
"714 503 OFFCURVE",
"580 503 CURVE SMOOTH",
"489 503 OFFCURVE",
"425 444 OFFCURVE",
"414 350 CURVE",
"458 350 LINE",
"446 424 OFFCURVE",
"425 500 OFFCURVE",
"320 500 CURVE SMOOTH",
"215 500 OFFCURVE",
"182 401 OFFCURVE",
"176 355 CURVE",
"214 354 LINE",
"210 386 LINE SMOOTH",
"207 407 OFFCURVE",
"190 450 OFFCURVE",
"177 463 CURVE SMOOTH",
"161 479 OFFCURVE",
"143 491 OFFCURVE",
"127 491 CURVE SMOOTH",
"97 491 OFFCURVE",
"69 472 OFFCURVE",
"69 435 CURVE SMOOTH",
"69 422 OFFCURVE",
"77 416 OFFCURVE",
"85 408 CURVE SMOOTH",
"98 395 OFFCURVE",
"101 384 OFFCURVE",
"101 353 CURVE SMOOTH",
"101 234 OFFCURVE",
"101 150 OFFCURVE",
"101 49 CURVE SMOOTH",
"101 17 OFFCURVE",
"133 2 OFFCURVE",
"166 1 CURVE SMOOTH",
"201 0 OFFCURVE",
"237 16 OFFCURVE",
"237 48 CURVE SMOOTH",
"237 62 OFFCURVE",
"237 84 OFFCURVE",
"237 123 CURVE SMOOTH",
"237 211 OFFCURVE",
"233 244 OFFCURVE",
"243 289 CURVE SMOOTH",
"259 361 OFFCURVE",
"288 393 OFFCURVE",
"312 393 CURVE SMOOTH",
"351 393 OFFCURVE",
"370 353 OFFCURVE",
"370 258 CURVE SMOOTH",
"370 182 OFFCURVE",
"370 148 OFFCURVE",
"370 58 CURVE SMOOTH",
"370 22 OFFCURVE",
"396 2 OFFCURVE",
"443 2 CURVE SMOOTH",
"482 2 OFFCURVE",
"510 15 OFFCURVE",
"510 72 CURVE SMOOTH",
"510 149 OFFCURVE",
"509 183 OFFCURVE",
"510 258 CURVE SMOOTH",
"511 356 OFFCURVE",
"539 398 OFFCURVE",
"566 398 CURVE SMOOTH",
"605 398 OFFCURVE",
"623 358 OFFCURVE",
"623 250 CURVE SMOOTH",
"623 183 OFFCURVE",
"621 146 OFFCURVE",
"621 57 CURVE SMOOTH",
"621 20 OFFCURVE",
"651 0 OFFCURVE",
"691 0 CURVE SMOOTH"
);
}
);
width = 839;
}
);
note = m;
unicode = 006D;
},
{
glyphname = n;
lastChange = "2018-02-05 17:18:34 +0000";
layers = (
{
anchors = (
{
name = bottom;
position = "{270, 0}";
},
{
name = top;
position = "{270, 500}";
}
);
layerId = "0B1DFD06-3317-40CA-B510-4969A0718C16";
paths = (
{
closed = 1;
nodes = (
"128 2 OFFCURVE",
"134 9 OFFCURVE",
"134 21 CURVE SMOOTH",
"134 151 OFFCURVE",
"124 192 OFFCURVE",
"139 284 CURVE SMOOTH",
"161 425 OFFCURVE",
"211 476 OFFCURVE",
"291 476 CURVE SMOOTH",
"422 476 OFFCURVE",
"431 366 OFFCURVE",
"431 272 CURVE SMOOTH",
"431 20 LINE SMOOTH",
"431 12 OFFCURVE",
"434 3 OFFCURVE",
"447 3 CURVE SMOOTH",
"460 3 OFFCURVE",
"462 11 OFFCURVE",
"462 20 CURVE SMOOTH",
"462 271 LINE SMOOTH",
"462 441 OFFCURVE",
"409 507 OFFCURVE",
"293 507 CURVE SMOOTH",
"173 507 OFFCURVE",
"119 392 OFFCURVE",
"119 299 CURVE",
"125 299 LINE",
"125 419 LINE SMOOTH",
"125 432 OFFCURVE",
"104 474 OFFCURVE",
"95 488 CURVE SMOOTH",
"88 499 OFFCURVE",
"81 502 OFFCURVE",
"73 499 CURVE SMOOTH",
"58 493 OFFCURVE",
"62 480 OFFCURVE",
"65 474 CURVE SMOOTH",
"76 453 OFFCURVE",
"93 423 OFFCURVE",
"93 409 CURVE SMOOTH",
"98 239 OFFCURVE",
"100 200 OFFCURVE",
"104 14 CURVE SMOOTH",
"104 6 OFFCURVE",
"110 2 OFFCURVE",
"118 2 CURVE SMOOTH"
);
}
);
width = 540;
},
{
anchors = (
{
name = bottom;
position = "{282, 0}";
},
{
name = top;
position = "{282, 500}";
}
);
layerId = "2F8C22CF-EC86-44F4-AF1A-A6C7F26A0C3C";
paths = (
{
closed = 1;
nodes = (
"181 -2 OFFCURVE",
"213 22 OFFCURVE",
"213 57 CURVE SMOOTH",
"213 168 OFFCURVE",
"207 201 OFFCURVE",
"219 273 CURVE SMOOTH",
"235 378 OFFCURVE",
"259 400 OFFCURVE",
"294 400 CURVE SMOOTH",
"338 400 OFFCURVE",
"360 369 OFFCURVE",
"360 269 CURVE SMOOTH",
"360 56 LINE SMOOTH",
"360 22 OFFCURVE",
"392 -1 OFFCURVE",
"433 -1 CURVE SMOOTH",
"475 -1 OFFCURVE",
"505 22 OFFCURVE",
"505 56 CURVE SMOOTH",
"505 268 LINE SMOOTH",
"505 432 OFFCURVE",
"435 511 OFFCURVE",
"296 511 CURVE SMOOTH",
"194 511 OFFCURVE",
"154 410 OFFCURVE",
"154 372 CURVE",
"186 372 LINE",
"186 392 LINE SMOOTH",
"186 434 OFFCURVE",
"170 458 OFFCURVE",
"145 483 CURVE SMOOTH",
"117 511 OFFCURVE",
"95 512 OFFCURVE",
"68 501 CURVE SMOOTH",
"42 490 OFFCURVE",
"21 462 OFFCURVE",
"37 431 CURVE SMOOTH",
"48 410 OFFCURVE",
"61 396 OFFCURVE",
"62 375 CURVE SMOOTH",
"68 274 OFFCURVE",
"69 191 OFFCURVE",
"69 51 CURVE SMOOTH",
"69 18 OFFCURVE",
"101 -2 OFFCURVE",
"140 -2 CURVE SMOOTH"
);
}
);
width = 564;
}
);
note = n;
unicode = 006E;
},
{
glyphname = o;
lastChange = "2018-02-22 15:51:46 +0000";
layers = (
{
anchors = (
{
name = bottom;
position = "{292, 0}";
},
{
name = center;
position = "{292, 250}";
},
{
name = ogonek;
position = "{317, 10}";
},
{
name = top;
position = "{292, 500}";
},
{
name = topright;
position = "{519, 338}";
}
);
layerId = "0B1DFD06-3317-40CA-B510-4969A0718C16";
paths = (
{
closed = 1;
nodes = (
"431 0 OFFCURVE",
"545 77 OFFCURVE",
"545 242 CURVE SMOOTH",
"545 433 OFFCURVE",
"424 515 OFFCURVE",
"294 515 CURVE SMOOTH",
"127 515 OFFCURVE",
"40 411 OFFCURVE",
"40 237 CURVE SMOOTH",
"40 56 OFFCURVE",
"180 0 OFFCURVE",
"287 0 CURVE SMOOTH"
);
},
{
closed = 1;
nodes = (
"195 31 OFFCURVE",
"71 87 OFFCURVE",
"71 237 CURVE SMOOTH",
"71 400 OFFCURVE",
"157 484 OFFCURVE",
"294 484 CURVE SMOOTH",
"402 484 OFFCURVE",
"514 413 OFFCURVE",
"514 242 CURVE SMOOTH",
"514 102 OFFCURVE",
"406 31 OFFCURVE",
"287 31 CURVE SMOOTH"
);
}
);
width = 583;
},
{
anchors = (
{
name = bottom;
position = "{293, 0}";
},
{
name = center;
position = "{292, 238}";
},
{
name = ogonek;
position = "{366, 18}";
},
{
name = top;
position = "{292, 500}";
},
{
name = topright;
position = "{519, 346}";
}
);
layerId = "2F8C22CF-EC86-44F4-AF1A-A6C7F26A0C3C";
paths = (
{
closed = 1;
nodes = (
"459 -3 OFFCURVE",
"566 85 OFFCURVE",
"566 243 CURVE SMOOTH",
"566 403 OFFCURVE",
"457 518 OFFCURVE",
"290 518 CURVE SMOOTH",
"122 518 OFFCURVE",
"19 407 OFFCURVE",
"19 250 CURVE SMOOTH",
"19 87 OFFCURVE",
"129 -3 OFFCURVE",
"293 -3 CURVE SMOOTH"
);
},
{
closed = 1;
nodes = (
"214 108 OFFCURVE",
"164 152 OFFCURVE",
"164 250 CURVE SMOOTH",
"164 344 OFFCURVE",
"210 407 OFFCURVE",
"289 407 CURVE SMOOTH",
"378 407 OFFCURVE",
"421 327 OFFCURVE",
"421 243 CURVE SMOOTH",
"421 154 OFFCURVE",
"373 108 OFFCURVE",
"293 108 CURVE SMOOTH"
);
}
);
width = 585;
}
);
note = o;
unicode = 006F;
},
{
glyphname = p;
lastChange = "2018-02-22 14:56:13 +0000";
layers = (
{
anchors = (
{
name = bottom;
position = "{76, -224}";
},
{
name = top;
position = "{305, 500}";
}
);
layerId = "0B1DFD06-3317-40CA-B510-4969A0718C16";
paths = (
{
closed = 1;
nodes = (
"89 -224 OFFCURVE",
"93 -218 OFFCURVE",
"94 -207 CURVE SMOOTH",
"100 -93 OFFCURVE",
"100 -42 OFFCURVE",
"105 70 CURVE",
"124 49 OFFCURVE",
"213 2 OFFCURVE",
"295 2 CURVE SMOOTH",
"455 2 OFFCURVE",
"555 89 OFFCURVE",
"555 257 CURVE SMOOTH",
"555 480 OFFCURVE",
"377 513 OFFCURVE",
"304 513 CURVE SMOOTH",
"203 513 OFFCURVE",
"103 420 OFFCURVE",
"104 397 CURVE",
"107 397 LINE",
"109 445 OFFCURVE",
"64 492 OFFCURVE",
"53 492 CURVE SMOOTH",
"46 492 OFFCURVE",
"39 490 OFFCURVE",
"35 486 CURVE SMOOTH",
"29 481 OFFCURVE",
"29 474 OFFCURVE",
"35 468 CURVE SMOOTH",
"58 444 OFFCURVE",
"75 417 OFFCURVE",
"75 359 CURVE SMOOTH",
"75 187 OFFCURVE",
"73 118 OFFCURVE",
"72 33 CURVE SMOOTH",
"71 -35 OFFCURVE",
"68 -96 OFFCURVE",
"64 -206 CURVE SMOOTH",
"63 -221 OFFCURVE",
"71 -224 OFFCURVE",
"76 -224 CURVE SMOOTH"
);
},
{
closed = 1;
nodes = (
"227 33 OFFCURVE",
"130 64 OFFCURVE",
"105 117 CURVE",
"106 201 OFFCURVE",
"107 235 OFFCURVE",
"107 333 CURVE",
"107 391 OFFCURVE",
"209 482 OFFCURVE",
"311 482 CURVE SMOOTH",
"393 482 OFFCURVE",
"524 431 OFFCURVE",
"524 258 CURVE SMOOTH",
"524 117 OFFCURVE",
"438 33 OFFCURVE",
"301 33 CURVE SMOOTH"
);
}
);
width = 609;
},
{
anchors = (
{
name = bottom;
position = "{125, -210}";
},
{
name = top;
position = "{322, 500}";
}
);
layerId = "2F8C22CF-EC86-44F4-AF1A-A6C7F26A0C3C";
paths = (
{
closed = 1;
nodes = (
"167 -210 OFFCURVE",
"198 -188 OFFCURVE",
"200 -156 CURVE SMOOTH",
"202 -121 OFFCURVE",
"203 -50 OFFCURVE",
"203 7 CURVE",
"240 -14 OFFCURVE",
"280 -19 OFFCURVE",
"315 -19 CURVE SMOOTH",
"486 -19 OFFCURVE",
"590 79 OFFCURVE",
"590 240 CURVE SMOOTH",
"590 396 OFFCURVE",
"481 499 OFFCURVE",
"318 499 CURVE SMOOTH",
"240 499 OFFCURVE",
"143 425 OFFCURVE",
"152 375 CURVE",
"192 375 LINE",
"189 425 OFFCURVE",
"144 481 OFFCURVE",
"97 481 CURVE SMOOTH",
"81 481 OFFCURVE",
"64 475 OFFCURVE",
"56 467 CURVE SMOOTH",
"30 441 OFFCURVE",
"27 410 OFFCURVE",
"47 389 CURVE SMOOTH",
"59 377 OFFCURVE",
"65 358 OFFCURVE",
"65 326 CURVE SMOOTH",
"65 181 OFFCURVE",
"63 122 OFFCURVE",
"62 51 CURVE SMOOTH",
"61 -7 OFFCURVE",
"59 -58 OFFCURVE",
"56 -150 CURVE SMOOTH",
"53 -186 OFFCURVE",
"84 -210 OFFCURVE",
"125 -210 CURVE SMOOTH"
);
},
{
closed = 1;
nodes = (
"281 92 OFFCURVE",
"215 112 OFFCURVE",
"209 121 CURVE",
"210 192 OFFCURVE",
"210 221 OFFCURVE",
"211 304 CURVE",
"211 337 OFFCURVE",
"276 388 OFFCURVE",
"324 388 CURVE SMOOTH",
"396 388 OFFCURVE",
"445 331 OFFCURVE",
"445 241 CURVE SMOOTH",
"445 145 OFFCURVE",
"400 92 OFFCURVE",
"316 92 CURVE SMOOTH"
);
}
);
width = 610;
}
);
note = p;
unicode = 0070;
},
{
glyphname = q;
lastChange = "2018-02-21 13:50:54 +0000";
layers = (
{
anchors = (
{
name = bottom;
position = "{320, 0}";
},
{
name = top;
position = "{320, 500}";
}
);
layerId = "0B1DFD06-3317-40CA-B510-4969A0718C16";
paths = (
{
closed = 1;
nodes = (
"503 -237 OFFCURVE",
"509 -233 OFFCURVE",
"509 -223 CURVE SMOOTH",
"509 -164 OFFCURVE",
"510 -120 OFFCURVE",
"512 -45 CURVE SMOOTH",
"516 88 OFFCURVE",
"515 173 OFFCURVE",
"521 368 CURVE",
"537 403 OFFCURVE",
"555 430 OFFCURVE",
"570 455 CURVE SMOOTH",
"573 460 OFFCURVE",
"574 464 OFFCURVE",
"573 467 CURVE SMOOTH",
"571 474 OFFCURVE",
"562 479 OFFCURVE",
"554 479 CURVE SMOOTH",
"549 479 OFFCURVE",
"546 476 OFFCURVE",
"543 471 CURVE SMOOTH",
"533 454 OFFCURVE",
"513 425 OFFCURVE",
"493 389 CURVE",
"507 389 LINE",
"467 463 OFFCURVE",
"371 512 OFFCURVE",
"283 512 CURVE SMOOTH",
"198 512 OFFCURVE",
"40 462 OFFCURVE",
"40 257 CURVE SMOOTH",
"40 80 OFFCURVE",
"157 1 OFFCURVE",
"285 1 CURVE SMOOTH",
"368 1 OFFCURVE",
"450 35 OFFCURVE",
"485 82 CURVE",
"481 -48 OFFCURVE",
"480 -97 OFFCURVE",
"480 -224 CURVE SMOOTH",
"480 -232 OFFCURVE",
"486 -237 OFFCURVE",
"494 -237 CURVE SMOOTH"
);
},
{
closed = 1;
nodes = (
"176 33 OFFCURVE",
"71 101 OFFCURVE",
"71 256 CURVE SMOOTH",
"71 419 OFFCURVE",
"190 480 OFFCURVE",
"280 480 CURVE SMOOTH",
"371 480 OFFCURVE",
"490 417 OFFCURVE",
"490 309 CURVE",
"489 252 OFFCURVE",
"488 218 OFFCURVE",
"486 131 CURVE",
"443 72 OFFCURVE",
"363 33 OFFCURVE",
"286 33 CURVE SMOOTH"
);
}
);
width = 639;
},
{
anchors = (
{
name = bottom;
position = "{479, -222}";
},
{
name = top;
position = "{300, 500}";
}
);
layerId = "2F8C22CF-EC86-44F4-AF1A-A6C7F26A0C3C";
paths = (
{
closed = 1;
nodes = (
"519 -222 OFFCURVE",
"550 -200 OFFCURVE",
"550 -168 CURVE SMOOTH",
"550 -118 OFFCURVE",
"551 -81 OFFCURVE",
"553 -18 CURVE SMOOTH",
"557 95 OFFCURVE",
"552 167 OFFCURVE",
"557 332 CURVE",
"572 359 OFFCURVE",
"581 371 OFFCURVE",
"590 385 CURVE SMOOTH",
"603 405 OFFCURVE",
"608 415 OFFCURVE",
"602 431 CURVE SMOOTH",
"596 454 OFFCURVE",
"569 474 OFFCURVE",
"536 474 CURVE SMOOTH",
"512 474 OFFCURVE",
"499 455 OFFCURVE",
"489 439 CURVE SMOOTH",
"477 419 OFFCURVE",
"459 397 OFFCURVE",
"445 371 CURVE",
"497 371 LINE",
"458 442 OFFCURVE",
"398 497 OFFCURVE",
"300 497 CURVE SMOOTH",
"144 497 OFFCURVE",
"34 391 OFFCURVE",
"34 239 CURVE SMOOTH",
"34 83 OFFCURVE",
"142 -21 OFFCURVE",
"301 -21 CURVE SMOOTH",
"328 -21 OFFCURVE",
"360 -15 OFFCURVE",
"408 4 CURVE",
"407 -75 OFFCURVE",
"407 -125 OFFCURVE",
"407 -171 CURVE SMOOTH",
"407 -200 OFFCURVE",
"432 -222 OFFCURVE",
"479 -222 CURVE SMOOTH"
);
},
{
closed = 1;
nodes = (
"226 91 OFFCURVE",
"179 146 OFFCURVE",
"179 238 CURVE SMOOTH",
"179 327 OFFCURVE",
"228 385 OFFCURVE",
"297 385 CURVE SMOOTH",
"362 385 OFFCURVE",
"416 339 OFFCURVE",
"416 284 CURVE",
"415 235 OFFCURVE",
"414 206 OFFCURVE",
"412 133 CURVE",
"398 119 OFFCURVE",
"335 91 OFFCURVE",
"302 91 CURVE SMOOTH"
);
}
);
width = 639;
}
);
note = q;
unicode = 0071;
},
{
glyphname = r;
lastChange = "2018-02-21 13:51:22 +0000";
layers = (
{
anchors = (
{
name = bottom;
position = "{109, 0}";
},
{
name = top;
position = "{269, 500}";
}
);
layerId = "0B1DFD06-3317-40CA-B510-4969A0718C16";
paths = (
{
closed = 1;
nodes = (
"120 -7 OFFCURVE",
"125 0 OFFCURVE",
"125 14 CURVE SMOOTH",
"125 74 OFFCURVE",
"124 153 OFFCURVE",
"129 228 CURVE SMOOTH",
"141 392 OFFCURVE",
"188 479 OFFCURVE",
"281 479 CURVE SMOOTH",
"366 479 OFFCURVE",
"383 421 OFFCURVE",
"383 374 CURVE SMOOTH",
"383 317 OFFCURVE",
"340 302 OFFCURVE",
"315 302 CURVE SMOOTH",
"304 302 OFFCURVE",
"297 297 OFFCURVE",
"297 288 CURVE SMOOTH",
"297 274 OFFCURVE",
"306 273 OFFCURVE",
"318 273 CURVE SMOOTH",
"366 273 OFFCURVE",
"414 319 OFFCURVE",
"414 374 CURVE SMOOTH",
"414 439 OFFCURVE",
"389 510 OFFCURVE",
"281 510 CURVE SMOOTH",
"209 510 OFFCURVE",
"107 450 OFFCURVE",
"118 275 CURVE",
"122 275 LINE",
"119 348 OFFCURVE",
"114 408 OFFCURVE",
"110 507 CURVE SMOOTH",
"110 517 OFFCURVE",
"103 524 OFFCURVE",
"93 524 CURVE SMOOTH",
"84 524 OFFCURVE",
"75 519 OFFCURVE",
"75 507 CURVE SMOOTH",
"75 511 OFFCURVE",
"92 308 OFFCURVE",
"92 226 CURVE SMOOTH",
"92 177 OFFCURVE",
"94 74 OFFCURVE",
"94 13 CURVE SMOOTH",
"94 -1 OFFCURVE",
"98 -7 OFFCURVE",
"109 -7 CURVE SMOOTH"
);
}
);
width = 489;
},
{
anchors = (
{
name = bottom;
position = "{131, 0}";
},
{
name = top;
position = "{253, 500}";
}
);
layerId = "2F8C22CF-EC86-44F4-AF1A-A6C7F26A0C3C";
paths = (
{
closed = 1;
nodes = (
"170 -9 OFFCURVE",
"203 12 OFFCURVE",
"203 51 CURVE SMOOTH",
"203 98 OFFCURVE",
"205 158 OFFCURVE",
"210 235 CURVE SMOOTH",
"217 347 OFFCURVE",
"241 406 OFFCURVE",
"296 406 CURVE SMOOTH",
"326 406 OFFCURVE",
"349 394 OFFCURVE",
"349 368 CURVE SMOOTH",
"349 343 OFFCURVE",
"336 318 OFFCURVE",
"299 317 CURVE SMOOTH",
"276 316 OFFCURVE",
"249 308 OFFCURVE",
"250 273 CURVE SMOOTH",
"251 243 OFFCURVE",
"267 228 OFFCURVE",
"303 228 CURVE SMOOTH",
"406 228 OFFCURVE",
"467 274 OFFCURVE",
"467 363 CURVE SMOOTH",
"467 456 OFFCURVE",
"399 514 OFFCURVE",
"320 514 CURVE SMOOTH",
"202 514 OFFCURVE",
"143 391 OFFCURVE",
"143 309 CURVE",
"185 310 LINE",
"184 333 OFFCURVE",
"179 393 OFFCURVE",
"175 456 CURVE SMOOTH",
"173 484 OFFCURVE",
"160 526 OFFCURVE",
"107 526 CURVE SMOOTH",
"67 526 OFFCURVE",
"39 502 OFFCURVE",
"42 469 CURVE SMOOTH",
"53 355 OFFCURVE",
"59 307 OFFCURVE",
"59 231 CURVE SMOOTH",
"59 151 OFFCURVE",
"58 98 OFFCURVE",
"59 50 CURVE SMOOTH",
"60 10 OFFCURVE",
"90 -9 OFFCURVE",
"129 -9 CURVE SMOOTH"
);
}
);
width = 489;
}
);
note = r;
unicode = 0072;
},
{
glyphname = s;
lastChange = "2018-02-22 16:31:18 +0000";
layers = (
{
anchors = (
{
name = bottom;
position = "{237, 0}";
},
{
name = top;
position = "{237, 500}";
}
);
layerId = "0B1DFD06-3317-40CA-B510-4969A0718C16";
paths = (
{
closed = 1;
nodes = (
"339 -2 OFFCURVE",
"397 60 OFFCURVE",
"397 128 CURVE SMOOTH",
"397 284 OFFCURVE",
"95 249 OFFCURVE",
"95 379 CURVE SMOOTH",
"95 410 OFFCURVE",
"112 486 OFFCURVE",
"225 486 CURVE SMOOTH",
"289 486 OFFCURVE",
"353 462 OFFCURVE",
"359 366 CURVE SMOOTH",
"359 361 OFFCURVE",
"360 351 OFFCURVE",
"377 351 CURVE SMOOTH",
"391 351 OFFCURVE",
"390 358 OFFCURVE",
"390 371 CURVE SMOOTH",
"387 463 OFFCURVE",
"319 517 OFFCURVE",
"220 517 CURVE SMOOTH",
"86 517 OFFCURVE",
"65 417 OFFCURVE",
"65 375 CURVE SMOOTH",
"65 217 OFFCURVE",
"366 258 OFFCURVE",
"366 125 CURVE SMOOTH",
"366 71 OFFCURVE",
"316 29 OFFCURVE",
"241 29 CURVE SMOOTH",
"171 29 OFFCURVE",
"123 66 OFFCURVE",
"90 126 CURVE SMOOTH",
"82 141 OFFCURVE",
"75 154 OFFCURVE",
"60 148 CURVE SMOOTH",
"42 141 OFFCURVE",
"52 124 OFFCURVE",
"56 117 CURVE SMOOTH",
"92 57 OFFCURVE",
"139 -2 OFFCURVE",
"238 -2 CURVE SMOOTH"
);
}
);
width = 474;
},
{
anchors = (
{
name = bottom;
position = "{254, 0}";
},
{
name = top;
position = "{253, 500}";
}
);
layerId = "2F8C22CF-EC86-44F4-AF1A-A6C7F26A0C3C";
paths = (
{
closed = 1;
nodes = (
"335 -9 OFFCURVE",
"457 36 OFFCURVE",
"457 148 CURVE SMOOTH",
"457 335 OFFCURVE",
"201 280 OFFCURVE",
"201 367 CURVE SMOOTH",
"201 388 OFFCURVE",
"216 409 OFFCURVE",
"258 409 CURVE SMOOTH",
"324 409 OFFCURVE",
"324 372 OFFCURVE",
"328 351 CURVE SMOOTH",
"334 322 OFFCURVE",
"354 311 OFFCURVE",
"387 311 CURVE SMOOTH",
"438 311 OFFCURVE",
"447 338 OFFCURVE",
"447 369 CURVE SMOOTH",
"447 452 OFFCURVE",
"365 520 OFFCURVE",
"247 520 CURVE SMOOTH",
"137 520 OFFCURVE",
"55 462 OFFCURVE",
"57 360 CURVE SMOOTH",
"61 186 OFFCURVE",
"312 220 OFFCURVE",
"312 148 CURVE SMOOTH",
"312 117 OFFCURVE",
"269 106 OFFCURVE",
"236 106 CURVE SMOOTH",
"191 106 OFFCURVE",
"163 135 OFFCURVE",
"155 150 CURVE SMOOTH",
"138 182 OFFCURVE",
"119 191 OFFCURVE",
"85 183 CURVE SMOOTH",
"39 172 OFFCURVE",
"41 138 OFFCURVE",
"49 110 CURVE SMOOTH",
"72 30 OFFCURVE",
"150 -9 OFFCURVE",
"252 -9 CURVE SMOOTH"
);
}
);
width = 502;
}
);
note = s;
unicode = 0073;
},
{
glyphname = t;
lastChange = "2018-02-22 15:51:30 +0000";
layers = (
{
anchors = (
{
name = bottom;
position = "{268, 13}";
},
{
name = center;
position = "{166, 250}";
},
{
name = top;
position = "{189, 610}";
},
{
name = topright;
position = "{268, 424}";
}
);
layerId = "0B1DFD06-3317-40CA-B510-4969A0718C16";
paths = (
{
closed = 1;
nodes = (
"334 13 OFFCURVE",
"373 69 OFFCURVE",
"373 126 CURVE SMOOTH",
"373 145 OFFCURVE",
"368 151 OFFCURVE",
"357 151 CURVE SMOOTH",
"344 151 OFFCURVE",
"342 143 OFFCURVE",
"342 130 CURVE SMOOTH",
"342 69 OFFCURVE",
"302 41 OFFCURVE",
"273 41 CURVE SMOOTH",
"192 41 OFFCURVE",
"175 157 OFFCURVE",
"175 300 CURVE SMOOTH",
"175 378 OFFCURVE",
"185 509 OFFCURVE",
"204 593 CURVE SMOOTH",
"207 606 OFFCURVE",
"197 610 OFFCURVE",
"189 610 CURVE SMOOTH",
"180 610 OFFCURVE",
"176 606 OFFCURVE",
"173 593 CURVE SMOOTH",
"154 512 OFFCURVE",
"144 394 OFFCURVE",
"144 290 CURVE SMOOTH",
"144 131 OFFCURVE",
"171 13 OFFCURVE",
"268 13 CURVE SMOOTH"
);
},
{
closed = 1;
nodes = (
"294 409 OFFCURVE",
"302 412 OFFCURVE",
"302 424 CURVE SMOOTH",
"302 438 OFFCURVE",
"292 440 OFFCURVE",
"282 440 CURVE SMOOTH",
"221 440 OFFCURVE",
"144 444 OFFCURVE",
"76 450 CURVE SMOOTH",
"59 451 OFFCURVE",
"47 450 OFFCURVE",
"47 435 CURVE SMOOTH",
"47 426 OFFCURVE",
"52 421 OFFCURVE",
"68 420 CURVE SMOOTH",
"140 414 OFFCURVE",
"219 409 OFFCURVE",
"273 409 CURVE SMOOTH"
);
}
);
width = 437;
},
{
anchors = (
{
name = bottom;
position = "{251, 31}";
},
{
name = center;
position = "{218, 245}";
},
{
name = top;
position = "{193, 618}";
},
{
name = topright;
position = "{297, 405}";
}
);
layerId = "2F8C22CF-EC86-44F4-AF1A-A6C7F26A0C3C";
paths = (
{
closed = 1;
nodes = (
"343 15 OFFCURVE",
"407 71 OFFCURVE",
"407 161 CURVE SMOOTH",
"407 199 OFFCURVE",
"382 216 OFFCURVE",
"338 216 CURVE SMOOTH",
"297 216 OFFCURVE",
"285 189 OFFCURVE",
"285 159 CURVE SMOOTH",
"285 136 OFFCURVE",
"274 123 OFFCURVE",
"263 123 CURVE SMOOTH",
"246 123 OFFCURVE",
"240 210 OFFCURVE",
"240 292 CURVE SMOOTH",
"240 426 OFFCURVE",
"242 488 OFFCURVE",
"264 561 CURVE SMOOTH",
"275 598 OFFCURVE",
"235 618 OFFCURVE",
"193 618 CURVE SMOOTH",
"154 618 OFFCURVE",
"127 603 OFFCURVE",
"119 571 CURVE SMOOTH",
"100 496 OFFCURVE",
"95 432 OFFCURVE",
"95 292 CURVE SMOOTH",
"95 104 OFFCURVE",
"144 15 OFFCURVE",
"259 15 CURVE SMOOTH"
);
},
{
closed = 1;
nodes = (
"330 354 OFFCURVE",
"347 372 OFFCURVE",
"347 405 CURVE SMOOTH",
"347 436 OFFCURVE",
"337 460 OFFCURVE",
"293 461 CURVE SMOOTH",
"212 462 OFFCURVE",
"156 466 OFFCURVE",
"79 470 CURVE SMOOTH",
"27 473 OFFCURVE",
"13 449 OFFCURVE",
"13 415 CURVE SMOOTH",
"13 383 OFFCURVE",
"27 361 OFFCURVE",
"70 360 CURVE SMOOTH",
"144 358 OFFCURVE",
"223 353 OFFCURVE",
"284 356 CURVE"
);
}
);
width = 437;
}
);
note = t;
unicode = 0074;
},
{
glyphname = u;
lastChange = "2018-02-21 13:52:52 +0000";
layers = (
{
anchors = (
{
name = bottom;
position = "{244, 0}";
},
{
name = ogonek;
position = "{443, 23}";
},
{
name = top;
position = "{265, 500}";
},
{
name = topright;
position = "{428, 332}";
}
);
layerId = "0B1DFD06-3317-40CA-B510-4969A0718C16";
paths = (
{
closed = 1;
nodes = (
"313 2 OFFCURVE",
"383 46 OFFCURVE",
"413 187 CURVE",
"405 187 LINE",
"407 91 LINE SMOOTH",
"408 41 OFFCURVE",
"434 9 OFFCURVE",
"443 9 CURVE SMOOTH",
"458 9 OFFCURVE",
"462 20 OFFCURVE",
"462 28 CURVE SMOOTH",
"462 42 OFFCURVE",
"440 48 OFFCURVE",
"439 96 CURVE SMOOTH",
"428 490 LINE SMOOTH",
"428 502 OFFCURVE",
"423 507 OFFCURVE",
"412 507 CURVE SMOOTH",
"403 507 OFFCURVE",
"397 502 OFFCURVE",
"397 490 CURVE SMOOTH",
"399 435 OFFCURVE",
"399 406 OFFCURVE",
"400 355 CURVE SMOOTH",
"403 198 OFFCURVE",
"371 33 OFFCURVE",
"229 33 CURVE SMOOTH",
"116 33 OFFCURVE",
"101 139 OFFCURVE",
"101 235 CURVE SMOOTH",
"101 487 LINE SMOOTH",
"101 496 OFFCURVE",
"95 501 OFFCURVE",
"84 501 CURVE SMOOTH",
"76 501 OFFCURVE",
"70 496 OFFCURVE",
"70 487 CURVE SMOOTH",
"70 237 LINE SMOOTH",
"70 80 OFFCURVE",
"118 2 OFFCURVE",
"229 2 CURVE SMOOTH"
);
}
);
width = 530;
},
{
anchors = (
{
name = bottom;
position = "{254, 0}";
},
{
name = ogonek;
position = "{443, 20}";
},
{
name = top;
position = "{249, 500}";
},
{
name = topright;
position = "{442, 326}";
}
);
layerId = "2F8C22CF-EC86-44F4-AF1A-A6C7F26A0C3C";
paths = (
{
closed = 1;
nodes = (
"351 -2 OFFCURVE",
"395 95 OFFCURVE",
"402 168 CURVE",
"355 168 LINE",
"357 139 LINE SMOOTH",
"360 102 OFFCURVE",
"383 5 OFFCURVE",
"427 4 CURVE SMOOTH",
"463 3 OFFCURVE",
"491 26 OFFCURVE",
"491 59 CURVE SMOOTH",
"491 77 OFFCURVE",
"471 102 OFFCURVE",
"470 132 CURVE SMOOTH",
"463 452 LINE SMOOTH",
"462 488 OFFCURVE",
"432 511 OFFCURVE",
"390 511 CURVE SMOOTH",
"347 511 OFFCURVE",
"317 489 OFFCURVE",
"318 452 CURVE SMOOTH",
"319 393 OFFCURVE",
"320 321 OFFCURVE",
"320 267 CURVE SMOOTH",
"320 143 OFFCURVE",
"295 109 OFFCURVE",
"243 109 CURVE SMOOTH",
"198 109 OFFCURVE",
"185 146 OFFCURVE",
"185 238 CURVE SMOOTH",
"185 454 LINE SMOOTH",
"185 485 OFFCURVE",
"151 506 OFFCURVE",
"112 506 CURVE SMOOTH",
"72 506 OFFCURVE",
"41 485 OFFCURVE",
"41 454 CURVE SMOOTH",
"41 240 LINE SMOOTH",
"41 76 OFFCURVE",
"104 -2 OFFCURVE",
"243 -2 CURVE SMOOTH"
);
}
);
width = 530;
}
);
note = u;
unicode = 0075;
},
{
glyphname = v;
lastChange = "2018-02-21 13:53:00 +0000";
layers = (
{
anchors = (
{
name = bottom;
position = "{253, 0}";
},
{
name = top;
position = "{253, 500}";
}
);
layerId = "0B1DFD06-3317-40CA-B510-4969A0718C16";
paths = (
{
closed = 1;
nodes = (
"298 10 OFFCURVE",
"355 119 OFFCURVE",
"399 235 CURVE SMOOTH",
"437 335 OFFCURVE",
"465 438 OFFCURVE",
"465 481 CURVE SMOOTH",
"465 495 OFFCURVE",
"462 505 OFFCURVE",
"450 505 CURVE SMOOTH",
"440 505 OFFCURVE",
"434 499 OFFCURVE",
"433 486 CURVE SMOOTH",
"428 431 OFFCURVE",
"418 366 OFFCURVE",
"369 245 CURVE SMOOTH",
"320 124 OFFCURVE",
"276 41 OFFCURVE",
"257 41 CURVE SMOOTH",
"236 41 OFFCURVE",
"189 138 OFFCURVE",
"149 246 CURVE SMOOTH",
"103 372 OFFCURVE",
"97 424 OFFCURVE",
"91 482 CURVE SMOOTH",
"90 494 OFFCURVE",
"85 500 OFFCURVE",
"75 500 CURVE SMOOTH",
"65 500 OFFCURVE",
"59 495 OFFCURVE",
"59 477 CURVE SMOOTH",
"59 438 OFFCURVE",
"85 330 OFFCURVE",
"121 230 CURVE SMOOTH",
"161 119 OFFCURVE",
"216 10 OFFCURVE",
"257 10 CURVE SMOOTH"
);
}
);
width = 505;
},
{
anchors = (
{
name = bottom;
position = "{252, 0}";
},
{
name = top;
position = "{255, 500}";
}
);
layerId = "2F8C22CF-EC86-44F4-AF1A-A6C7F26A0C3C";
paths = (
{
closed = 1;
nodes = (
"328 5 OFFCURVE",
"378 77 OFFCURVE",
"434 223 CURVE SMOOTH",
"469 317 OFFCURVE",
"493 407 OFFCURVE",
"493 447 CURVE SMOOTH",
"493 486 OFFCURVE",
"464 510 OFFCURVE",
"421 510 CURVE SMOOTH",
"382 510 OFFCURVE",
"351 487 OFFCURVE",
"348 455 CURVE SMOOTH",
"343 401 OFFCURVE",
"330 342 OFFCURVE",
"311 278 CURVE SMOOTH",
"298 233 OFFCURVE",
"268 155 OFFCURVE",
"258 155 CURVE SMOOTH",
"249 155 OFFCURVE",
"226 230 OFFCURVE",
"215 275 CURVE SMOOTH",
"199 342 OFFCURVE",
"181 401 OFFCURVE",
"176 452 CURVE SMOOTH",
"174 484 OFFCURVE",
"142 505 OFFCURVE",
"104 505 CURVE SMOOTH",
"61 505 OFFCURVE",
"31 482 OFFCURVE",
"31 444 CURVE SMOOTH",
"31 405 OFFCURVE",
"55 307 OFFCURVE",
"87 220 CURVE SMOOTH",
"138 77 OFFCURVE",
"188 5 OFFCURVE",
"258 5 CURVE SMOOTH"
);
}
);
width = 505;
}
);
note = v;
unicode = 0076;
},
{
glyphname = w;
lastChange = "2018-02-21 13:53:13 +0000";
layers = (
{
anchors = (
{
name = bottom;
position = "{390, 0}";
},
{
name = top;
position = "{390, 500}";
}
);
layerId = "0B1DFD06-3317-40CA-B510-4969A0718C16";
paths = (
{
closed = 1;
nodes = (
"299 3 OFFCURVE",
"368 174 OFFCURVE",
"393 353 CURVE",
"420 179 OFFCURVE",
"515 3 OFFCURVE",
"564 3 CURVE SMOOTH",
"593 3 OFFCURVE",
"632 82 OFFCURVE",
"660 177 CURVE SMOOTH",
"687 269 OFFCURVE",
"709 408 OFFCURVE",
"709 493 CURVE SMOOTH",
"709 507 OFFCURVE",
"703 514 OFFCURVE",
"691 514 CURVE SMOOTH",
"681 514 OFFCURVE",
"677 509 OFFCURVE",
"676 495 CURVE SMOOTH",
"671 396 OFFCURVE",
"667 323 OFFCURVE",
"629 193 CURVE SMOOTH",
"602 100 OFFCURVE",
"577 41 OFFCURVE",
"562 41 CURVE SMOOTH",
"529 41 OFFCURVE",
"438 226 OFFCURVE",
"411 396 CURVE SMOOTH",
"410 403 OFFCURVE",
"406 415 OFFCURVE",
"392 416 CURVE SMOOTH",
"381 417 OFFCURVE",
"374 407 OFFCURVE",
"372 396 CURVE SMOOTH",
"348 229 OFFCURVE",
"277 35 OFFCURVE",
"247 35 CURVE SMOOTH",
"231 35 OFFCURVE",
"202 87 OFFCURVE",
"169 189 CURVE SMOOTH",
"125 325 OFFCURVE",
"123 400 OFFCURVE",
"116 497 CURVE SMOOTH",
"115 511 OFFCURVE",
"107 514 OFFCURVE",
"98 514 CURVE SMOOTH",
"92 514 OFFCURVE",
"83 512 OFFCURVE",
"83 503 CURVE SMOOTH",
"83 391 OFFCURVE",
"109 266 OFFCURVE",
"141 169 CURVE SMOOTH",
"173 73 OFFCURVE",
"214 3 OFFCURVE",
"247 3 CURVE SMOOTH"
);
}
);
width = 780;
},
{
anchors = (
{
name = bottom;
position = "{398, 0}";
},
{
name = top;
position = "{399, 500}";
}
);
layerId = "2F8C22CF-EC86-44F4-AF1A-A6C7F26A0C3C";
paths = (
{
closed = 1;
nodes = (
"342 0 OFFCURVE",
"373 94 OFFCURVE",
"395 257 CURVE",
"424 94 OFFCURVE",
"469 0 OFFCURVE",
"538 0 CURVE SMOOTH",
"580 0 OFFCURVE",
"642 56 OFFCURVE",
"677 177 CURVE SMOOTH",
"703 267 OFFCURVE",
"721 381 OFFCURVE",
"721 434 CURVE SMOOTH",
"721 494 OFFCURVE",
"698 517 OFFCURVE",
"650 517 CURVE SMOOTH",
"604 517 OFFCURVE",
"578 496 OFFCURVE",
"577 462 CURVE SMOOTH",
"575 413 OFFCURVE",
"568 333 OFFCURVE",
"559 266 CURVE SMOOTH",
"550 202 OFFCURVE",
"546 166 OFFCURVE",
"538 166 CURVE SMOOTH",
"530 166 OFFCURVE",
"495 271 OFFCURVE",
"470 354 CURVE SMOOTH",
"455 405 OFFCURVE",
"428 434 OFFCURVE",
"395 434 CURVE SMOOTH",
"359 434 OFFCURVE",
"334 405 OFFCURVE",
"321 355 CURVE SMOOTH",
"299 271 OFFCURVE",
"273 166 OFFCURVE",
"267 166 CURVE SMOOTH",
"259 166 OFFCURVE",
"253 201 OFFCURVE",
"241 257 CURVE SMOOTH",
"229 323 OFFCURVE",
"221 406 OFFCURVE",
"213 464 CURVE SMOOTH",
"208 500 OFFCURVE",
"185 517 OFFCURVE",
"138 517 CURVE SMOOTH",
"104 517 OFFCURVE",
"71 508 OFFCURVE",
"71 441 CURVE SMOOTH",
"71 391 OFFCURVE",
"90 270 OFFCURVE",
"124 169 CURVE SMOOTH",
"161 58 OFFCURVE",
"223 0 OFFCURVE",
"271 0 CURVE SMOOTH"
);
}
);
width = 780;
}
);
note = w;
unicode = 0077;
},
{
glyphname = x;
lastChange = "2018-02-21 13:53:19 +0000";
layers = (
{
anchors = (
{
name = bottom;
position = "{249, 0}";
},
{
name = top;
position = "{249, 500}";
}
);
layerId = "0B1DFD06-3317-40CA-B510-4969A0718C16";
paths = (
{
closed = 1;
nodes = (
"455 4 OFFCURVE",
"460 12 OFFCURVE",
"457 16 CURVE SMOOTH",
"325 190 OFFCURVE",
"195 361 OFFCURVE",
"87 504 CURVE SMOOTH",
"83 509 OFFCURVE",
"75 506 OFFCURVE",
"71 503 CURVE SMOOTH",
"67 500 OFFCURVE",
"65 494 OFFCURVE",
"67 491 CURVE SMOOTH",
"175 347 OFFCURVE",
"304 175 OFFCURVE",
"432 8 CURVE SMOOTH",
"438 0 OFFCURVE",
"447 0 OFFCURVE",
"451 2 CURVE SMOOTH"
);
},
{
closed = 1;
nodes = (
"68 -2 OFFCURVE",
"77 -2 OFFCURVE",
"80 2 CURVE SMOOTH",
"192 162 OFFCURVE",
"303 323 OFFCURVE",
"418 491 CURVE SMOOTH",
"420 494 OFFCURVE",
"416 502 OFFCURVE",
"412 504 CURVE SMOOTH",
"407 507 OFFCURVE",
"400 508 OFFCURVE",
"396 503 CURVE SMOOTH",
"287 344 OFFCURVE",
"176 183 OFFCURVE",
"59 15 CURVE SMOOTH",
"55 9 OFFCURVE",
"59 3 OFFCURVE",
"64 0 CURVE SMOOTH"
);
}
);
width = 498;
},
{
anchors = (
{
name = bottom;
position = "{249, 0}";
},
{
name = top;
position = "{249, 500}";
}
);
layerId = "2F8C22CF-EC86-44F4-AF1A-A6C7F26A0C3C";
paths = (
{
closed = 1;
nodes = (
"482 19 OFFCURVE",
"491 54 OFFCURVE",
"470 82 CURVE SMOOTH",
"317 285 OFFCURVE",
"255 364 OFFCURVE",
"150 501 CURVE SMOOTH",
"131 525 OFFCURVE",
"96 524 OFFCURVE",
"72 506 CURVE SMOOTH",
"38 480 OFFCURVE",
"30 452 OFFCURVE",
"45 433 CURVE SMOOTH",
"187 248 OFFCURVE",
"237 183 OFFCURVE",
"368 11 CURVE SMOOTH",
"383 -9 OFFCURVE",
"419 -12 OFFCURVE",
"448 2 CURVE SMOOTH"
);
},
{
closed = 1;
nodes = (
"106 -16 OFFCURVE",
"144 -2 OFFCURVE",
"157 17 CURVE SMOOTH",
"268 178 OFFCURVE",
"319 253 OFFCURVE",
"442 433 CURVE SMOOTH",
"459 458 OFFCURVE",
"447 486 OFFCURVE",
"411 505 CURVE SMOOTH",
"392 515 OFFCURVE",
"352 525 OFFCURVE",
"336 501 CURVE SMOOTH",
"237 359 OFFCURVE",
"182 279 OFFCURVE",
"40 75 CURVE SMOOTH",
"19 45 OFFCURVE",
"38 15 OFFCURVE",
"73 -1 CURVE SMOOTH"
);
}
);
width = 498;
}
);
note = x;
unicode = 0078;
},
{
glyphname = y;
lastChange = "2018-02-21 13:53:29 +0000";
layers = (
{
anchors = (
{
name = bottom;
position = "{415, 0}";
},
{
name = top;
position = "{254, 500}";
}
);
layerId = "0B1DFD06-3317-40CA-B510-4969A0718C16";
paths = (
{
closed = 1;
nodes = (
"204 -255 OFFCURVE",
"208 -251 OFFCURVE",
"214 -238 CURVE SMOOTH",
"243 -169 OFFCURVE",
"282 -76 OFFCURVE",
"339 85 CURVE SMOOTH",
"388 222 OFFCURVE",
"421 366 OFFCURVE",
"451 493 CURVE SMOOTH",
"453 502 OFFCURVE",
"445 509 OFFCURVE",
"432 509 CURVE SMOOTH",
"422 509 OFFCURVE",
"418 506 OFFCURVE",
"415 493 CURVE SMOOTH",
"383 367 OFFCURVE",
"353 236 OFFCURVE",
"296 64 CURVE",
"264 84 OFFCURVE",
"128 280 OFFCURVE",
"72 491 CURVE SMOOTH",
"69 501 OFFCURVE",
"65 506 OFFCURVE",
"54 506 CURVE SMOOTH",
"44 506 OFFCURVE",
"35 502 OFFCURVE",
"40 485 CURVE SMOOTH",
"99 294 OFFCURVE",
"212 79 OFFCURVE",
"288 33 CURVE",
"250 -75 OFFCURVE",
"215 -154 OFFCURVE",
"182 -232 CURVE SMOOTH",
"178 -242 OFFCURVE",
"177 -255 OFFCURVE",
"194 -255 CURVE SMOOTH"
);
}
);
width = 508;
},
{
anchors = (
{
name = bottom;
position = "{442, 0}";
},
{
name = top;
position = "{249, 500}";
}
);
layerId = "2F8C22CF-EC86-44F4-AF1A-A6C7F26A0C3C";
paths = (
{
closed = 1;
nodes = (
"235 -239 OFFCURVE",
"260 -225 OFFCURVE",
"273 -197 CURVE SMOOTH",
"322 -89 OFFCURVE",
"349 -21 OFFCURVE",
"381 79 CURVE SMOOTH",
"413 180 OFFCURVE",
"449 304 OFFCURVE",
"478 428 CURVE SMOOTH",
"487 464 OFFCURVE",
"451 493 OFFCURVE",
"404 493 CURVE SMOOTH",
"367 493 OFFCURVE",
"338 475 OFFCURVE",
"331 446 CURVE SMOOTH",
"305 335 OFFCURVE",
"285 256 OFFCURVE",
"266 188 CURVE",
"242 189 OFFCURVE",
"161 367 OFFCURVE",
"142 447 CURVE SMOOTH",
"135 476 OFFCURVE",
"118 491 OFFCURVE",
"86 491 CURVE SMOOTH",
"42 491 OFFCURVE",
"12 468 OFFCURVE",
"12 432 CURVE SMOOTH",
"12 341 OFFCURVE",
"165 41 OFFCURVE",
"218 40 CURVE",
"189 -33 OFFCURVE",
"172 -75 OFFCURVE",
"137 -161 CURVE SMOOTH",
"118 -207 OFFCURVE",
"148 -239 OFFCURVE",
"200 -239 CURVE SMOOTH"
);
}
);
width = 508;
}
);
note = y;
unicode = 0079;
},
{
glyphname = z;
lastChange = "2018-02-22 08:41:30 +0000";
layers = (
{
anchors = (
{
name = bottom;
position = "{275, 0}";
},
{
name = top;
position = "{275, 500}";
}
);
layerId = "0B1DFD06-3317-40CA-B510-4969A0718C16";
paths = (
{
closed = 1;
nodes = (
"463 0 OFFCURVE",
"470 5 OFFCURVE",
"470 13 CURVE SMOOTH",
"470 18 OFFCURVE",
"467 25 OFFCURVE",
"462 26 CURVE SMOOTH",
"406 35 OFFCURVE",
"364 36 OFFCURVE",
"283 36 CURVE SMOOTH",
"218 36 OFFCURVE",
"109 28 OFFCURVE",
"84 28 CURVE",
"226 185 OFFCURVE",
"361 308 OFFCURVE",
"495 458 CURVE SMOOTH",
"504 468 OFFCURVE",
"505 479 OFFCURVE",
"504 486 CURVE SMOOTH",
"503 497 OFFCURVE",
"491 500 OFFCURVE",
"459 500 CURVE SMOOTH",
"411 500 OFFCURVE",
"355 489 OFFCURVE",
"283 489 CURVE SMOOTH",
"214 489 OFFCURVE",
"133 497 OFFCURVE",
"101 503 CURVE SMOOTH",
"90 505 OFFCURVE",
"85 499 OFFCURVE",
"84 492 CURVE SMOOTH",
"83 487 OFFCURVE",
"84 476 OFFCURVE",
"93 475 CURVE SMOOTH",
"128 470 OFFCURVE",
"181 461 OFFCURVE",
"283 461 CURVE SMOOTH",
"363 461 OFFCURVE",
"415 470 OFFCURVE",
"470 470 CURVE",
"341 331 OFFCURVE",
"207 212 OFFCURVE",
"61 43 CURVE SMOOTH",
"57 38 OFFCURVE",
"48 29 OFFCURVE",
"48 18 CURVE SMOOTH",
"48 5 OFFCURVE",
"61 3 OFFCURVE",
"70 3 CURVE SMOOTH",
"165 4 OFFCURVE",
"214 9 OFFCURVE",
"283 9 CURVE SMOOTH",
"361 9 OFFCURVE",
"408 7 OFFCURVE",
"458 0 CURVE"
);
}
);
width = 550;
},
{
anchors = (
{
name = bottom;
position = "{265, 0}";
},
{
name = top;
position = "{282, 500}";
}
);
layerId = "2F8C22CF-EC86-44F4-AF1A-A6C7F26A0C3C";
paths = (
{
closed = 1;
nodes = (
"478 -4 OFFCURVE",
"500 25 OFFCURVE",
"500 56 CURVE SMOOTH",
"500 83 OFFCURVE",
"488 107 OFFCURVE",
"455 112 CURVE SMOOTH",
"413 118 OFFCURVE",
"374 121 OFFCURVE",
"325 121 CURVE SMOOTH",
"296 121 OFFCURVE",
"231 123 OFFCURVE",
"219 123 CURVE",
"301 209 OFFCURVE",
"406 288 OFFCURVE",
"496 387 CURVE SMOOTH",
"516 409 OFFCURVE",
"528 432 OFFCURVE",
"528 456 CURVE SMOOTH",
"528 484 OFFCURVE",
"492 505 OFFCURVE",
"431 505 CURVE SMOOTH",
"384 505 OFFCURVE",
"336 495 OFFCURVE",
"282 495 CURVE SMOOTH",
"236 495 OFFCURVE",
"141 502 OFFCURVE",
"109 507 CURVE SMOOTH",
"75 512 OFFCURVE",
"55 482 OFFCURVE",
"55 452 CURVE SMOOTH",
"55 417 OFFCURVE",
"73 395 OFFCURVE",
"113 389 CURVE SMOOTH",
"139 385 OFFCURVE",
"183 380 OFFCURVE",
"213 380 CURVE SMOOTH",
"251 380 OFFCURVE",
"307 380 OFFCURVE",
"331 382 CURVE",
"278 323 OFFCURVE",
"216 296 OFFCURVE",
"47 101 CURVE SMOOTH",
"41 93 OFFCURVE",
"23 76 OFFCURVE",
"23 54 CURVE SMOOTH",
"23 21 OFFCURVE",
"58 -1 OFFCURVE",
"101 -1 CURVE SMOOTH",
"174 -1 OFFCURVE",
"208 2 OFFCURVE",
"277 2 CURVE SMOOTH",
"345 2 OFFCURVE",
"393 2 OFFCURVE",
"432 -4 CURVE"
);
}
);
width = 550;
}
);
note = z;
unicode = 007A;
},
{
glyphname = AE;
lastChange = "2018-02-21 06:44:23 +0000";
layers = (
{
layerId = "0B1DFD06-3317-40CA-B510-4969A0718C16";
paths = (
{
closed = 1;
nodes = (
"103 1 OFFCURVE",
"106 2 OFFCURVE",
"112 15 CURVE SMOOTH",
"171 132 OFFCURVE",
"410 665 OFFCURVE",
"497 661 CURVE",
"487 690 LINE",
"392 690 OFFCURVE",
"174 217 OFFCURVE",
"81 18 CURVE SMOOTH",
"77 10 OFFCURVE",
"87 1 OFFCURVE",
"99 1 CURVE SMOOTH"
);
},
{
closed = 1;
nodes = (
"514 189 OFFCURVE",
"519 197 OFFCURVE",
"519 204 CURVE SMOOTH",
"519 212 OFFCURVE",
"514 217 OFFCURVE",
"506 217 CURVE SMOOTH",
"206 221 LINE SMOOTH",
"192 221 OFFCURVE",
"184 213 OFFCURVE",
"184 203 CURVE SMOOTH",
"184 197 OFFCURVE",
"188 191 OFFCURVE",
"195 191 CURVE SMOOTH",
"504 189 LINE SMOOTH"
);
},
{
closed = 1;
nodes = (
"805 -6 OFFCURVE",
"852 -4 OFFCURVE",
"872 2 CURVE SMOOTH",
"885 6 OFFCURVE",
"891 12 OFFCURVE",
"891 18 CURVE SMOOTH",
"891 27 OFFCURVE",
"880 34 OFFCURVE",
"866 32 CURVE SMOOTH",
"810 24 OFFCURVE",
"785 21 OFFCURVE",
"739 21 CURVE SMOOTH",
"665 21 OFFCURVE",
"596 29 OFFCURVE",
"512 35 CURVE",
"528 284 OFFCURVE",
"535 365 OFFCURVE",
"535 507 CURVE SMOOTH",
"535 560 OFFCURVE",
"534 610 OFFCURVE",
"531 661 CURVE",
"571 664 OFFCURVE",
"620 664 OFFCURVE",
"666 664 CURVE SMOOTH",
"756 664 OFFCURVE",
"879 657 OFFCURVE",
"883 657 CURVE SMOOTH",
"886 657 OFFCURVE",
"897 661 OFFCURVE",
"897 674 CURVE SMOOTH",
"897 682 OFFCURVE",
"893 687 OFFCURVE",
"887 687 CURVE SMOOTH",
"884 687 OFFCURVE",
"746 696 OFFCURVE",
"692 696 CURVE SMOOTH",
"661 696 OFFCURVE",
"550 693 OFFCURVE",
"497 691 CURVE SMOOTH",
"484 691 OFFCURVE",
"475 688 OFFCURVE",
"475 676 CURVE SMOOTH",
"475 664 OFFCURVE",
"483 661 OFFCURVE",
"497 661 CURVE",
"500 624 OFFCURVE",
"502 569 OFFCURVE",
"502 512 CURVE SMOOTH",
"502 384 OFFCURVE",
"492 149 OFFCURVE",
"478 35 CURVE",
"450 35 OFFCURVE",
"443 34 OFFCURVE",
"443 16 CURVE SMOOTH",
"443 4 OFFCURVE",
"446 3 OFFCURVE",
"491 3 CURVE SMOOTH",
"624 3 OFFCURVE",
"676 -6 OFFCURVE",
"764 -6 CURVE SMOOTH"
);
},
{
closed = 1;
nodes = (
"798 349 OFFCURVE",
"811 350 OFFCURVE",
"811 363 CURVE SMOOTH",
"811 372 OFFCURVE",
"805 379 OFFCURVE",
"798 379 CURVE SMOOTH",
"782 380 OFFCURVE",
"734 381 OFFCURVE",
"683 382 CURVE SMOOTH",
"670 382 OFFCURVE",
"513 386 OFFCURVE",
"509 386 CURVE",
"508 354 LINE",
"514 354 OFFCURVE",
"517 355 OFFCURVE",
"599 355 CURVE SMOOTH",
"619 355 OFFCURVE",
"756 349 OFFCURVE",
"786 349 CURVE SMOOTH"
);
}
);
width = 933;
},
{
layerId = "2F8C22CF-EC86-44F4-AF1A-A6C7F26A0C3C";
paths = (
{
closed = 1;
nodes = (
"203 0 OFFCURVE",
"213 19 OFFCURVE",
"218 29 CURVE SMOOTH",
"245 84 OFFCURVE",
"472 556 OFFCURVE",
"508 541 CURVE",
"451 690 LINE",
"355 690 OFFCURVE",
"152 249 OFFCURVE",
"69 67 CURVE SMOOTH",
"56 38 OFFCURVE",
"126 0 OFFCURVE",
"171 0 CURVE SMOOTH"
);
},
{
closed = 1;
nodes = (
"518 189 OFFCURVE",
"533 213 OFFCURVE",
"533 240 CURVE SMOOTH",
"533 267 OFFCURVE",
"518 288 OFFCURVE",
"510 288 CURVE SMOOTH",
"210 292 LINE SMOOTH",
"199 292 OFFCURVE",
"177 275 OFFCURVE",
"177 242 CURVE SMOOTH",
"177 215 OFFCURVE",
"192 191 OFFCURVE",
"199 191 CURVE SMOOTH",
"508 189 LINE SMOOTH"
);
},
{
closed = 1;
nodes = (
"755 -6 OFFCURVE",
"776 -6 OFFCURVE",
"796 0 CURVE SMOOTH",
"809 4 OFFCURVE",
"841 19 OFFCURVE",
"841 68 CURVE SMOOTH",
"841 119 OFFCURVE",
"803 130 OFFCURVE",
"789 128 CURVE SMOOTH",
"733 120 OFFCURVE",
"735 121 OFFCURVE",
"689 121 CURVE SMOOTH",
"672 121 OFFCURVE",
"634 119 OFFCURVE",
"590 125 CURVE",
"599 211 OFFCURVE",
"603 234 OFFCURVE",
"603 376 CURVE SMOOTH",
"603 429 OFFCURVE",
"602 520 OFFCURVE",
"599 571 CURVE",
"639 574 OFFCURVE",
"658 574 OFFCURVE",
"704 574 CURVE SMOOTH",
"735 574 OFFCURVE",
"768 573 OFFCURVE",
"796 571 CURVE SMOOTH",
"820 569 OFFCURVE",
"847 574 OFFCURVE",
"847 635 CURVE SMOOTH",
"847 670 OFFCURVE",
"835 685 OFFCURVE",
"809 687 CURVE SMOOTH",
"774 690 OFFCURVE",
"696 696 OFFCURVE",
"642 696 CURVE SMOOTH",
"611 696 OFFCURVE",
"500 691 OFFCURVE",
"447 691 CURVE SMOOTH",
"434 691 OFFCURVE",
"425 672 OFFCURVE",
"425 637 CURVE SMOOTH",
"425 587 OFFCURVE",
"438 574 OFFCURVE",
"452 574 CURVE",
"455 537 OFFCURVE",
"452 569 OFFCURVE",
"452 512 CURVE SMOOTH",
"452 384 OFFCURVE",
"452 229 OFFCURVE",
"438 115 CURVE",
"410 115 OFFCURVE",
"390 96 OFFCURVE",
"390 53 CURVE SMOOTH",
"390 17 OFFCURVE",
"410 -6 OFFCURVE",
"455 -6 CURVE SMOOTH",
"560 -6 OFFCURVE",
"645 -6 OFFCURVE",
"714 -6 CURVE SMOOTH"
);
},
{
closed = 1;
nodes = (
"768 309 OFFCURVE",
"778 329 OFFCURVE",
"778 359 CURVE SMOOTH",
"778 384 OFFCURVE",
"771 402 OFFCURVE",
"753 404 CURVE SMOOTH",
"742 405 OFFCURVE",
"703 406 OFFCURVE",
"648 407 CURVE SMOOTH",
"575 408 OFFCURVE",
"515 411 OFFCURVE",
"473 411 CURVE",
"472 310 LINE",
"502 310 OFFCURVE",
"566 311 OFFCURVE",
"653 311 CURVE SMOOTH",
"669 311 OFFCURVE",
"712 309 OFFCURVE",
"725 309 CURVE SMOOTH"
);
}
);
width = 887;
}
);
leftKerningGroup = A;
leftMetricsKey = A;
note = AE;
rightKerningGroup = E;
rightMetricsKey = E;
unicode = 00C6;
},
{
glyphname = Eth;
lastChange = "2018-02-05 16:56:13 +0000";
layers = (
{
anchors = (
{
name = bottom;
position = "{483, 50}";
},
{
name = center;
position = "{483, 351}";
},
{
name = top;
position = "{483, 653}";
}
);
layerId = "0B1DFD06-3317-40CA-B510-4969A0718C16";
paths = (
{
closed = 1;
nodes = (
"278 8 OFFCURVE",
"299 8 OFFCURVE",
"324 8 CURVE SMOOTH",
"603 8 OFFCURVE",
"765 142 OFFCURVE",
"765 357 CURVE SMOOTH",
"765 608 OFFCURVE",
"544 698 OFFCURVE",
"252 698 CURVE SMOOTH",
"241 698 OFFCURVE",
"232 697 OFFCURVE",
"232 686 CURVE SMOOTH",
"232 674 OFFCURVE",
"239 669 OFFCURVE",
"255 669 CURVE SMOOTH",
"543 669 OFFCURVE",
"736 582 OFFCURVE",
"736 358 CURVE SMOOTH",
"736 148 OFFCURVE",
"568 37 OFFCURVE",
"323 37 CURVE",
"331 29 LINE",
"313 686 LINE SMOOTH",
"313 703 OFFCURVE",
"312 712 OFFCURVE",
"298 712 CURVE SMOOTH",
"283 712 OFFCURVE",
"282 701 OFFCURVE",
"282 684 CURVE SMOOTH",
"301 29 LINE",
"310 37 LINE",
"245 37 LINE SMOOTH",
"238 37 OFFCURVE",
"233 34 OFFCURVE",
"233 25 CURVE SMOOTH",
"233 13 OFFCURVE",
"237 8 OFFCURVE",
"249 8 CURVE SMOOTH"
);
},
{
closed = 1;
nodes = (
"501 347 OFFCURVE",
"507 350 OFFCURVE",
"507 358 CURVE SMOOTH",
"507 367 OFFCURVE",
"501 373 OFFCURVE",
"488 373 CURVE SMOOTH",
"171 379 LINE SMOOTH",
"153 379 OFFCURVE",
"147 374 OFFCURVE",
"147 365 CURVE SMOOTH",
"147 356 OFFCURVE",
"153 352 OFFCURVE",
"171 352 CURVE SMOOTH",
"488 347 LINE SMOOTH"
);
}
);
width = 909;
},
{
anchors = (
{
name = bottom;
position = "{483, 50}";
},
{
name = center;
position = "{483, 351}";
},
{
name = top;
position = "{483, 653}";
}
);
layerId = "2F8C22CF-EC86-44F4-AF1A-A6C7F26A0C3C";
paths = (
{
closed = 1;
nodes = (
"304 5 OFFCURVE",
"323 5 OFFCURVE",
"344 5 CURVE SMOOTH",
"618 5 OFFCURVE",
"793 143 OFFCURVE",
"793 353 CURVE SMOOTH",
"793 579 OFFCURVE",
"591 703 OFFCURVE",
"323 703 CURVE SMOOTH",
"230 703 OFFCURVE",
"196 688 OFFCURVE",
"196 643 CURVE SMOOTH",
"196 598 OFFCURVE",
"231 578 OFFCURVE",
"285 575 CURVE SMOOTH",
"351 571 OFFCURVE",
"630 587 OFFCURVE",
"630 360 CURVE SMOOTH",
"630 220 OFFCURVE",
"523 133 OFFCURVE",
"350 133 CURVE",
"419 83 LINE",
"404 641 LINE SMOOTH",
"403 690 OFFCURVE",
"376 717 OFFCURVE",
"315 717 CURVE SMOOTH",
"250 717 OFFCURVE",
"238 687 OFFCURVE",
"239 637 CURVE SMOOTH",
"254 80 LINE",
"323 133 LINE",
"276 133 LINE SMOOTH",
"241 133 OFFCURVE",
"195 125 OFFCURVE",
"197 67 CURVE SMOOTH",
"199 20 OFFCURVE",
"228 5 OFFCURVE",
"279 5 CURVE SMOOTH"
);
},
{
closed = 1;
nodes = (
"493 287 OFFCURVE",
"527 315 OFFCURVE",
"527 358 CURVE SMOOTH",
"527 402 OFFCURVE",
"492 431 OFFCURVE",
"438 433 CURVE SMOOTH",
"243 439 LINE SMOOTH",
"181 441 OFFCURVE",
"147 409 OFFCURVE",
"147 365 CURVE SMOOTH",
"147 320 OFFCURVE",
"182 293 OFFCURVE",
"240 292 CURVE SMOOTH",
"437 287 LINE"
);
}
);
width = 909;
}
);
note = Eth;
unicode = 00D0;
},
{
glyphname = Eacute;
lastChange = "2018-02-22 08:42:36 +0000";
layers = (
{
background = {
paths = (
{
closed = 1;
nodes = (
"554 0 LINE",
"571 179 LINE",
"544 179 LINE",
"538 124 OFFCURVE",
"520 40 OFFCURVE",
"456 40 CURVE SMOOTH",
"201 40 LINE",
"201 659 LINE",
"441 659 LINE SMOOTH",
"516 659 OFFCURVE",
"525 567 OFFCURVE",
"528 527 CURVE",
"555 527 LINE",
"555 700 LINE",
"16 700 LINE",
"16 673 LINE",
"44 673 LINE SMOOTH",
"83 673 OFFCURVE",
"103 662 OFFCURVE",
"103 637 CURVE SMOOTH",
"103 62 LINE SMOOTH",
"103 37 OFFCURVE",
"83 26 OFFCURVE",
"44 26 CURVE SMOOTH",
"16 26 LINE",
"16 0 LINE"
);
},
{
closed = 1;
nodes = (
"455 251 LINE",
"455 485 LINE",
"431 485 LINE",
"427 436 OFFCURVE",
"424 388 OFFCURVE",
"379 388 CURVE SMOOTH",
"162 388 LINE",
"162 348 LINE",
"379 348 LINE SMOOTH",
"424 348 OFFCURVE",
"427 300 OFFCURVE",
"431 251 CURVE"
);
},
{
closed = 1;
nodes = (
"398 865 LINE SMOOTH",
"420 877 OFFCURVE",
"432 890 OFFCURVE",
"432 907 CURVE SMOOTH",
"432 922 OFFCURVE",
"420 937 OFFCURVE",
"398 937 CURVE SMOOTH",
"377 937 OFFCURVE",
"362 921 OFFCURVE",
"354 914 CURVE SMOOTH",
"239 807 LINE",
"256 782 LINE"
);
}
);
};
components = (
{
name = E;
},
{
name = acutecomb;
transform = "{1, 0, 0, 1, 135, 200}";
}
);
layerId = "0B1DFD06-3317-40CA-B510-4969A0718C16";
width = 535;
},
{
background = {
paths = (
{
closed = 1;
nodes = (
"554 0 LINE",
"571 179 LINE",
"544 179 LINE",
"538 124 OFFCURVE",
"520 40 OFFCURVE",
"456 40 CURVE SMOOTH",
"201 40 LINE",
"201 659 LINE",
"441 659 LINE SMOOTH",
"516 659 OFFCURVE",
"525 567 OFFCURVE",
"528 527 CURVE",
"555 527 LINE",
"555 700 LINE",
"16 700 LINE",
"16 673 LINE",
"44 673 LINE SMOOTH",
"83 673 OFFCURVE",
"103 662 OFFCURVE",
"103 637 CURVE SMOOTH",
"103 62 LINE SMOOTH",
"103 37 OFFCURVE",
"83 26 OFFCURVE",
"44 26 CURVE SMOOTH",
"16 26 LINE",
"16 0 LINE"
);
},
{
closed = 1;
nodes = (
"455 251 LINE",
"455 485 LINE",
"431 485 LINE",
"427 436 OFFCURVE",
"424 388 OFFCURVE",
"379 388 CURVE SMOOTH",
"162 388 LINE",
"162 348 LINE",
"379 348 LINE SMOOTH",
"424 348 OFFCURVE",
"427 300 OFFCURVE",
"431 251 CURVE"
);
},
{
closed = 1;
nodes = (
"398 865 LINE SMOOTH",
"420 877 OFFCURVE",
"432 890 OFFCURVE",
"432 907 CURVE SMOOTH",
"432 922 OFFCURVE",
"420 937 OFFCURVE",
"398 937 CURVE SMOOTH",
"377 937 OFFCURVE",
"362 921 OFFCURVE",
"354 914 CURVE SMOOTH",
"239 807 LINE",
"256 782 LINE"
);
}
);
};
components = (
{
name = E;
},
{
name = acutecomb;
transform = "{1, 0, 0, 1, 157, 200}";
}
);
layerId = "2F8C22CF-EC86-44F4-AF1A-A6C7F26A0C3C";
width = 630;
}
);
note = Eacute;
unicode = 00C9;
},
{
glyphname = Ebreve;
lastChange = "2018-02-22 08:42:36 +0000";
layers = (
{
background = {
paths = (
{
closed = 1;
nodes = (
"554 0 LINE",
"571 179 LINE",
"544 179 LINE",
"538 124 OFFCURVE",
"520 40 OFFCURVE",
"456 40 CURVE SMOOTH",
"201 40 LINE",
"201 659 LINE",
"441 659 LINE SMOOTH",
"516 659 OFFCURVE",
"525 567 OFFCURVE",
"528 527 CURVE",
"555 527 LINE",
"555 700 LINE",
"16 700 LINE",
"16 673 LINE",
"44 673 LINE SMOOTH",
"83 673 OFFCURVE",
"103 662 OFFCURVE",
"103 637 CURVE SMOOTH",
"103 62 LINE SMOOTH",
"103 37 OFFCURVE",
"83 26 OFFCURVE",
"44 26 CURVE SMOOTH",
"16 26 LINE",
"16 0 LINE"
);
},
{
closed = 1;
nodes = (
"455 251 LINE",
"455 485 LINE",
"431 485 LINE",
"427 436 OFFCURVE",
"424 388 OFFCURVE",
"379 388 CURVE SMOOTH",
"162 388 LINE",
"162 348 LINE",
"379 348 LINE SMOOTH",
"424 348 OFFCURVE",
"427 300 OFFCURVE",
"431 251 CURVE"
);
},
{
closed = 1;
nodes = (
"432 776 OFFCURVE",
"474 832 OFFCURVE",
"478 907 CURVE",
"445 907 LINE",
"439 848 OFFCURVE",
"397 822 OFFCURVE",
"333 822 CURVE SMOOTH",
"269 822 OFFCURVE",
"226 848 OFFCURVE",
"219 907 CURVE",
"186 907 LINE",
"190 829 OFFCURVE",
"232 776 OFFCURVE",
"333 776 CURVE SMOOTH"
);
}
);
};
components = (
{
name = E;
},
{
name = brevecomb;
transform = "{1, 0, 0, 1, 319, 200}";
}
);
layerId = "0B1DFD06-3317-40CA-B510-4969A0718C16";
width = 535;
},
{
background = {
paths = (
{
closed = 1;
nodes = (
"554 0 LINE",
"571 179 LINE",
"544 179 LINE",
"538 124 OFFCURVE",
"520 40 OFFCURVE",
"456 40 CURVE SMOOTH",
"201 40 LINE",
"201 659 LINE",
"441 659 LINE SMOOTH",
"516 659 OFFCURVE",
"525 567 OFFCURVE",
"528 527 CURVE",
"555 527 LINE",
"555 700 LINE",
"16 700 LINE",
"16 673 LINE",
"44 673 LINE SMOOTH",
"83 673 OFFCURVE",
"103 662 OFFCURVE",
"103 637 CURVE SMOOTH",
"103 62 LINE SMOOTH",
"103 37 OFFCURVE",
"83 26 OFFCURVE",
"44 26 CURVE SMOOTH",
"16 26 LINE",
"16 0 LINE"
);
},
{
closed = 1;
nodes = (
"455 251 LINE",
"455 485 LINE",
"431 485 LINE",
"427 436 OFFCURVE",
"424 388 OFFCURVE",
"379 388 CURVE SMOOTH",
"162 388 LINE",
"162 348 LINE",
"379 348 LINE SMOOTH",
"424 348 OFFCURVE",
"427 300 OFFCURVE",
"431 251 CURVE"
);
},
{
closed = 1;
nodes = (
"432 776 OFFCURVE",
"474 832 OFFCURVE",
"478 907 CURVE",
"445 907 LINE",
"439 848 OFFCURVE",
"397 822 OFFCURVE",
"333 822 CURVE SMOOTH",
"269 822 OFFCURVE",
"226 848 OFFCURVE",
"219 907 CURVE",
"186 907 LINE",
"190 829 OFFCURVE",
"232 776 OFFCURVE",
"333 776 CURVE SMOOTH"
);
}
);
};
components = (
{
name = E;
},
{
name = brevecomb;
transform = "{1, 0, 0, 1, 355, 200}";
}
);
layerId = "2F8C22CF-EC86-44F4-AF1A-A6C7F26A0C3C";
width = 630;
}
);
note = Ebreve;
unicode = 0114;
},
{
glyphname = Ecaron;
lastChange = "2018-02-22 08:42:37 +0000";
layers = (
{
background = {
paths = (
{
closed = 1;
nodes = (
"554 0 LINE",
"571 179 LINE",
"544 179 LINE",
"538 124 OFFCURVE",
"520 40 OFFCURVE",
"456 40 CURVE SMOOTH",
"201 40 LINE",
"201 659 LINE",
"441 659 LINE SMOOTH",
"516 659 OFFCURVE",
"525 567 OFFCURVE",
"528 527 CURVE",
"555 527 LINE",
"555 700 LINE",
"16 700 LINE",
"16 673 LINE",
"44 673 LINE SMOOTH",
"83 673 OFFCURVE",
"103 662 OFFCURVE",
"103 637 CURVE SMOOTH",
"103 62 LINE SMOOTH",
"103 37 OFFCURVE",
"83 26 OFFCURVE",
"44 26 CURVE SMOOTH",
"16 26 LINE",
"16 0 LINE"
);
},
{
closed = 1;
nodes = (
"455 251 LINE",
"455 485 LINE",
"431 485 LINE",
"427 436 OFFCURVE",
"424 388 OFFCURVE",
"379 388 CURVE SMOOTH",
"162 388 LINE",
"162 348 LINE",
"379 348 LINE SMOOTH",
"424 348 OFFCURVE",
"427 300 OFFCURVE",
"431 251 CURVE"
);
},
{
closed = 1;
nodes = (
"357 782 LINE",
"481 911 LINE",
"462 932 LINE",
"354 847 LINE",
"346 840 OFFCURVE",
"337 836 OFFCURVE",
"331 836 CURVE SMOOTH",
"325 836 OFFCURVE",
"317 840 OFFCURVE",
"307 847 CURVE",
"199 932 LINE",
"180 911 LINE",
"304 782 LINE"
);
}
);
};
components = (
{
name = E;
},
{
name = caroncomb;
transform = "{1, 0, 0, 1, 320, 200}";
}
);
layerId = "0B1DFD06-3317-40CA-B510-4969A0718C16";
width = 535;
},
{
background = {
paths = (
{
closed = 1;
nodes = (
"554 0 LINE",
"571 179 LINE",
"544 179 LINE",
"538 124 OFFCURVE",
"520 40 OFFCURVE",
"456 40 CURVE SMOOTH",
"201 40 LINE",
"201 659 LINE",
"441 659 LINE SMOOTH",
"516 659 OFFCURVE",
"525 567 OFFCURVE",
"528 527 CURVE",
"555 527 LINE",
"555 700 LINE",
"16 700 LINE",
"16 673 LINE",
"44 673 LINE SMOOTH",
"83 673 OFFCURVE",
"103 662 OFFCURVE",
"103 637 CURVE SMOOTH",
"103 62 LINE SMOOTH",
"103 37 OFFCURVE",
"83 26 OFFCURVE",
"44 26 CURVE SMOOTH",
"16 26 LINE",
"16 0 LINE"
);
},
{
closed = 1;
nodes = (
"455 251 LINE",
"455 485 LINE",
"431 485 LINE",
"427 436 OFFCURVE",
"424 388 OFFCURVE",
"379 388 CURVE SMOOTH",
"162 388 LINE",
"162 348 LINE",
"379 348 LINE SMOOTH",
"424 348 OFFCURVE",
"427 300 OFFCURVE",
"431 251 CURVE"
);
},
{
closed = 1;
nodes = (
"357 782 LINE",
"481 911 LINE",
"462 932 LINE",
"354 847 LINE",
"346 840 OFFCURVE",
"337 836 OFFCURVE",
"331 836 CURVE SMOOTH",
"325 836 OFFCURVE",
"317 840 OFFCURVE",
"307 847 CURVE",
"199 932 LINE",
"180 911 LINE",
"304 782 LINE"
);
}
);
};
components = (
{
name = E;
},
{
name = caroncomb;
transform = "{1, 0, 0, 1, 356, 200}";
}
);
layerId = "2F8C22CF-EC86-44F4-AF1A-A6C7F26A0C3C";
width = 630;
}
);
note = Ecaron;
unicode = 011A;
},
{
glyphname = Ecircumflex;
lastChange = "2018-02-22 08:42:37 +0000";
layers = (
{
background = {
paths = (
{
closed = 1;
nodes = (
"554 0 LINE",
"571 179 LINE",
"544 179 LINE",
"538 124 OFFCURVE",
"520 40 OFFCURVE",
"456 40 CURVE SMOOTH",
"201 40 LINE",
"201 659 LINE",
"441 659 LINE SMOOTH",
"516 659 OFFCURVE",
"525 567 OFFCURVE",
"528 527 CURVE",
"555 527 LINE",
"555 700 LINE",
"16 700 LINE",
"16 673 LINE",
"44 673 LINE SMOOTH",
"83 673 OFFCURVE",
"103 662 OFFCURVE",
"103 637 CURVE SMOOTH",
"103 62 LINE SMOOTH",
"103 37 OFFCURVE",
"83 26 OFFCURVE",
"44 26 CURVE SMOOTH",
"16 26 LINE",
"16 0 LINE"
);
},
{
closed = 1;
nodes = (
"455 251 LINE",
"455 485 LINE",
"431 485 LINE",
"427 436 OFFCURVE",
"424 388 OFFCURVE",
"379 388 CURVE SMOOTH",
"162 388 LINE",
"162 348 LINE",
"379 348 LINE SMOOTH",
"424 348 OFFCURVE",
"427 300 OFFCURVE",
"431 251 CURVE"
);
},
{
closed = 1;
nodes = (
"304 868 LINE SMOOTH",
"312 874 OFFCURVE",
"322 879 OFFCURVE",
"328 879 CURVE SMOOTH",
"334 879 OFFCURVE",
"342 874 OFFCURVE",
"351 868 CURVE",
"459 782 LINE",
"478 803 LINE",
"354 932 LINE",
"301 932 LINE",
"177 803 LINE",
"196 782 LINE"
);
}
);
};
components = (
{
name = E;
},
{
name = circumflexcomb;
transform = "{1, 0, 0, 1, 319, 200}";
}
);
layerId = "0B1DFD06-3317-40CA-B510-4969A0718C16";
width = 535;
},
{
background = {
paths = (
{
closed = 1;
nodes = (
"554 0 LINE",
"571 179 LINE",
"544 179 LINE",
"538 124 OFFCURVE",
"520 40 OFFCURVE",
"456 40 CURVE SMOOTH",
"201 40 LINE",
"201 659 LINE",
"441 659 LINE SMOOTH",
"516 659 OFFCURVE",
"525 567 OFFCURVE",
"528 527 CURVE",
"555 527 LINE",
"555 700 LINE",
"16 700 LINE",
"16 673 LINE",
"44 673 LINE SMOOTH",
"83 673 OFFCURVE",
"103 662 OFFCURVE",
"103 637 CURVE SMOOTH",
"103 62 LINE SMOOTH",
"103 37 OFFCURVE",
"83 26 OFFCURVE",
"44 26 CURVE SMOOTH",
"16 26 LINE",
"16 0 LINE"
);
},
{
closed = 1;
nodes = (
"455 251 LINE",
"455 485 LINE",
"431 485 LINE",
"427 436 OFFCURVE",
"424 388 OFFCURVE",
"379 388 CURVE SMOOTH",
"162 388 LINE",
"162 348 LINE",
"379 348 LINE SMOOTH",
"424 348 OFFCURVE",
"427 300 OFFCURVE",
"431 251 CURVE"
);
},
{
closed = 1;
nodes = (
"304 868 LINE SMOOTH",
"312 874 OFFCURVE",
"322 879 OFFCURVE",
"328 879 CURVE SMOOTH",
"334 879 OFFCURVE",
"342 874 OFFCURVE",
"351 868 CURVE",
"459 782 LINE",
"478 803 LINE",
"354 932 LINE",
"301 932 LINE",
"177 803 LINE",
"196 782 LINE"
);
}
);
};
components = (
{
name = E;
},
{
name = circumflexcomb;
transform = "{1, 0, 0, 1, 355, 200}";
}
);
layerId = "2F8C22CF-EC86-44F4-AF1A-A6C7F26A0C3C";
width = 630;
}
);
note = Ecircumflex;
unicode = 00CA;
},
{
glyphname = Ecircumflexacute;
lastChange = "2018-02-22 08:42:37 +0000";
layers = (
{
background = {
paths = (
{
closed = 1;
nodes = (
"554 0 LINE",
"571 179 LINE",
"544 179 LINE",
"538 124 OFFCURVE",
"520 40 OFFCURVE",
"456 40 CURVE SMOOTH",
"201 40 LINE",
"201 659 LINE",
"441 659 LINE SMOOTH",
"516 659 OFFCURVE",
"525 567 OFFCURVE",
"528 527 CURVE",
"555 527 LINE",
"555 700 LINE",
"16 700 LINE",
"16 673 LINE",
"44 673 LINE SMOOTH",
"83 673 OFFCURVE",
"103 662 OFFCURVE",
"103 637 CURVE SMOOTH",
"103 62 LINE SMOOTH",
"103 37 OFFCURVE",
"83 26 OFFCURVE",
"44 26 CURVE SMOOTH",
"16 26 LINE",
"16 0 LINE"
);
},
{
closed = 1;
nodes = (
"455 251 LINE",
"455 485 LINE",
"431 485 LINE",
"427 436 OFFCURVE",
"424 388 OFFCURVE",
"379 388 CURVE SMOOTH",
"162 388 LINE",
"162 348 LINE",
"379 348 LINE SMOOTH",
"424 348 OFFCURVE",
"427 300 OFFCURVE",
"431 251 CURVE"
);
},
{
closed = 1;
nodes = (
"290 862 LINE SMOOTH",
"300 870 OFFCURVE",
"310 878 OFFCURVE",
"318 878 CURVE SMOOTH",
"324 878 OFFCURVE",
"332 873 OFFCURVE",
"341 867 CURVE",
"447 781 LINE",
"466 803 LINE",
"344 932 LINE",
"293 932 LINE",
"171 803 LINE",
"189 781 LINE"
);
},
{
closed = 1;
nodes = (
"555 960 LINE SMOOTH",
"578 972 OFFCURVE",
"591 988 OFFCURVE",
"591 1003 CURVE SMOOTH",
"591 1017 OFFCURVE",
"580 1034 OFFCURVE",
"557 1034 CURVE SMOOTH",
"538 1034 OFFCURVE",
"521 1018 OFFCURVE",
"511 1008 CURVE SMOOTH",
"415 915 LINE",
"433 893 LINE"
);
}
);
};
components = (
{
name = E;
},
{
name = circumflexcomb;
transform = "{1, 0, 0, 1, 319, 200}";
},
{
name = acutecomb;
transform = "{1, 0, 0, 1, 135, 417}";
}
);
layerId = "0B1DFD06-3317-40CA-B510-4969A0718C16";
width = 535;
},
{
background = {
paths = (
{
closed = 1;
nodes = (
"554 0 LINE",
"571 179 LINE",
"544 179 LINE",
"538 124 OFFCURVE",
"520 40 OFFCURVE",
"456 40 CURVE SMOOTH",
"201 40 LINE",
"201 659 LINE",
"441 659 LINE SMOOTH",
"516 659 OFFCURVE",
"525 567 OFFCURVE",
"528 527 CURVE",
"555 527 LINE",
"555 700 LINE",
"16 700 LINE",
"16 673 LINE",
"44 673 LINE SMOOTH",
"83 673 OFFCURVE",
"103 662 OFFCURVE",
"103 637 CURVE SMOOTH",
"103 62 LINE SMOOTH",
"103 37 OFFCURVE",
"83 26 OFFCURVE",
"44 26 CURVE SMOOTH",
"16 26 LINE",
"16 0 LINE"
);
},
{
closed = 1;
nodes = (
"455 251 LINE",
"455 485 LINE",
"431 485 LINE",
"427 436 OFFCURVE",
"424 388 OFFCURVE",
"379 388 CURVE SMOOTH",
"162 388 LINE",
"162 348 LINE",
"379 348 LINE SMOOTH",
"424 348 OFFCURVE",
"427 300 OFFCURVE",
"431 251 CURVE"
);
},
{
closed = 1;
nodes = (
"290 862 LINE SMOOTH",
"300 870 OFFCURVE",
"310 878 OFFCURVE",
"318 878 CURVE SMOOTH",
"324 878 OFFCURVE",
"332 873 OFFCURVE",
"341 867 CURVE",
"447 781 LINE",
"466 803 LINE",
"344 932 LINE",
"293 932 LINE",
"171 803 LINE",
"189 781 LINE"
);
},
{
closed = 1;
nodes = (
"555 960 LINE SMOOTH",
"578 972 OFFCURVE",
"591 988 OFFCURVE",
"591 1003 CURVE SMOOTH",
"591 1017 OFFCURVE",
"580 1034 OFFCURVE",
"557 1034 CURVE SMOOTH",
"538 1034 OFFCURVE",
"521 1018 OFFCURVE",
"511 1008 CURVE SMOOTH",
"415 915 LINE",
"433 893 LINE"
);
}
);
};
components = (
{
name = E;
},
{
name = circumflexcomb;
transform = "{1, 0, 0, 1, 355, 200}";
},
{
name = acutecomb;
transform = "{1, 0, 0, 1, 153, 489}";
}
);
layerId = "2F8C22CF-EC86-44F4-AF1A-A6C7F26A0C3C";
width = 630;
}
);
note = Ecircumflexacute;
unicode = 1EBE;
},
{
glyphname = Ecircumflexdotbelow;
lastChange = "2018-02-21 14:33:23 +0000";
layers = (
{
background = {
paths = (
{
closed = 1;
nodes = (
"554 0 LINE",
"571 179 LINE",
"544 179 LINE",
"538 124 OFFCURVE",
"520 40 OFFCURVE",
"456 40 CURVE SMOOTH",
"201 40 LINE",
"201 659 LINE",
"441 659 LINE SMOOTH",
"516 659 OFFCURVE",
"525 567 OFFCURVE",
"528 527 CURVE",
"555 527 LINE",
"555 700 LINE",
"16 700 LINE",
"16 673 LINE",
"44 673 LINE SMOOTH",
"83 673 OFFCURVE",
"103 662 OFFCURVE",
"103 637 CURVE SMOOTH",
"103 62 LINE SMOOTH",
"103 37 OFFCURVE",
"83 26 OFFCURVE",
"44 26 CURVE SMOOTH",
"16 26 LINE",
"16 0 LINE"
);
},
{
closed = 1;
nodes = (
"350 -159 OFFCURVE",
"368 -140 OFFCURVE",
"368 -112 CURVE SMOOTH",
"368 -84 OFFCURVE",
"350 -64 OFFCURVE",
"322 -64 CURVE SMOOTH",
"294 -64 OFFCURVE",
"275 -84 OFFCURVE",
"275 -112 CURVE SMOOTH",
"275 -140 OFFCURVE",
"294 -159 OFFCURVE",
"322 -159 CURVE SMOOTH"
);
},
{
closed = 1;
nodes = (
"455 251 LINE",
"455 485 LINE",
"431 485 LINE",
"427 436 OFFCURVE",
"424 388 OFFCURVE",
"379 388 CURVE SMOOTH",
"162 388 LINE",
"162 348 LINE",
"379 348 LINE SMOOTH",
"424 348 OFFCURVE",
"427 300 OFFCURVE",
"431 251 CURVE"
);
},
{
closed = 1;
nodes = (
"294 868 LINE SMOOTH",
"302 874 OFFCURVE",
"312 879 OFFCURVE",
"318 879 CURVE SMOOTH",
"324 879 OFFCURVE",
"332 874 OFFCURVE",
"341 868 CURVE",
"449 782 LINE",
"468 803 LINE",
"344 932 LINE",
"291 932 LINE",
"167 803 LINE",
"186 782 LINE"
);
}
);
};
components = (
{
name = E;
},
{
name = dotbelowcomb;
transform = "{1, 0, 0, 1, 125, 0}";
},
{
name = circumflexcomb;
transform = "{1, 0, 0, 1, 319, 200}";
}
);
layerId = "0B1DFD06-3317-40CA-B510-4969A0718C16";
width = 535;
},
{
background = {
paths = (
{
closed = 1;
nodes = (
"554 0 LINE",
"571 179 LINE",
"544 179 LINE",
"538 124 OFFCURVE",
"520 40 OFFCURVE",
"456 40 CURVE SMOOTH",
"201 40 LINE",
"201 659 LINE",
"441 659 LINE SMOOTH",
"516 659 OFFCURVE",
"525 567 OFFCURVE",
"528 527 CURVE",
"555 527 LINE",
"555 700 LINE",
"16 700 LINE",
"16 673 LINE",
"44 673 LINE SMOOTH",
"83 673 OFFCURVE",
"103 662 OFFCURVE",
"103 637 CURVE SMOOTH",
"103 62 LINE SMOOTH",
"103 37 OFFCURVE",
"83 26 OFFCURVE",
"44 26 CURVE SMOOTH",
"16 26 LINE",
"16 0 LINE"
);
},
{
closed = 1;
nodes = (
"350 -159 OFFCURVE",
"368 -140 OFFCURVE",
"368 -112 CURVE SMOOTH",
"368 -84 OFFCURVE",
"350 -64 OFFCURVE",
"322 -64 CURVE SMOOTH",
"294 -64 OFFCURVE",
"275 -84 OFFCURVE",
"275 -112 CURVE SMOOTH",
"275 -140 OFFCURVE",
"294 -159 OFFCURVE",
"322 -159 CURVE SMOOTH"
);
},
{
closed = 1;
nodes = (
"455 251 LINE",
"455 485 LINE",
"431 485 LINE",
"427 436 OFFCURVE",
"424 388 OFFCURVE",
"379 388 CURVE SMOOTH",
"162 388 LINE",
"162 348 LINE",
"379 348 LINE SMOOTH",
"424 348 OFFCURVE",
"427 300 OFFCURVE",
"431 251 CURVE"
);
},
{
closed = 1;
nodes = (
"294 868 LINE SMOOTH",
"302 874 OFFCURVE",
"312 879 OFFCURVE",
"318 879 CURVE SMOOTH",
"324 879 OFFCURVE",
"332 874 OFFCURVE",
"341 868 CURVE",
"449 782 LINE",
"468 803 LINE",
"344 932 LINE",
"291 932 LINE",
"167 803 LINE",
"186 782 LINE"
);
}
);
};
components = (
{
name = E;
},
{
name = dotbelowcomb;
transform = "{1, 0, 0, 1, 177, 0}";
},
{
name = circumflexcomb;
transform = "{1, 0, 0, 1, 355, 200}";
}
);
layerId = "2F8C22CF-EC86-44F4-AF1A-A6C7F26A0C3C";
width = 630;
}
);
note = Ecircumflexdotbelow;
unicode = 1EC6;
},
{
glyphname = Ecircumflexgrave;
lastChange = "2018-02-21 14:43:26 +0000";
layers = (
{
background = {
paths = (
{
closed = 1;
nodes = (
"554 0 LINE",
"571 179 LINE",
"544 179 LINE",
"538 124 OFFCURVE",
"520 40 OFFCURVE",
"456 40 CURVE SMOOTH",
"201 40 LINE",
"201 659 LINE",
"441 659 LINE SMOOTH",
"516 659 OFFCURVE",
"525 567 OFFCURVE",
"528 527 CURVE",
"555 527 LINE",
"555 700 LINE",
"16 700 LINE",
"16 673 LINE",
"44 673 LINE SMOOTH",
"83 673 OFFCURVE",
"103 662 OFFCURVE",
"103 637 CURVE SMOOTH",
"103 62 LINE SMOOTH",
"103 37 OFFCURVE",
"83 26 OFFCURVE",
"44 26 CURVE SMOOTH",
"16 26 LINE",
"16 0 LINE"
);
},
{
closed = 1;
nodes = (
"455 251 LINE",
"455 485 LINE",
"431 485 LINE",
"427 436 OFFCURVE",
"424 388 OFFCURVE",
"379 388 CURVE SMOOTH",
"162 388 LINE",
"162 348 LINE",
"379 348 LINE SMOOTH",
"424 348 OFFCURVE",
"427 300 OFFCURVE",
"431 251 CURVE"
);
},
{
closed = 1;
nodes = (
"227 915 LINE",
"132 1008 LINE SMOOTH",
"122 1018 OFFCURVE",
"105 1034 OFFCURVE",
"85 1034 CURVE SMOOTH",
"63 1034 OFFCURVE",
"52 1017 OFFCURVE",
"52 1003 CURVE SMOOTH",
"52 988 OFFCURVE",
"65 972 OFFCURVE",
"88 960 CURVE SMOOTH",
"210 893 LINE"
);
},
{
closed = 1;
nodes = (
"290 862 LINE SMOOTH",
"300 870 OFFCURVE",
"310 878 OFFCURVE",
"318 878 CURVE SMOOTH",
"324 878 OFFCURVE",
"332 873 OFFCURVE",
"341 867 CURVE",
"447 781 LINE",
"466 803 LINE",
"344 932 LINE",
"293 932 LINE",
"171 803 LINE",
"189 781 LINE"
);
}
);
};
components = (
{
name = E;
},
{
name = circumflexcomb;
transform = "{1, 0, 0, 1, 319, 200}";
},
{
name = gravecomb;
transform = "{1, 0, 0, 1, 134, 417}";
}
);
layerId = "0B1DFD06-3317-40CA-B510-4969A0718C16";
width = 535;
},
{
background = {
paths = (
{
closed = 1;
nodes = (
"554 0 LINE",
"571 179 LINE",
"544 179 LINE",
"538 124 OFFCURVE",
"520 40 OFFCURVE",
"456 40 CURVE SMOOTH",
"201 40 LINE",
"201 659 LINE",
"441 659 LINE SMOOTH",
"516 659 OFFCURVE",
"525 567 OFFCURVE",
"528 527 CURVE",
"555 527 LINE",
"555 700 LINE",
"16 700 LINE",
"16 673 LINE",
"44 673 LINE SMOOTH",
"83 673 OFFCURVE",
"103 662 OFFCURVE",
"103 637 CURVE SMOOTH",
"103 62 LINE SMOOTH",
"103 37 OFFCURVE",
"83 26 OFFCURVE",
"44 26 CURVE SMOOTH",
"16 26 LINE",
"16 0 LINE"
);
},
{
closed = 1;
nodes = (
"455 251 LINE",
"455 485 LINE",
"431 485 LINE",
"427 436 OFFCURVE",
"424 388 OFFCURVE",
"379 388 CURVE SMOOTH",
"162 388 LINE",
"162 348 LINE",
"379 348 LINE SMOOTH",
"424 348 OFFCURVE",
"427 300 OFFCURVE",
"431 251 CURVE"
);
},
{
closed = 1;
nodes = (
"227 915 LINE",
"132 1008 LINE SMOOTH",
"122 1018 OFFCURVE",
"105 1034 OFFCURVE",
"85 1034 CURVE SMOOTH",
"63 1034 OFFCURVE",
"52 1017 OFFCURVE",
"52 1003 CURVE SMOOTH",
"52 988 OFFCURVE",
"65 972 OFFCURVE",
"88 960 CURVE SMOOTH",
"210 893 LINE"
);
},
{
closed = 1;
nodes = (
"290 862 LINE SMOOTH",
"300 870 OFFCURVE",
"310 878 OFFCURVE",
"318 878 CURVE SMOOTH",
"324 878 OFFCURVE",
"332 873 OFFCURVE",
"341 867 CURVE",
"447 781 LINE",
"466 803 LINE",
"344 932 LINE",
"293 932 LINE",
"171 803 LINE",
"189 781 LINE"
);
}
);
};
components = (
{
name = E;
},
{
name = circumflexcomb;
transform = "{1, 0, 0, 1, 355, 200}";
},
{
name = gravecomb;
transform = "{1, 0, 0, 1, 166, 489}";
}
);
layerId = "2F8C22CF-EC86-44F4-AF1A-A6C7F26A0C3C";
width = 630;
}
);
note = Ecircumflexgrave;
unicode = 1EC0;
},
{
glyphname = Ecircumflexhookabove;
lastChange = "2018-02-21 14:43:26 +0000";
layers = (
{
background = {
paths = (
{
closed = 1;
nodes = (
"554 0 LINE",
"571 179 LINE",
"544 179 LINE",
"538 124 OFFCURVE",
"520 40 OFFCURVE",
"456 40 CURVE SMOOTH",
"201 40 LINE",
"201 659 LINE",
"441 659 LINE SMOOTH",
"516 659 OFFCURVE",
"525 567 OFFCURVE",
"528 527 CURVE",
"555 527 LINE",
"555 700 LINE",
"16 700 LINE",
"16 673 LINE",
"44 673 LINE SMOOTH",
"83 673 OFFCURVE",
"103 662 OFFCURVE",
"103 637 CURVE SMOOTH",
"103 62 LINE SMOOTH",
"103 37 OFFCURVE",
"83 26 OFFCURVE",
"44 26 CURVE SMOOTH",
"16 26 LINE",
"16 0 LINE"
);
},
{
closed = 1;
nodes = (
"455 251 LINE",
"455 485 LINE",
"431 485 LINE",
"427 436 OFFCURVE",
"424 388 OFFCURVE",
"379 388 CURVE SMOOTH",
"162 388 LINE",
"162 348 LINE",
"379 348 LINE SMOOTH",
"424 348 OFFCURVE",
"427 300 OFFCURVE",
"431 251 CURVE"
);
},
{
closed = 1;
nodes = (
"286 858 LINE",
"297 868 OFFCURVE",
"309 878 OFFCURVE",
"318 878 CURVE SMOOTH",
"324 878 OFFCURVE",
"332 873 OFFCURVE",
"341 867 CURVE",
"447 781 LINE",
"466 803 LINE",
"344 932 LINE",
"293 932 LINE",
"171 803 LINE",
"189 781 LINE"
);
},
{
closed = 1;
nodes = (
"493 898 LINE",
"474 905 OFFCURVE",
"464 912 OFFCURVE",
"464 926 CURVE SMOOTH",
"464 954 OFFCURVE",
"544 965 OFFCURVE",
"544 1010 CURVE SMOOTH",
"544 1047 OFFCURVE",
"502 1063 OFFCURVE",
"460 1063 CURVE SMOOTH",
"429 1063 OFFCURVE",
"384 1053 OFFCURVE",
"384 1022 CURVE SMOOTH",
"384 1010 OFFCURVE",
"395 1001 OFFCURVE",
"405 1001 CURVE SMOOTH",
"434 1001 OFFCURVE",
"421 1040 OFFCURVE",
"464 1040 CURVE SMOOTH",
"483 1040 OFFCURVE",
"494 1028 OFFCURVE",
"494 1013 CURVE SMOOTH",
"494 973 OFFCURVE",
"421 965 OFFCURVE",
"421 925 CURVE SMOOTH",
"421 901 OFFCURVE",
"437 880 OFFCURVE",
"484 880 CURVE"
);
}
);
};
components = (
{
name = E;
},
{
name = circumflexcomb;
transform = "{1, 0, 0, 1, 319, 200}";
},
{
name = hookabovecomb;
transform = "{1, 0, 0, 1, 18, 417}";
}
);
layerId = "0B1DFD06-3317-40CA-B510-4969A0718C16";
width = 535;
},
{
background = {
paths = (
{
closed = 1;
nodes = (
"554 0 LINE",
"571 179 LINE",
"544 179 LINE",
"538 124 OFFCURVE",
"520 40 OFFCURVE",
"456 40 CURVE SMOOTH",
"201 40 LINE",
"201 659 LINE",
"441 659 LINE SMOOTH",
"516 659 OFFCURVE",
"525 567 OFFCURVE",
"528 527 CURVE",
"555 527 LINE",
"555 700 LINE",
"16 700 LINE",
"16 673 LINE",
"44 673 LINE SMOOTH",
"83 673 OFFCURVE",
"103 662 OFFCURVE",
"103 637 CURVE SMOOTH",
"103 62 LINE SMOOTH",
"103 37 OFFCURVE",
"83 26 OFFCURVE",
"44 26 CURVE SMOOTH",
"16 26 LINE",
"16 0 LINE"
);
},
{
closed = 1;
nodes = (
"455 251 LINE",
"455 485 LINE",
"431 485 LINE",
"427 436 OFFCURVE",
"424 388 OFFCURVE",
"379 388 CURVE SMOOTH",
"162 388 LINE",
"162 348 LINE",
"379 348 LINE SMOOTH",
"424 348 OFFCURVE",
"427 300 OFFCURVE",
"431 251 CURVE"
);
},
{
closed = 1;
nodes = (
"286 858 LINE",
"297 868 OFFCURVE",
"309 878 OFFCURVE",
"318 878 CURVE SMOOTH",
"324 878 OFFCURVE",
"332 873 OFFCURVE",
"341 867 CURVE",
"447 781 LINE",
"466 803 LINE",
"344 932 LINE",
"293 932 LINE",
"171 803 LINE",
"189 781 LINE"
);
},
{
closed = 1;
nodes = (
"493 898 LINE",
"474 905 OFFCURVE",
"464 912 OFFCURVE",
"464 926 CURVE SMOOTH",
"464 954 OFFCURVE",
"544 965 OFFCURVE",
"544 1010 CURVE SMOOTH",
"544 1047 OFFCURVE",
"502 1063 OFFCURVE",
"460 1063 CURVE SMOOTH",
"429 1063 OFFCURVE",
"384 1053 OFFCURVE",
"384 1022 CURVE SMOOTH",
"384 1010 OFFCURVE",
"395 1001 OFFCURVE",
"405 1001 CURVE SMOOTH",
"434 1001 OFFCURVE",
"421 1040 OFFCURVE",
"464 1040 CURVE SMOOTH",
"483 1040 OFFCURVE",
"494 1028 OFFCURVE",
"494 1013 CURVE SMOOTH",
"494 973 OFFCURVE",
"421 965 OFFCURVE",
"421 925 CURVE SMOOTH",
"421 901 OFFCURVE",
"437 880 OFFCURVE",
"484 880 CURVE"
);
}
);
};
components = (
{
name = E;
},
{
name = circumflexcomb;
transform = "{1, 0, 0, 1, 355, 200}";
},
{
name = hookabovecomb;
transform = "{1, 0, 0, 1, 50, 489}";
}
);
layerId = "2F8C22CF-EC86-44F4-AF1A-A6C7F26A0C3C";
width = 630;
}
);
note = Ecircumflexhookabove;
unicode = 1EC2;
},
{
glyphname = Ecircumflextilde;
lastChange = "2018-02-21 14:43:26 +0000";
layers = (
{
background = {
paths = (
{
closed = 1;
nodes = (
"554 0 LINE",
"571 179 LINE",
"544 179 LINE",
"538 124 OFFCURVE",
"520 40 OFFCURVE",
"456 40 CURVE SMOOTH",
"201 40 LINE",
"201 659 LINE",
"441 659 LINE SMOOTH",
"516 659 OFFCURVE",
"525 567 OFFCURVE",
"528 527 CURVE",
"555 527 LINE",
"555 700 LINE",
"16 700 LINE",
"16 673 LINE",
"44 673 LINE SMOOTH",
"83 673 OFFCURVE",
"103 662 OFFCURVE",
"103 637 CURVE SMOOTH",
"103 62 LINE SMOOTH",
"103 37 OFFCURVE",
"83 26 OFFCURVE",
"44 26 CURVE SMOOTH",
"16 26 LINE",
"16 0 LINE"
);
},
{
closed = 1;
nodes = (
"455 251 LINE",
"455 485 LINE",
"431 485 LINE",
"427 436 OFFCURVE",
"424 388 OFFCURVE",
"379 388 CURVE SMOOTH",
"162 388 LINE",
"162 348 LINE",
"379 348 LINE SMOOTH",
"424 348 OFFCURVE",
"427 300 OFFCURVE",
"431 251 CURVE"
);
},
{
closed = 1;
nodes = (
"290 862 LINE SMOOTH",
"300 870 OFFCURVE",
"310 878 OFFCURVE",
"318 878 CURVE SMOOTH",
"324 878 OFFCURVE",
"332 873 OFFCURVE",
"341 867 CURVE",
"447 781 LINE",
"466 803 LINE",
"344 932 LINE",
"293 932 LINE",
"171 803 LINE",
"189 781 LINE"
);
},
{
closed = 1;
nodes = (
"193 997 OFFCURVE",
"211 1018 OFFCURVE",
"242 1018 CURVE SMOOTH",
"291 1018 OFFCURVE",
"338 964 OFFCURVE",
"387 964 CURVE SMOOTH",
"440 964 OFFCURVE",
"469 1012 OFFCURVE",
"481 1063 CURVE",
"460 1075 LINE",
"447 1035 OFFCURVE",
"431 1012 OFFCURVE",
"398 1012 CURVE SMOOTH",
"351 1012 OFFCURVE",
"302 1065 OFFCURVE",
"253 1065 CURVE SMOOTH",
"202 1065 OFFCURVE",
"170 1021 OFFCURVE",
"160 970 CURVE",
"180 958 LINE"
);
}
);
};
components = (
{
name = E;
},
{
name = circumflexcomb;
transform = "{1, 0, 0, 1, 319, 200}";
},
{
name = tildecomb;
transform = "{1, 0, 0, 1, 128, 417}";
}
);
layerId = "0B1DFD06-3317-40CA-B510-4969A0718C16";
width = 535;
},
{
background = {
paths = (
{
closed = 1;
nodes = (
"554 0 LINE",
"571 179 LINE",
"544 179 LINE",
"538 124 OFFCURVE",
"520 40 OFFCURVE",
"456 40 CURVE SMOOTH",
"201 40 LINE",
"201 659 LINE",
"441 659 LINE SMOOTH",
"516 659 OFFCURVE",
"525 567 OFFCURVE",
"528 527 CURVE",
"555 527 LINE",
"555 700 LINE",
"16 700 LINE",
"16 673 LINE",
"44 673 LINE SMOOTH",
"83 673 OFFCURVE",
"103 662 OFFCURVE",
"103 637 CURVE SMOOTH",
"103 62 LINE SMOOTH",
"103 37 OFFCURVE",
"83 26 OFFCURVE",
"44 26 CURVE SMOOTH",
"16 26 LINE",
"16 0 LINE"
);
},
{
closed = 1;
nodes = (
"455 251 LINE",
"455 485 LINE",
"431 485 LINE",
"427 436 OFFCURVE",
"424 388 OFFCURVE",
"379 388 CURVE SMOOTH",
"162 388 LINE",
"162 348 LINE",
"379 348 LINE SMOOTH",
"424 348 OFFCURVE",
"427 300 OFFCURVE",
"431 251 CURVE"
);
},
{
closed = 1;
nodes = (
"290 862 LINE SMOOTH",
"300 870 OFFCURVE",
"310 878 OFFCURVE",
"318 878 CURVE SMOOTH",
"324 878 OFFCURVE",
"332 873 OFFCURVE",
"341 867 CURVE",
"447 781 LINE",
"466 803 LINE",
"344 932 LINE",
"293 932 LINE",
"171 803 LINE",
"189 781 LINE"
);
},
{
closed = 1;
nodes = (
"193 997 OFFCURVE",
"211 1018 OFFCURVE",
"242 1018 CURVE SMOOTH",
"291 1018 OFFCURVE",
"338 964 OFFCURVE",
"387 964 CURVE SMOOTH",
"440 964 OFFCURVE",
"469 1012 OFFCURVE",
"481 1063 CURVE",
"460 1075 LINE",
"447 1035 OFFCURVE",
"431 1012 OFFCURVE",
"398 1012 CURVE SMOOTH",
"351 1012 OFFCURVE",
"302 1065 OFFCURVE",
"253 1065 CURVE SMOOTH",
"202 1065 OFFCURVE",
"170 1021 OFFCURVE",
"160 970 CURVE",
"180 958 LINE"
);
}
);
};
components = (
{
name = E;
},
{
name = circumflexcomb;
transform = "{1, 0, 0, 1, 355, 200}";
},
{
name = tildecomb;
transform = "{1, 0, 0, 1, 160, 489}";
}
);
layerId = "2F8C22CF-EC86-44F4-AF1A-A6C7F26A0C3C";
width = 630;
}
);
note = Ecircumflextilde;
unicode = 1EC4;
},
{
glyphname = Edieresis;
lastChange = "2018-02-21 14:43:26 +0000";
layers = (
{
background = {
paths = (
{
closed = 1;
nodes = (
"554 0 LINE",
"571 179 LINE",
"544 179 LINE",
"538 124 OFFCURVE",
"520 40 OFFCURVE",
"456 40 CURVE SMOOTH",
"201 40 LINE",
"201 659 LINE",
"441 659 LINE SMOOTH",
"516 659 OFFCURVE",
"525 567 OFFCURVE",
"528 527 CURVE",
"555 527 LINE",
"555 700 LINE",
"16 700 LINE",
"16 673 LINE",
"44 673 LINE SMOOTH",
"83 673 OFFCURVE",
"103 662 OFFCURVE",
"103 637 CURVE SMOOTH",
"103 62 LINE SMOOTH",
"103 37 OFFCURVE",
"83 26 OFFCURVE",
"44 26 CURVE SMOOTH",
"16 26 LINE",
"16 0 LINE"
);
},
{
closed = 1;
nodes = (
"455 251 LINE",
"455 485 LINE",
"431 485 LINE",
"427 436 OFFCURVE",
"424 388 OFFCURVE",
"379 388 CURVE SMOOTH",
"162 388 LINE",
"162 348 LINE",
"379 348 LINE SMOOTH",
"424 348 OFFCURVE",
"427 300 OFFCURVE",
"431 251 CURVE"
);
},
{
closed = 1;
nodes = (
"254 781 OFFCURVE",
"272 800 OFFCURVE",
"272 827 CURVE SMOOTH",
"272 855 OFFCURVE",
"254 875 OFFCURVE",
"225 875 CURVE SMOOTH",
"197 875 OFFCURVE",
"179 855 OFFCURVE",
"179 827 CURVE SMOOTH",
"179 800 OFFCURVE",
"197 781 OFFCURVE",
"225 781 CURVE SMOOTH"
);
},
{
closed = 1;
nodes = (
"470 781 OFFCURVE",
"488 800 OFFCURVE",
"488 827 CURVE SMOOTH",
"488 855 OFFCURVE",
"470 875 OFFCURVE",
"441 875 CURVE SMOOTH",
"412 875 OFFCURVE",
"394 855 OFFCURVE",
"394 827 CURVE SMOOTH",
"394 800 OFFCURVE",
"412 781 OFFCURVE",
"441 781 CURVE SMOOTH"
);
}
);
};
components = (
{
name = E;
},
{
name = dieresiscomb;
transform = "{1, 0, 0, 1, 320, 200}";
}
);
layerId = "0B1DFD06-3317-40CA-B510-4969A0718C16";
width = 535;
},
{
background = {
paths = (
{
closed = 1;
nodes = (
"554 0 LINE",
"571 179 LINE",
"544 179 LINE",
"538 124 OFFCURVE",
"520 40 OFFCURVE",
"456 40 CURVE SMOOTH",
"201 40 LINE",
"201 659 LINE",
"441 659 LINE SMOOTH",
"516 659 OFFCURVE",
"525 567 OFFCURVE",
"528 527 CURVE",
"555 527 LINE",
"555 700 LINE",
"16 700 LINE",
"16 673 LINE",
"44 673 LINE SMOOTH",
"83 673 OFFCURVE",
"103 662 OFFCURVE",
"103 637 CURVE SMOOTH",
"103 62 LINE SMOOTH",
"103 37 OFFCURVE",
"83 26 OFFCURVE",
"44 26 CURVE SMOOTH",
"16 26 LINE",
"16 0 LINE"
);
},
{
closed = 1;
nodes = (
"455 251 LINE",
"455 485 LINE",
"431 485 LINE",
"427 436 OFFCURVE",
"424 388 OFFCURVE",
"379 388 CURVE SMOOTH",
"162 388 LINE",
"162 348 LINE",
"379 348 LINE SMOOTH",
"424 348 OFFCURVE",
"427 300 OFFCURVE",
"431 251 CURVE"
);
},
{
closed = 1;
nodes = (
"254 781 OFFCURVE",
"272 800 OFFCURVE",
"272 827 CURVE SMOOTH",
"272 855 OFFCURVE",
"254 875 OFFCURVE",
"225 875 CURVE SMOOTH",
"197 875 OFFCURVE",
"179 855 OFFCURVE",
"179 827 CURVE SMOOTH",
"179 800 OFFCURVE",
"197 781 OFFCURVE",
"225 781 CURVE SMOOTH"
);
},
{
closed = 1;
nodes = (
"470 781 OFFCURVE",
"488 800 OFFCURVE",
"488 827 CURVE SMOOTH",
"488 855 OFFCURVE",
"470 875 OFFCURVE",
"441 875 CURVE SMOOTH",
"412 875 OFFCURVE",
"394 855 OFFCURVE",
"394 827 CURVE SMOOTH",
"394 800 OFFCURVE",
"412 781 OFFCURVE",
"441 781 CURVE SMOOTH"
);
}
);
};
components = (
{
name = E;
},
{
name = dieresiscomb;
transform = "{1, 0, 0, 1, 356, 200}";
}
);
layerId = "2F8C22CF-EC86-44F4-AF1A-A6C7F26A0C3C";
width = 630;
}
);
note = Edieresis;
unicode = 00CB;
},
{
glyphname = Edotaccent;
lastChange = "2018-02-21 14:43:26 +0000";
layers = (
{
background = {
paths = (
{
closed = 1;
nodes = (
"554 0 LINE",
"571 179 LINE",
"544 179 LINE",
"538 124 OFFCURVE",
"520 40 OFFCURVE",
"456 40 CURVE SMOOTH",
"201 40 LINE",
"201 659 LINE",
"441 659 LINE SMOOTH",
"516 659 OFFCURVE",
"525 567 OFFCURVE",
"528 527 CURVE",
"555 527 LINE",
"555 700 LINE",
"16 700 LINE",
"16 673 LINE",
"44 673 LINE SMOOTH",
"83 673 OFFCURVE",
"103 662 OFFCURVE",
"103 637 CURVE SMOOTH",
"103 62 LINE SMOOTH",
"103 37 OFFCURVE",
"83 26 OFFCURVE",
"44 26 CURVE SMOOTH",
"16 26 LINE",
"16 0 LINE"
);
},
{
closed = 1;
nodes = (
"455 251 LINE",
"455 485 LINE",
"431 485 LINE",
"427 436 OFFCURVE",
"424 388 OFFCURVE",
"379 388 CURVE SMOOTH",
"162 388 LINE",
"162 348 LINE",
"379 348 LINE SMOOTH",
"424 348 OFFCURVE",
"427 300 OFFCURVE",
"431 251 CURVE"
);
},
{
closed = 1;
nodes = (
"362 765 OFFCURVE",
"380 784 OFFCURVE",
"380 811 CURVE SMOOTH",
"380 839 OFFCURVE",
"362 858 OFFCURVE",
"334 858 CURVE SMOOTH",
"305 858 OFFCURVE",
"287 839 OFFCURVE",
"287 811 CURVE SMOOTH",
"287 784 OFFCURVE",
"305 765 OFFCURVE",
"334 765 CURVE SMOOTH"
);
}
);
};
components = (
{
name = E;
},
{
name = dotaccentcomb;
transform = "{1, 0, 0, 1, 320, 200}";
}
);
layerId = "0B1DFD06-3317-40CA-B510-4969A0718C16";
width = 535;
},
{
background = {
paths = (
{
closed = 1;
nodes = (
"554 0 LINE",
"571 179 LINE",
"544 179 LINE",
"538 124 OFFCURVE",
"520 40 OFFCURVE",
"456 40 CURVE SMOOTH",
"201 40 LINE",
"201 659 LINE",
"441 659 LINE SMOOTH",
"516 659 OFFCURVE",
"525 567 OFFCURVE",
"528 527 CURVE",
"555 527 LINE",
"555 700 LINE",
"16 700 LINE",
"16 673 LINE",
"44 673 LINE SMOOTH",
"83 673 OFFCURVE",
"103 662 OFFCURVE",
"103 637 CURVE SMOOTH",
"103 62 LINE SMOOTH",
"103 37 OFFCURVE",
"83 26 OFFCURVE",
"44 26 CURVE SMOOTH",
"16 26 LINE",
"16 0 LINE"
);
},
{
closed = 1;
nodes = (
"455 251 LINE",
"455 485 LINE",
"431 485 LINE",
"427 436 OFFCURVE",
"424 388 OFFCURVE",
"379 388 CURVE SMOOTH",
"162 388 LINE",
"162 348 LINE",
"379 348 LINE SMOOTH",
"424 348 OFFCURVE",
"427 300 OFFCURVE",
"431 251 CURVE"
);
},
{
closed = 1;
nodes = (
"362 765 OFFCURVE",
"380 784 OFFCURVE",
"380 811 CURVE SMOOTH",
"380 839 OFFCURVE",
"362 858 OFFCURVE",
"334 858 CURVE SMOOTH",
"305 858 OFFCURVE",
"287 839 OFFCURVE",
"287 811 CURVE SMOOTH",
"287 784 OFFCURVE",
"305 765 OFFCURVE",
"334 765 CURVE SMOOTH"
);
}
);
};
components = (
{
name = E;
},
{
name = dotaccentcomb;
transform = "{1, 0, 0, 1, 356, 200}";
}
);
layerId = "2F8C22CF-EC86-44F4-AF1A-A6C7F26A0C3C";
width = 630;
}
);
note = Edotaccent;
unicode = 0116;
},
{
glyphname = Edotbelow;
lastChange = "2018-02-21 13:46:24 +0000";
layers = (
{
background = {
paths = (
{
closed = 1;
nodes = (
"554 0 LINE",
"571 179 LINE",
"544 179 LINE",
"538 124 OFFCURVE",
"520 40 OFFCURVE",
"456 40 CURVE SMOOTH",
"201 40 LINE",
"201 659 LINE",
"441 659 LINE SMOOTH",
"516 659 OFFCURVE",
"525 567 OFFCURVE",
"528 527 CURVE",
"555 527 LINE",
"555 700 LINE",
"16 700 LINE",
"16 673 LINE",
"44 673 LINE SMOOTH",
"83 673 OFFCURVE",
"103 662 OFFCURVE",
"103 637 CURVE SMOOTH",
"103 62 LINE SMOOTH",
"103 37 OFFCURVE",
"83 26 OFFCURVE",
"44 26 CURVE SMOOTH",
"16 26 LINE",
"16 0 LINE"
);
},
{
closed = 1;
nodes = (
"343 -159 OFFCURVE",
"361 -140 OFFCURVE",
"361 -112 CURVE SMOOTH",
"361 -84 OFFCURVE",
"343 -64 OFFCURVE",
"315 -64 CURVE SMOOTH",
"287 -64 OFFCURVE",
"268 -84 OFFCURVE",
"268 -112 CURVE SMOOTH",
"268 -140 OFFCURVE",
"287 -159 OFFCURVE",
"315 -159 CURVE SMOOTH"
);
},
{
closed = 1;
nodes = (
"455 251 LINE",
"455 485 LINE",
"431 485 LINE",
"427 436 OFFCURVE",
"424 388 OFFCURVE",
"379 388 CURVE SMOOTH",
"162 388 LINE",
"162 348 LINE",
"379 348 LINE SMOOTH",
"424 348 OFFCURVE",
"427 300 OFFCURVE",
"431 251 CURVE"
);
}
);
};
components = (
{
name = E;
},
{
name = dotbelowcomb;
transform = "{1, 0, 0, 1, 125, 0}";
}
);
layerId = "0B1DFD06-3317-40CA-B510-4969A0718C16";
width = 535;
},
{
background = {
paths = (
{
closed = 1;
nodes = (
"554 0 LINE",
"571 179 LINE",
"544 179 LINE",
"538 124 OFFCURVE",
"520 40 OFFCURVE",
"456 40 CURVE SMOOTH",
"201 40 LINE",
"201 659 LINE",
"441 659 LINE SMOOTH",
"516 659 OFFCURVE",
"525 567 OFFCURVE",
"528 527 CURVE",
"555 527 LINE",
"555 700 LINE",
"16 700 LINE",
"16 673 LINE",
"44 673 LINE SMOOTH",
"83 673 OFFCURVE",
"103 662 OFFCURVE",
"103 637 CURVE SMOOTH",
"103 62 LINE SMOOTH",
"103 37 OFFCURVE",
"83 26 OFFCURVE",
"44 26 CURVE SMOOTH",
"16 26 LINE",
"16 0 LINE"
);
},
{
closed = 1;
nodes = (
"343 -159 OFFCURVE",
"361 -140 OFFCURVE",
"361 -112 CURVE SMOOTH",
"361 -84 OFFCURVE",
"343 -64 OFFCURVE",
"315 -64 CURVE SMOOTH",
"287 -64 OFFCURVE",
"268 -84 OFFCURVE",
"268 -112 CURVE SMOOTH",
"268 -140 OFFCURVE",
"287 -159 OFFCURVE",
"315 -159 CURVE SMOOTH"
);
},
{
closed = 1;
nodes = (
"455 251 LINE",
"455 485 LINE",
"431 485 LINE",
"427 436 OFFCURVE",
"424 388 OFFCURVE",
"379 388 CURVE SMOOTH",
"162 388 LINE",
"162 348 LINE",
"379 348 LINE SMOOTH",
"424 348 OFFCURVE",
"427 300 OFFCURVE",
"431 251 CURVE"
);
}
);
};
components = (
{
name = E;
},
{
name = dotbelowcomb;
transform = "{1, 0, 0, 1, 177, 0}";
}
);
layerId = "2F8C22CF-EC86-44F4-AF1A-A6C7F26A0C3C";
width = 630;
}
);
note = Edotbelow;
unicode = 1EB8;
},
{
glyphname = Egrave;
lastChange = "2018-02-21 14:43:26 +0000";
layers = (
{
background = {
paths = (
{
closed = 1;
nodes = (
"554 0 LINE",
"571 179 LINE",
"544 179 LINE",
"538 124 OFFCURVE",
"520 40 OFFCURVE",
"456 40 CURVE SMOOTH",
"201 40 LINE",
"201 659 LINE",
"441 659 LINE SMOOTH",
"516 659 OFFCURVE",
"525 567 OFFCURVE",
"528 527 CURVE",
"555 527 LINE",
"555 700 LINE",
"16 700 LINE",
"16 673 LINE",
"44 673 LINE SMOOTH",
"83 673 OFFCURVE",
"103 662 OFFCURVE",
"103 637 CURVE SMOOTH",
"103 62 LINE SMOOTH",
"103 37 OFFCURVE",
"83 26 OFFCURVE",
"44 26 CURVE SMOOTH",
"16 26 LINE",
"16 0 LINE"
);
},
{
closed = 1;
nodes = (
"455 251 LINE",
"455 485 LINE",
"431 485 LINE",
"427 436 OFFCURVE",
"424 388 OFFCURVE",
"379 388 CURVE SMOOTH",
"162 388 LINE",
"162 348 LINE",
"379 348 LINE SMOOTH",
"424 348 OFFCURVE",
"427 300 OFFCURVE",
"431 251 CURVE"
);
},
{
closed = 1;
nodes = (
"425 807 LINE",
"310 913 LINE",
"301 922 OFFCURVE",
"285 937 OFFCURVE",
"265 937 CURVE SMOOTH",
"245 937 OFFCURVE",
"233 924 OFFCURVE",
"233 908 CURVE SMOOTH",
"233 890 OFFCURVE",
"245 876 OFFCURVE",
"264 865 CURVE SMOOTH",
"407 782 LINE"
);
}
);
};
components = (
{
name = E;
},
{
name = gravecomb;
transform = "{1, 0, 0, 1, 134, 200}";
}
);
layerId = "0B1DFD06-3317-40CA-B510-4969A0718C16";
width = 535;
},
{
background = {
paths = (
{
closed = 1;
nodes = (
"554 0 LINE",
"571 179 LINE",
"544 179 LINE",
"538 124 OFFCURVE",
"520 40 OFFCURVE",
"456 40 CURVE SMOOTH",
"201 40 LINE",
"201 659 LINE",
"441 659 LINE SMOOTH",
"516 659 OFFCURVE",
"525 567 OFFCURVE",
"528 527 CURVE",
"555 527 LINE",
"555 700 LINE",
"16 700 LINE",
"16 673 LINE",
"44 673 LINE SMOOTH",
"83 673 OFFCURVE",
"103 662 OFFCURVE",
"103 637 CURVE SMOOTH",
"103 62 LINE SMOOTH",
"103 37 OFFCURVE",
"83 26 OFFCURVE",
"44 26 CURVE SMOOTH",
"16 26 LINE",
"16 0 LINE"
);
},
{
closed = 1;
nodes = (
"455 251 LINE",
"455 485 LINE",
"431 485 LINE",
"427 436 OFFCURVE",
"424 388 OFFCURVE",
"379 388 CURVE SMOOTH",
"162 388 LINE",
"162 348 LINE",
"379 348 LINE SMOOTH",
"424 348 OFFCURVE",
"427 300 OFFCURVE",
"431 251 CURVE"
);
},
{
closed = 1;
nodes = (
"425 807 LINE",
"310 913 LINE",
"301 922 OFFCURVE",
"285 937 OFFCURVE",
"265 937 CURVE SMOOTH",
"245 937 OFFCURVE",
"233 924 OFFCURVE",
"233 908 CURVE SMOOTH",
"233 890 OFFCURVE",
"245 876 OFFCURVE",
"264 865 CURVE SMOOTH",
"407 782 LINE"
);
}
);
};
components = (
{
name = E;
},
{
name = gravecomb;
transform = "{1, 0, 0, 1, 170, 200}";
}
);
layerId = "2F8C22CF-EC86-44F4-AF1A-A6C7F26A0C3C";
width = 630;
}
);
note = Egrave;
unicode = 00C8;
},
{
glyphname = Ehookabove;
lastChange = "2018-02-21 14:43:25 +0000";
layers = (
{
background = {
paths = (
{
closed = 1;
nodes = (
"554 0 LINE",
"571 179 LINE",
"544 179 LINE",
"538 124 OFFCURVE",
"520 40 OFFCURVE",
"456 40 CURVE SMOOTH",
"201 40 LINE",
"201 659 LINE",
"441 659 LINE SMOOTH",
"516 659 OFFCURVE",
"525 567 OFFCURVE",
"528 527 CURVE",
"555 527 LINE",
"555 700 LINE",
"16 700 LINE",
"16 673 LINE",
"44 673 LINE SMOOTH",
"83 673 OFFCURVE",
"103 662 OFFCURVE",
"103 637 CURVE SMOOTH",
"103 62 LINE SMOOTH",
"103 37 OFFCURVE",
"83 26 OFFCURVE",
"44 26 CURVE SMOOTH",
"16 26 LINE",
"16 0 LINE"
);
},
{
closed = 1;
nodes = (
"455 251 LINE",
"455 485 LINE",
"431 485 LINE",
"427 436 OFFCURVE",
"424 388 OFFCURVE",
"379 388 CURVE SMOOTH",
"162 388 LINE",
"162 348 LINE",
"379 348 LINE SMOOTH",
"424 348 OFFCURVE",
"427 300 OFFCURVE",
"431 251 CURVE"
);
},
{
closed = 1;
nodes = (
"367 798 LINE",
"348 805 OFFCURVE",
"336 811 OFFCURVE",
"336 828 CURVE SMOOTH",
"336 861 OFFCURVE",
"425 876 OFFCURVE",
"425 927 CURVE SMOOTH",
"425 969 OFFCURVE",
"389 991 OFFCURVE",
"336 991 CURVE SMOOTH",
"289 991 OFFCURVE",
"248 974 OFFCURVE",
"248 940 CURVE SMOOTH",
"248 923 OFFCURVE",
"256 915 OFFCURVE",
"271 915 CURVE SMOOTH",
"294 915 OFFCURVE",
"296 934 OFFCURVE",
"299 942 CURVE SMOOTH",
"304 956 OFFCURVE",
"321 962 OFFCURVE",
"337 962 CURVE SMOOTH",
"358 962 OFFCURVE",
"371 947 OFFCURVE",
"371 930 CURVE SMOOTH",
"371 885 OFFCURVE",
"289 874 OFFCURVE",
"289 828 CURVE SMOOTH",
"289 801 OFFCURVE",
"307 778 OFFCURVE",
"358 778 CURVE"
);
}
);
};
components = (
{
name = E;
},
{
name = hookabovecomb;
transform = "{1, 0, 0, 1, 18, 200}";
}
);
layerId = "0B1DFD06-3317-40CA-B510-4969A0718C16";
width = 535;
},
{
background = {
paths = (
{
closed = 1;
nodes = (
"554 0 LINE",
"571 179 LINE",
"544 179 LINE",
"538 124 OFFCURVE",
"520 40 OFFCURVE",
"456 40 CURVE SMOOTH",
"201 40 LINE",
"201 659 LINE",
"441 659 LINE SMOOTH",
"516 659 OFFCURVE",
"525 567 OFFCURVE",
"528 527 CURVE",
"555 527 LINE",
"555 700 LINE",
"16 700 LINE",
"16 673 LINE",
"44 673 LINE SMOOTH",
"83 673 OFFCURVE",
"103 662 OFFCURVE",
"103 637 CURVE SMOOTH",
"103 62 LINE SMOOTH",
"103 37 OFFCURVE",
"83 26 OFFCURVE",
"44 26 CURVE SMOOTH",
"16 26 LINE",
"16 0 LINE"
);
},
{
closed = 1;
nodes = (
"455 251 LINE",
"455 485 LINE",
"431 485 LINE",
"427 436 OFFCURVE",
"424 388 OFFCURVE",
"379 388 CURVE SMOOTH",
"162 388 LINE",
"162 348 LINE",
"379 348 LINE SMOOTH",
"424 348 OFFCURVE",
"427 300 OFFCURVE",
"431 251 CURVE"
);
},
{
closed = 1;
nodes = (
"367 798 LINE",
"348 805 OFFCURVE",
"336 811 OFFCURVE",
"336 828 CURVE SMOOTH",
"336 861 OFFCURVE",
"425 876 OFFCURVE",
"425 927 CURVE SMOOTH",
"425 969 OFFCURVE",
"389 991 OFFCURVE",
"336 991 CURVE SMOOTH",
"289 991 OFFCURVE",
"248 974 OFFCURVE",
"248 940 CURVE SMOOTH",
"248 923 OFFCURVE",
"256 915 OFFCURVE",
"271 915 CURVE SMOOTH",
"294 915 OFFCURVE",
"296 934 OFFCURVE",
"299 942 CURVE SMOOTH",
"304 956 OFFCURVE",
"321 962 OFFCURVE",
"337 962 CURVE SMOOTH",
"358 962 OFFCURVE",
"371 947 OFFCURVE",
"371 930 CURVE SMOOTH",
"371 885 OFFCURVE",
"289 874 OFFCURVE",
"289 828 CURVE SMOOTH",
"289 801 OFFCURVE",
"307 778 OFFCURVE",
"358 778 CURVE"
);
}
);
};
components = (
{
name = E;
},
{
name = hookabovecomb;
transform = "{1, 0, 0, 1, 54, 200}";
}
);
layerId = "2F8C22CF-EC86-44F4-AF1A-A6C7F26A0C3C";
width = 630;
}
);
note = Ehookabove;
unicode = 1EBA;
},
{
glyphname = Emacron;
lastChange = "2018-02-21 14:43:25 +0000";
layers = (
{
background = {
paths = (
{
closed = 1;
nodes = (
"554 0 LINE",
"571 179 LINE",
"544 179 LINE",
"538 124 OFFCURVE",
"520 40 OFFCURVE",
"456 40 CURVE SMOOTH",
"201 40 LINE",
"201 659 LINE",
"441 659 LINE SMOOTH",
"516 659 OFFCURVE",
"525 567 OFFCURVE",
"528 527 CURVE",
"555 527 LINE",
"555 700 LINE",
"16 700 LINE",
"16 673 LINE",
"44 673 LINE SMOOTH",
"83 673 OFFCURVE",
"103 662 OFFCURVE",
"103 637 CURVE SMOOTH",
"103 62 LINE SMOOTH",
"103 37 OFFCURVE",
"83 26 OFFCURVE",
"44 26 CURVE SMOOTH",
"16 26 LINE",
"16 0 LINE"
);
},
{
closed = 1;
nodes = (
"455 251 LINE",
"455 485 LINE",
"431 485 LINE",
"427 436 OFFCURVE",
"424 388 OFFCURVE",
"379 388 CURVE SMOOTH",
"162 388 LINE",
"162 348 LINE",
"379 348 LINE SMOOTH",
"424 348 OFFCURVE",
"427 300 OFFCURVE",
"431 251 CURVE"
);
},
{
closed = 1;
nodes = (
"495 782 LINE",
"495 824 LINE",
"162 824 LINE",
"162 782 LINE"
);
}
);
};
components = (
{
name = E;
},
{
name = macroncomb;
transform = "{1, 0, 0, 1, 319, 200}";
}
);
layerId = "0B1DFD06-3317-40CA-B510-4969A0718C16";
width = 535;
},
{
background = {
paths = (
{
closed = 1;
nodes = (
"554 0 LINE",
"571 179 LINE",
"544 179 LINE",
"538 124 OFFCURVE",
"520 40 OFFCURVE",
"456 40 CURVE SMOOTH",
"201 40 LINE",
"201 659 LINE",
"441 659 LINE SMOOTH",
"516 659 OFFCURVE",
"525 567 OFFCURVE",
"528 527 CURVE",
"555 527 LINE",
"555 700 LINE",
"16 700 LINE",
"16 673 LINE",
"44 673 LINE SMOOTH",
"83 673 OFFCURVE",
"103 662 OFFCURVE",
"103 637 CURVE SMOOTH",
"103 62 LINE SMOOTH",
"103 37 OFFCURVE",
"83 26 OFFCURVE",
"44 26 CURVE SMOOTH",
"16 26 LINE",
"16 0 LINE"
);
},
{
closed = 1;
nodes = (
"455 251 LINE",
"455 485 LINE",
"431 485 LINE",
"427 436 OFFCURVE",
"424 388 OFFCURVE",
"379 388 CURVE SMOOTH",
"162 388 LINE",
"162 348 LINE",
"379 348 LINE SMOOTH",
"424 348 OFFCURVE",
"427 300 OFFCURVE",
"431 251 CURVE"
);
},
{
closed = 1;
nodes = (
"495 782 LINE",
"495 824 LINE",
"162 824 LINE",
"162 782 LINE"
);
}
);
};
components = (
{
name = E;
},
{
name = macroncomb;
transform = "{1, 0, 0, 1, 355, 200}";
}
);
layerId = "2F8C22CF-EC86-44F4-AF1A-A6C7F26A0C3C";
width = 630;
}
);
note = Emacron;
unicode = 0112;
},
{
glyphname = Eogonek;
lastChange = "2018-02-22 08:49:24 +0000";
layers = (
{
anchors = (
{
name = top;
position = "{304, 700}";
}
);
background = {
paths = (
{
closed = 1;
nodes = (
"554 0 LINE",
"571 179 LINE",
"544 179 LINE",
"538 124 OFFCURVE",
"520 40 OFFCURVE",
"456 40 CURVE SMOOTH",
"201 40 LINE",
"201 659 LINE",
"441 659 LINE SMOOTH",
"516 659 OFFCURVE",
"525 567 OFFCURVE",
"528 527 CURVE",
"555 527 LINE",
"555 700 LINE",
"16 700 LINE",
"16 673 LINE",
"44 673 LINE SMOOTH",
"83 673 OFFCURVE",
"103 662 OFFCURVE",
"103 637 CURVE SMOOTH",
"103 62 LINE SMOOTH",
"103 37 OFFCURVE",
"83 26 OFFCURVE",
"44 26 CURVE SMOOTH",
"16 26 LINE",
"16 0 LINE"
);
},
{
closed = 1;
nodes = (
"496 -196 OFFCURVE",
"524 -189 OFFCURVE",
"549 -172 CURVE",
"543 -152 LINE",
"527 -158 OFFCURVE",
"510 -162 OFFCURVE",
"497 -162 CURVE SMOOTH",
"464 -162 OFFCURVE",
"437 -146 OFFCURVE",
"437 -106 CURVE SMOOTH",
"437 -66 OFFCURVE",
"464 -26 OFFCURVE",
"510 4 CURVE",
"469 4 LINE",
"416 -22 OFFCURVE",
"376 -64 OFFCURVE",
"376 -114 CURVE SMOOTH",
"376 -147 OFFCURVE",
"395 -196 OFFCURVE",
"470 -196 CURVE SMOOTH"
);
},
{
closed = 1;
nodes = (
"455 251 LINE",
"455 485 LINE",
"431 485 LINE",
"427 436 OFFCURVE",
"424 388 OFFCURVE",
"379 388 CURVE SMOOTH",
"162 388 LINE",
"162 348 LINE",
"379 348 LINE SMOOTH",
"424 348 OFFCURVE",
"427 300 OFFCURVE",
"431 251 CURVE"
);
}
);
};
components = (
{
name = E;
},
{
name = ogonekcomb;
transform = "{1, 0, 0, 1, 441, 34}";
}
);
layerId = "0B1DFD06-3317-40CA-B510-4969A0718C16";
width = 535;
},
{
anchors = (
{
name = top;
position = "{304, 700}";
}
);
background = {
paths = (
{
closed = 1;
nodes = (
"554 0 LINE",
"571 179 LINE",
"544 179 LINE",
"538 124 OFFCURVE",
"520 40 OFFCURVE",
"456 40 CURVE SMOOTH",
"201 40 LINE",
"201 659 LINE",
"441 659 LINE SMOOTH",
"516 659 OFFCURVE",
"525 567 OFFCURVE",
"528 527 CURVE",
"555 527 LINE",
"555 700 LINE",
"16 700 LINE",
"16 673 LINE",
"44 673 LINE SMOOTH",
"83 673 OFFCURVE",
"103 662 OFFCURVE",
"103 637 CURVE SMOOTH",
"103 62 LINE SMOOTH",
"103 37 OFFCURVE",
"83 26 OFFCURVE",
"44 26 CURVE SMOOTH",
"16 26 LINE",
"16 0 LINE"
);
},
{
closed = 1;
nodes = (
"496 -196 OFFCURVE",
"524 -189 OFFCURVE",
"549 -172 CURVE",
"543 -152 LINE",
"527 -158 OFFCURVE",
"510 -162 OFFCURVE",
"497 -162 CURVE SMOOTH",
"464 -162 OFFCURVE",
"437 -146 OFFCURVE",
"437 -106 CURVE SMOOTH",
"437 -66 OFFCURVE",
"464 -26 OFFCURVE",
"510 4 CURVE",
"469 4 LINE",
"416 -22 OFFCURVE",
"376 -64 OFFCURVE",
"376 -114 CURVE SMOOTH",
"376 -147 OFFCURVE",
"395 -196 OFFCURVE",
"470 -196 CURVE SMOOTH"
);
},
{
closed = 1;
nodes = (
"455 251 LINE",
"455 485 LINE",
"431 485 LINE",
"427 436 OFFCURVE",
"424 388 OFFCURVE",
"379 388 CURVE SMOOTH",
"162 388 LINE",
"162 348 LINE",
"379 348 LINE SMOOTH",
"424 348 OFFCURVE",
"427 300 OFFCURVE",
"431 251 CURVE"
);
}
);
};
components = (
{
name = E;
},
{
name = ogonekcomb;
transform = "{1, 0, 0, 1, 487, 74}";
}
);
layerId = "2F8C22CF-EC86-44F4-AF1A-A6C7F26A0C3C";
width = 630;
}
);
note = Eogonek;
unicode = 0118;
},
{
glyphname = Etilde;
lastChange = "2018-02-21 14:43:25 +0000";
layers = (
{
background = {
paths = (
{
closed = 1;
nodes = (
"554 0 LINE",
"571 179 LINE",
"544 179 LINE",
"538 124 OFFCURVE",
"520 40 OFFCURVE",
"456 40 CURVE SMOOTH",
"201 40 LINE",
"201 659 LINE",
"441 659 LINE SMOOTH",
"516 659 OFFCURVE",
"525 567 OFFCURVE",
"528 527 CURVE",
"555 527 LINE",
"555 700 LINE",
"16 700 LINE",
"16 673 LINE",
"44 673 LINE SMOOTH",
"83 673 OFFCURVE",
"103 662 OFFCURVE",
"103 637 CURVE SMOOTH",
"103 62 LINE SMOOTH",
"103 37 OFFCURVE",
"83 26 OFFCURVE",
"44 26 CURVE SMOOTH",
"16 26 LINE",
"16 0 LINE"
);
},
{
closed = 1;
nodes = (
"455 251 LINE",
"455 485 LINE",
"431 485 LINE",
"427 436 OFFCURVE",
"424 388 OFFCURVE",
"379 388 CURVE SMOOTH",
"162 388 LINE",
"162 348 LINE",
"379 348 LINE SMOOTH",
"424 348 OFFCURVE",
"427 300 OFFCURVE",
"431 251 CURVE"
);
},
{
closed = 1;
nodes = (
"190 817 OFFCURVE",
"208 838 OFFCURVE",
"241 838 CURVE SMOOTH",
"292 838 OFFCURVE",
"341 784 OFFCURVE",
"392 784 CURVE SMOOTH",
"450 784 OFFCURVE",
"480 832 OFFCURVE",
"492 884 CURVE",
"471 895 LINE",
"455 855 OFFCURVE",
"439 833 OFFCURVE",
"405 833 CURVE SMOOTH",
"356 833 OFFCURVE",
"304 886 OFFCURVE",
"253 886 CURVE SMOOTH",
"199 886 OFFCURVE",
"166 842 OFFCURVE",
"154 790 CURVE",
"176 779 LINE"
);
}
);
};
components = (
{
name = E;
},
{
name = tildecomb;
transform = "{1, 0, 0, 1, 128, 200}";
}
);
layerId = "0B1DFD06-3317-40CA-B510-4969A0718C16";
width = 535;
},
{
background = {
paths = (
{
closed = 1;
nodes = (
"554 0 LINE",
"571 179 LINE",
"544 179 LINE",
"538 124 OFFCURVE",
"520 40 OFFCURVE",
"456 40 CURVE SMOOTH",
"201 40 LINE",
"201 659 LINE",
"441 659 LINE SMOOTH",
"516 659 OFFCURVE",
"525 567 OFFCURVE",
"528 527 CURVE",
"555 527 LINE",
"555 700 LINE",
"16 700 LINE",
"16 673 LINE",
"44 673 LINE SMOOTH",
"83 673 OFFCURVE",
"103 662 OFFCURVE",
"103 637 CURVE SMOOTH",
"103 62 LINE SMOOTH",
"103 37 OFFCURVE",
"83 26 OFFCURVE",
"44 26 CURVE SMOOTH",
"16 26 LINE",
"16 0 LINE"
);
},
{
closed = 1;
nodes = (
"455 251 LINE",
"455 485 LINE",
"431 485 LINE",
"427 436 OFFCURVE",
"424 388 OFFCURVE",
"379 388 CURVE SMOOTH",
"162 388 LINE",
"162 348 LINE",
"379 348 LINE SMOOTH",
"424 348 OFFCURVE",
"427 300 OFFCURVE",
"431 251 CURVE"
);
},
{
closed = 1;
nodes = (
"190 817 OFFCURVE",
"208 838 OFFCURVE",
"241 838 CURVE SMOOTH",
"292 838 OFFCURVE",
"341 784 OFFCURVE",
"392 784 CURVE SMOOTH",
"450 784 OFFCURVE",
"480 832 OFFCURVE",
"492 884 CURVE",
"471 895 LINE",
"455 855 OFFCURVE",
"439 833 OFFCURVE",
"405 833 CURVE SMOOTH",
"356 833 OFFCURVE",
"304 886 OFFCURVE",
"253 886 CURVE SMOOTH",
"199 886 OFFCURVE",
"166 842 OFFCURVE",
"154 790 CURVE",
"176 779 LINE"
);
}
);
};
components = (
{
name = E;
},
{
name = tildecomb;
transform = "{1, 0, 0, 1, 164, 200}";
}
);
layerId = "2F8C22CF-EC86-44F4-AF1A-A6C7F26A0C3C";
width = 630;
}
);
note = Etilde;
unicode = 1EBC;
},
